  0
SECTION
  2
HEADER
  9
$ANGBASE
  50
0.0
  9
$ANGDIR
  70
1
  9
$MEASUREMENT
  70
1
  0
ENDSEC
  0
SECTION
  2
TABLES
  0
TABLE
  2
LTYPE
  70
4
  0
LTYPE
  5
40F
  2
CONTINUOUS
  70
0
  3
Solid line
  72
65
  73
0
  40
0.0
  0
LTYPE
  5
410
  2
DASHDOT
 70
0
  3
Dash Dot ____ _ ____ _
 72
65
 73
4
 40
2.0
 49
1.25
 49
-0.25
 49
0.25
 49
-0.25
  0
LTYPE
  5
411
  2
DASHED
 70
0
  3
Dashed __ __ __ __ __
 72
65
 73
2
 40
0.75
 49
0.5
 49
-0.25
  0
LTYPE
  5
43B
  2
DOTTED
 70
0
  3
Dotted .  .  .  .
 72
65
 73
2
 40
0.2
 49
0.0
 49
-0.2
  0
ENDTAB
  0
TABLE
  2
STYLE
  70
4
  0
STYLE
  2
KICAD
  70
0
  40
0
  41
1
  42
1
  50
0
  71
0
  3
isocp.shx
  0
STYLE
  2
KICADB
  70
0
  40
0
  41
1
  42
1
  50
0
  71
0
  3
isocp.shx
  0
STYLE
  2
KICADI
  70
0
  40
0
  41
1
  42
1
  50
15
  71
0
  3
isocp.shx
  0
STYLE
  2
KICADBI
  70
0
  40
0
  41
1
  42
1
  50
15
  71
0
  3
isocp.shx
  0
ENDTAB
  0
TABLE
  2
LAYER
  70
1
  0
LAYER
  2
BLACK
  70
0
  62
7
  6
CONTINUOUS
  0
ENDTAB
  0
ENDSEC
  0
SECTION
  2
ENTITIES
0
LINE
8
BLACK
6
CONTINUOUS
10
67.019999999999996
20
-78.4099999999999966
11
65.019999999999996
21
-78.4099999999999966
0
LINE
8
BLACK
6
CONTINUOUS
10
65.019999999999996
20
-78.4099999999999966
11
65.019999999999996
21
-78.1499999999999915
0
LINE
8
BLACK
6
CONTINUOUS
10
65.019999999999996
20
-78.1499999999999915
11
60.5106599999999943
21
-78.1499999999999915
0
LINE
8
BLACK
6
CONTINUOUS
10
60.5106599999999943
20
-78.1499999999999915
11
59.0700000000000003
21
-79.5906599999999997
0
LINE
8
BLACK
6
CONTINUOUS
10
59.0700000000000003
20
-79.5906599999999997
11
59.0700000000000003
21
-108.0593399999999917
0
LINE
8
BLACK
6
CONTINUOUS
10
59.0700000000000003
20
-108.0593399999999917
11
62.7006599999999992
21
-111.6899999999999977
0
LINE
8
BLACK
6
CONTINUOUS
10
62.7006599999999992
20
-111.6899999999999977
11
104.4193399999999912
21
-111.6899999999999977
0
LINE
8
BLACK
6
CONTINUOUS
10
104.4193399999999912
20
-111.6899999999999977
11
106.5899999999999892
21
-109.5193399999999997
0
LINE
8
BLACK
6
CONTINUOUS
10
106.5899999999999892
20
-109.5193399999999997
11
106.5899999999999892
21
-87.6206600000000009
0
LINE
8
BLACK
6
CONTINUOUS
10
106.5899999999999892
20
-87.6206600000000009
11
102.88933999999999
21
-83.9200000000000017
0
LINE
8
BLACK
6
CONTINUOUS
10
102.88933999999999
20
-83.9200000000000017
11
94.2774599999999907
21
-83.9200000000000017
0
LINE
8
BLACK
6
CONTINUOUS
10
94.2774599999999907
20
-83.9200000000000017
11
94.2774599999999907
21
-84.1548129999999901
0
LINE
8
BLACK
6
CONTINUOUS
10
94.2774599999999907
20
-84.1548129999999901
11
91.7774599999999907
21
-84.1548129999999901
0
LINE
8
BLACK
6
CONTINUOUS
10
91.7774599999999907
20
-84.1548129999999901
11
91.7774599999999907
21
-82.1548129999999901
0
LINE
8
BLACK
6
CONTINUOUS
10
91.7774599999999907
20
-82.1548129999999901
11
94.2774599999999907
21
-82.1548129999999901
0
LINE
8
BLACK
6
CONTINUOUS
10
94.2774599999999907
20
-82.1548129999999901
11
94.2774599999999907
21
-82.4200000000000017
0
LINE
8
BLACK
6
CONTINUOUS
10
94.2774599999999907
20
-82.4200000000000017
11
103.1999999999999886
21
-82.4200000000000017
0
LINE
8
BLACK
6
CONTINUOUS
10
103.1999999999999886
20
-82.4200000000000017
11
103.2735129999999941
21
-82.423610999999994
0
LINE
8
BLACK
6
CONTINUOUS
10
103.2735129999999941
20
-82.423610999999994
11
103.417712999999992
21
-82.4522939999999949
0
LINE
8
BLACK
6
CONTINUOUS
10
103.417712999999992
20
-82.4522939999999949
11
103.4972829999999959
21
-82.4852530000000002
0
LINE
8
BLACK
6
CONTINUOUS
10
103.4972829999999959
20
-82.4852530000000002
11
103.5535479999999922
21
-82.5085589999999911
0
LINE
8
BLACK
6
CONTINUOUS
10
103.5535479999999922
20
-82.5085589999999911
11
103.5908939999999916
21
-82.5335129999999992
0
LINE
8
BLACK
6
CONTINUOUS
10
103.5908939999999916
20
-82.5335129999999992
11
103.6757949999999937
21
-82.5902419999999893
0
LINE
8
BLACK
6
CONTINUOUS
10
103.6757949999999937
20
-82.5902419999999893
11
103.730329999999995
21
-82.6396699999999953
0
LINE
8
BLACK
6
CONTINUOUS
10
103.730329999999995
20
-82.6396699999999953
11
107.8703299999999956
21
-86.7796699999999959
0
LINE
8
BLACK
6
CONTINUOUS
10
107.8703299999999956
20
-86.7796699999999959
11
107.9197580000000016
21
-86.8342049999999972
0
LINE
8
BLACK
6
CONTINUOUS
10
107.9197580000000016
20
-86.8342049999999972
11
108.0014409999999998
21
-86.9564519999999987
0
LINE
8
BLACK
6
CONTINUOUS
10
108.0014409999999998
20
-86.9564519999999987
11
108.0577049999999986
21
-87.0922860000000014
0
LINE
8
BLACK
6
CONTINUOUS
10
108.0577049999999986
20
-87.0922860000000014
11
108.0863889999999969
21
-87.2364869999999968
0
LINE
8
BLACK
6
CONTINUOUS
10
108.0863889999999969
20
-87.2364869999999968
11
108.0899999999999892
21
-87.3100000000000023
0
LINE
8
BLACK
6
CONTINUOUS
10
108.0899999999999892
20
-87.3100000000000023
11
108.0899999999999892
21
-109.8299999999999983
0
LINE
8
BLACK
6
CONTINUOUS
10
108.0899999999999892
20
-109.8299999999999983
11
108.0863889999999969
21
-109.9035129999999896
0
LINE
8
BLACK
6
CONTINUOUS
10
108.0863889999999969
20
-109.9035129999999896
11
108.0577049999999986
21
-110.0477139999999991
0
LINE
8
BLACK
6
CONTINUOUS
10
108.0577049999999986
20
-110.0477139999999991
11
108.0014409999999998
21
-110.1835480000000018
0
LINE
8
BLACK
6
CONTINUOUS
10
108.0014409999999998
20
-110.1835480000000018
11
107.9197580000000016
21
-110.3057949999999892
0
LINE
8
BLACK
6
CONTINUOUS
10
107.9197580000000016
20
-110.3057949999999892
11
107.8703299999999956
21
-110.3603299999999905
0
LINE
8
BLACK
6
CONTINUOUS
10
107.8703299999999956
20
-110.3603299999999905
11
105.2603299999999962
21
-112.9703299999999899
0
LINE
8
BLACK
6
CONTINUOUS
10
105.2603299999999962
20
-112.9703299999999899
11
105.2057949999999948
21
-113.0197579999999959
0
LINE
8
BLACK
6
CONTINUOUS
10
105.2057949999999948
20
-113.0197579999999959
11
105.0835479999999933
21
-113.1014409999999941
0
LINE
8
BLACK
6
CONTINUOUS
10
105.0835479999999933
20
-113.1014409999999941
11
105.0272829999999971
21
-113.1247460000000018
0
LINE
8
BLACK
6
CONTINUOUS
10
105.0272829999999971
20
-113.1247460000000018
11
104.9477129999999931
21
-113.1577059999999904
0
LINE
8
BLACK
6
CONTINUOUS
10
104.9477129999999931
20
-113.1577059999999904
11
104.8035129999999953
21
-113.1863889999999913
0
LINE
8
BLACK
6
CONTINUOUS
10
104.8035129999999953
20
-113.1863889999999913
11
104.7299999999999898
21
-113.1899999999999977
0
LINE
8
BLACK
6
CONTINUOUS
10
104.7299999999999898
20
-113.1899999999999977
11
62.3900000000000006
21
-113.1899999999999977
0
LINE
8
BLACK
6
CONTINUOUS
10
62.3900000000000006
20
-113.1899999999999977
11
62.3164869999999951
21
-113.1863889999999913
0
LINE
8
BLACK
6
CONTINUOUS
10
62.3164869999999951
20
-113.1863889999999913
11
62.1722859999999997
21
-113.1577049999999929
0
LINE
8
BLACK
6
CONTINUOUS
10
62.1722859999999997
20
-113.1577049999999929
11
62.036451999999997
21
-113.1014409999999941
0
LINE
8
BLACK
6
CONTINUOUS
10
62.036451999999997
20
-113.1014409999999941
11
61.9142049999999955
21
-113.0197579999999959
0
LINE
8
BLACK
6
CONTINUOUS
10
61.9142049999999955
20
-113.0197579999999959
11
61.8596699999999942
21
-112.9703299999999899
0
LINE
8
BLACK
6
CONTINUOUS
10
61.8596699999999942
20
-112.9703299999999899
11
57.7896699999999939
21
-108.9003299999999967
0
LINE
8
BLACK
6
CONTINUOUS
10
57.7896699999999939
20
-108.9003299999999967
11
57.740241999999995
21
-108.8457949999999954
0
LINE
8
BLACK
6
CONTINUOUS
10
57.740241999999995
20
-108.8457949999999954
11
57.6678110000000004
21
-108.7373939999999948
0
LINE
8
BLACK
6
CONTINUOUS
10
57.6678110000000004
20
-108.7373939999999948
11
57.6585589999999968
21
-108.7235479999999939
0
LINE
8
BLACK
6
CONTINUOUS
10
57.6585589999999968
20
-108.7235479999999939
11
57.6346369999999979
21
-108.6657949999999886
0
LINE
8
BLACK
6
CONTINUOUS
10
57.6346369999999979
20
-108.6657949999999886
11
57.6022940000000006
21
-108.5877129999999937
0
LINE
8
BLACK
6
CONTINUOUS
10
57.6022940000000006
20
-108.5877129999999937
11
57.5736109999999996
21
-108.4435129999999958
0
LINE
8
BLACK
6
CONTINUOUS
10
57.5736109999999996
20
-108.4435129999999958
11
57.5700000000000003
21
-108.3699999999999903
0
LINE
8
BLACK
6
CONTINUOUS
10
57.5700000000000003
20
-108.3699999999999903
11
57.5700000000000003
21
-79.2800000000000011
0
LINE
8
BLACK
6
CONTINUOUS
10
57.5700000000000003
20
-79.2800000000000011
11
57.5736109999999996
21
-79.2064869999999956
0
LINE
8
BLACK
6
CONTINUOUS
10
57.5736109999999996
20
-79.2064869999999956
11
57.6022940000000006
21
-79.0622869999999978
0
LINE
8
BLACK
6
CONTINUOUS
10
57.6022940000000006
20
-79.0622869999999978
11
57.6585589999999968
21
-78.9264529999999951
0
LINE
8
BLACK
6
CONTINUOUS
10
57.6585589999999968
20
-78.9264529999999951
11
57.6585589999999968
21
-78.9264519999999976
0
LINE
8
BLACK
6
CONTINUOUS
10
57.6585589999999968
20
-78.9264519999999976
11
57.740241999999995
21
-78.8042049999999961
0
LINE
8
BLACK
6
CONTINUOUS
10
57.740241999999995
20
-78.8042049999999961
11
57.7896699999999939
21
-78.7496699999999947
0
LINE
8
BLACK
6
CONTINUOUS
10
57.7896699999999939
20
-78.7496699999999947
11
59.6696699999999964
21
-76.8696699999999993
0
LINE
8
BLACK
6
CONTINUOUS
10
59.6696699999999964
20
-76.8696699999999993
11
59.7242040000000003
21
-76.8202419999999933
0
LINE
8
BLACK
6
CONTINUOUS
10
59.7242040000000003
20
-76.8202419999999933
11
59.7853279999999998
21
-76.7793999999999954
0
LINE
8
BLACK
6
CONTINUOUS
10
59.7853279999999998
20
-76.7793999999999954
11
59.8464519999999993
21
-76.7385589999999951
0
LINE
8
BLACK
6
CONTINUOUS
10
59.8464519999999993
20
-76.7385589999999951
11
59.9822859999999949
21
-76.6822949999999963
0
LINE
8
BLACK
6
CONTINUOUS
10
59.9822859999999949
20
-76.6822949999999963
11
60.1264869999999974
21
-76.6536109999999979
0
LINE
8
BLACK
6
CONTINUOUS
10
60.1264869999999974
20
-76.6536109999999979
11
60.1999999999999957
21
-76.6499999999999915
0
LINE
8
BLACK
6
CONTINUOUS
10
60.1999999999999957
20
-76.6499999999999915
11
65.019999999999996
21
-76.6499999999999915
0
LINE
8
BLACK
6
CONTINUOUS
10
65.019999999999996
20
-76.6499999999999915
11
65.019999999999996
21
-75.9099999999999966
0
LINE
8
BLACK
6
CONTINUOUS
10
65.019999999999996
20
-75.9099999999999966
11
67.019999999999996
21
-75.9099999999999966
0
LINE
8
BLACK
6
CONTINUOUS
10
67.019999999999996
20
-75.9099999999999966
11
67.019999999999996
21
-78.4099999999999966
0
LINE
8
BLACK
6
CONTINUOUS
10
135.5786219999999958
20
-107.3250230000000016
11
135.8453250000000025
21
-107.3858959999999882
0
LINE
8
BLACK
6
CONTINUOUS
10
135.8453250000000025
20
-107.3858959999999882
11
136.1035349999999937
21
-107.4762479999999982
0
LINE
8
BLACK
6
CONTINUOUS
10
136.1035349999999937
20
-107.4762479999999982
11
136.3500049999999817
21
-107.5949409999999915
0
LINE
8
BLACK
6
CONTINUOUS
10
136.3500049999999817
20
-107.5949409999999915
11
136.5816360000000032
21
-107.7404849999999925
0
LINE
8
BLACK
6
CONTINUOUS
10
136.5816360000000032
20
-107.7404849999999925
11
136.7955149999999946
21
-107.9110479999999939
0
LINE
8
BLACK
6
CONTINUOUS
10
136.7955149999999946
20
-107.9110479999999939
11
136.9889519999999834
21
-108.1044849999999968
0
LINE
8
BLACK
6
CONTINUOUS
10
136.9889519999999834
20
-108.1044849999999968
11
137.159514999999999
21
-108.3183639999999883
0
LINE
8
BLACK
6
CONTINUOUS
10
137.159514999999999
20
-108.3183639999999883
11
137.305059
21
-108.5499949999999956
0
LINE
8
BLACK
6
CONTINUOUS
10
137.305059
20
-108.5499949999999956
11
137.4237520000000075
21
-108.7964649999999978
0
LINE
8
BLACK
6
CONTINUOUS
10
137.4237520000000075
20
-108.7964649999999978
11
137.5141040000000032
21
-109.0546749999999889
0
LINE
8
BLACK
6
CONTINUOUS
10
137.5141040000000032
20
-109.0546749999999889
11
137.5749769999999899
21
-109.3213779999999957
0
LINE
8
BLACK
6
CONTINUOUS
10
137.5749769999999899
20
-109.3213779999999957
11
137.6056059999999945
21
-109.5932189999999906
0
LINE
8
BLACK
6
CONTINUOUS
10
137.6056059999999945
20
-109.5932189999999906
11
137.6056059999999945
21
-109.8667809999999889
0
LINE
8
BLACK
6
CONTINUOUS
10
137.6056059999999945
20
-109.8667809999999889
11
137.5749769999999899
21
-110.138621999999998
0
LINE
8
BLACK
6
CONTINUOUS
10
137.5749769999999899
20
-110.138621999999998
11
137.5141040000000032
21
-110.4053249999999906
0
LINE
8
BLACK
6
CONTINUOUS
10
137.5141040000000032
20
-110.4053249999999906
11
137.4237520000000075
21
-110.663534999999996
0
LINE
8
BLACK
6
CONTINUOUS
10
137.4237520000000075
20
-110.663534999999996
11
137.305059
21
-110.9100049999999982
0
LINE
8
BLACK
6
CONTINUOUS
10
137.305059
20
-110.9100049999999982
11
137.159514999999999
21
-111.1416359999999912
0
LINE
8
BLACK
6
CONTINUOUS
10
137.159514999999999
20
-111.1416359999999912
11
136.9889519999999834
21
-111.3555149999999969
0
LINE
8
BLACK
6
CONTINUOUS
10
136.9889519999999834
20
-111.3555149999999969
11
136.7955149999999946
21
-111.5489519999999999
0
LINE
8
BLACK
6
CONTINUOUS
10
136.7955149999999946
20
-111.5489519999999999
11
136.5816360000000032
21
-111.7195150000000012
0
LINE
8
BLACK
6
CONTINUOUS
10
136.5816360000000032
20
-111.7195150000000012
11
136.3500049999999817
21
-111.865058999999988
0
LINE
8
BLACK
6
CONTINUOUS
10
136.3500049999999817
20
-111.865058999999988
11
136.1035349999999937
21
-111.9837519999999955
0
LINE
8
BLACK
6
CONTINUOUS
10
136.1035349999999937
20
-111.9837519999999955
11
135.8453250000000025
21
-112.0741039999999913
0
LINE
8
BLACK
6
CONTINUOUS
10
135.8453250000000025
20
-112.0741039999999913
11
135.5786219999999958
21
-112.1349769999999921
0
LINE
8
BLACK
6
CONTINUOUS
10
135.5786219999999958
20
-112.1349769999999921
11
135.3067810000000009
21
-112.1656059999999968
0
LINE
8
BLACK
6
CONTINUOUS
10
135.3067810000000009
20
-112.1656059999999968
11
135.0332190000000026
21
-112.1656059999999968
0
LINE
8
BLACK
6
CONTINUOUS
10
135.0332190000000026
20
-112.1656059999999968
11
134.7613780000000077
21
-112.1349769999999921
0
LINE
8
BLACK
6
CONTINUOUS
10
134.7613780000000077
20
-112.1349769999999921
11
134.4946750000000009
21
-112.0741039999999913
0
LINE
8
BLACK
6
CONTINUOUS
10
134.4946750000000009
20
-112.0741039999999913
11
134.2364649999999813
21
-111.9837519999999955
0
LINE
8
BLACK
6
CONTINUOUS
10
134.2364649999999813
20
-111.9837519999999955
11
133.9899949999999933
21
-111.865058999999988
0
LINE
8
BLACK
6
CONTINUOUS
10
133.9899949999999933
20
-111.865058999999988
11
133.7583640000000003
21
-111.7195150000000012
0
LINE
8
BLACK
6
CONTINUOUS
10
133.7583640000000003
20
-111.7195150000000012
11
133.5444849999999803
21
-111.5489519999999999
0
LINE
8
BLACK
6
CONTINUOUS
10
133.5444849999999803
20
-111.5489519999999999
11
133.3510479999999916
21
-111.3555149999999969
0
LINE
8
BLACK
6
CONTINUOUS
10
133.3510479999999916
20
-111.3555149999999969
11
133.1804850000000044
21
-111.1416359999999912
0
LINE
8
BLACK
6
CONTINUOUS
10
133.1804850000000044
20
-111.1416359999999912
11
133.0349410000000034
21
-110.9100049999999982
0
LINE
8
BLACK
6
CONTINUOUS
10
133.0349410000000034
20
-110.9100049999999982
11
132.916247999999996
21
-110.663534999999996
0
LINE
8
BLACK
6
CONTINUOUS
10
132.916247999999996
20
-110.663534999999996
11
132.8258960000000002
21
-110.4053249999999906
0
LINE
8
BLACK
6
CONTINUOUS
10
132.8258960000000002
20
-110.4053249999999906
11
132.7650229999999851
21
-110.138621999999998
0
LINE
8
BLACK
6
CONTINUOUS
10
132.7650229999999851
20
-110.138621999999998
11
132.7343939999999805
21
-109.8667809999999889
0
LINE
8
BLACK
6
CONTINUOUS
10
132.7343939999999805
20
-109.8667809999999889
11
132.7343939999999805
21
-109.5932189999999906
0
LINE
8
BLACK
6
CONTINUOUS
10
132.7343939999999805
20
-109.5932189999999906
11
132.7355210000000056
21
-109.5832189999999997
0
LINE
8
BLACK
6
CONTINUOUS
10
132.7355210000000056
20
-109.5832189999999997
11
132.7650229999999851
21
-109.3213779999999957
0
LINE
8
BLACK
6
CONTINUOUS
10
132.7650229999999851
20
-109.3213779999999957
11
132.8258960000000002
21
-109.0546749999999889
0
LINE
8
BLACK
6
CONTINUOUS
10
132.8258960000000002
20
-109.0546749999999889
11
132.916247999999996
21
-108.7964649999999978
0
LINE
8
BLACK
6
CONTINUOUS
10
132.916247999999996
20
-108.7964649999999978
11
133.0349410000000034
21
-108.5499949999999956
0
LINE
8
BLACK
6
CONTINUOUS
10
133.0349410000000034
20
-108.5499949999999956
11
133.1804850000000044
21
-108.3183639999999883
0
LINE
8
BLACK
6
CONTINUOUS
10
133.1804850000000044
20
-108.3183639999999883
11
133.3510479999999916
21
-108.1044849999999968
0
LINE
8
BLACK
6
CONTINUOUS
10
133.3510479999999916
20
-108.1044849999999968
11
133.5444849999999803
21
-107.9110479999999939
0
LINE
8
BLACK
6
CONTINUOUS
10
133.5444849999999803
20
-107.9110479999999939
11
133.7583640000000003
21
-107.7404849999999925
0
LINE
8
BLACK
6
CONTINUOUS
10
133.7583640000000003
20
-107.7404849999999925
11
133.9899949999999933
21
-107.5949409999999915
0
LINE
8
BLACK
6
CONTINUOUS
10
133.9899949999999933
20
-107.5949409999999915
11
134.2364649999999813
21
-107.4762479999999982
0
LINE
8
BLACK
6
CONTINUOUS
10
134.2364649999999813
20
-107.4762479999999982
11
134.4946750000000009
21
-107.3858959999999882
0
LINE
8
BLACK
6
CONTINUOUS
10
134.4946750000000009
20
-107.3858959999999882
11
134.7613780000000077
21
-107.3250230000000016
0
LINE
8
BLACK
6
CONTINUOUS
10
134.7613780000000077
20
-107.3250230000000016
11
135.0332190000000026
21
-107.2943939999999969
0
LINE
8
BLACK
6
CONTINUOUS
10
135.0332190000000026
20
-107.2943939999999969
11
135.3067810000000009
21
-107.2943939999999969
0
LINE
8
BLACK
6
CONTINUOUS
10
135.3067810000000009
20
-107.2943939999999969
11
135.5786219999999958
21
-107.3250230000000016
0
LINE
8
BLACK
6
CONTINUOUS
10
132.9305559999999957
20
-109.876780999999994
11
132.9688739999999996
21
-110.1678309999999925
0
LINE
8
BLACK
6
CONTINUOUS
10
132.9688739999999996
20
-110.1678309999999925
11
133.0448529999999892
21
-110.4513899999999893
0
LINE
8
BLACK
6
CONTINUOUS
10
133.0448529999999892
20
-110.4513899999999893
11
133.1571940000000041
21
-110.722605999999999
0
LINE
8
BLACK
6
CONTINUOUS
10
133.1571940000000041
20
-110.722605999999999
11
133.3039749999999799
21
-110.9768380000000008
0
LINE
8
BLACK
6
CONTINUOUS
10
133.3039749999999799
20
-110.9768380000000008
11
133.4826840000000061
21
-111.2097359999999924
0
LINE
8
BLACK
6
CONTINUOUS
10
133.4826840000000061
20
-111.2097359999999924
11
133.6902639999999849
21
-111.4173159999999996
0
LINE
8
BLACK
6
CONTINUOUS
10
133.6902639999999849
20
-111.4173159999999996
11
133.9231619999999907
21
-111.5960249999999974
0
LINE
8
BLACK
6
CONTINUOUS
10
133.9231619999999907
20
-111.5960249999999974
11
134.1773939999999925
21
-111.7428060000000016
0
LINE
8
BLACK
6
CONTINUOUS
10
134.1773939999999925
20
-111.7428060000000016
11
134.4486100000000022
21
-111.8551469999999881
0
LINE
8
BLACK
6
CONTINUOUS
10
134.4486100000000022
20
-111.8551469999999881
11
134.732168999999999
21
-111.9311259999999919
0
LINE
8
BLACK
6
CONTINUOUS
10
134.732168999999999
20
-111.9311259999999919
11
135.0232189999999832
21
-111.9694439999999958
0
LINE
8
BLACK
6
CONTINUOUS
10
135.0232189999999832
20
-111.9694439999999958
11
135.3167809999999918
21
-111.9694439999999958
0
LINE
8
BLACK
6
CONTINUOUS
10
135.3167809999999918
20
-111.9694439999999958
11
135.6078310000000045
21
-111.9311259999999919
0
LINE
8
BLACK
6
CONTINUOUS
10
135.6078310000000045
20
-111.9311259999999919
11
135.8913900000000012
21
-111.8551469999999881
0
LINE
8
BLACK
6
CONTINUOUS
10
135.8913900000000012
20
-111.8551469999999881
11
136.1626059999999825
21
-111.7428060000000016
0
LINE
8
BLACK
6
CONTINUOUS
10
136.1626059999999825
20
-111.7428060000000016
11
136.4168379999999843
21
-111.5960249999999974
0
LINE
8
BLACK
6
CONTINUOUS
10
136.4168379999999843
20
-111.5960249999999974
11
136.6497359999999901
21
-111.4173159999999996
0
LINE
8
BLACK
6
CONTINUOUS
10
136.6497359999999901
20
-111.4173159999999996
11
136.8573159999999973
21
-111.2097359999999924
0
LINE
8
BLACK
6
CONTINUOUS
10
136.8573159999999973
20
-111.2097359999999924
11
137.0360249999999951
21
-110.9768380000000008
0
LINE
8
BLACK
6
CONTINUOUS
10
137.0360249999999951
20
-110.9768380000000008
11
137.1828059999999994
21
-110.722605999999999
0
LINE
8
BLACK
6
CONTINUOUS
10
137.1828059999999994
20
-110.722605999999999
11
137.2951469999999858
21
-110.4513899999999893
0
LINE
8
BLACK
6
CONTINUOUS
10
137.2951469999999858
20
-110.4513899999999893
11
137.3711260000000038
21
-110.1678309999999925
0
LINE
8
BLACK
6
CONTINUOUS
10
137.3711260000000038
20
-110.1678309999999925
11
137.4094440000000077
21
-109.876780999999994
0
LINE
8
BLACK
6
CONTINUOUS
10
137.4094440000000077
20
-109.876780999999994
11
137.4094440000000077
21
-109.5832189999999997
0
LINE
8
BLACK
6
CONTINUOUS
10
137.4094440000000077
20
-109.5832189999999997
11
137.3711260000000038
21
-109.2921690000000012
0
LINE
8
BLACK
6
CONTINUOUS
10
137.3711260000000038
20
-109.2921690000000012
11
137.2951469999999858
21
-109.0086099999999902
0
LINE
8
BLACK
6
CONTINUOUS
10
137.2951469999999858
20
-109.0086099999999902
11
137.1828059999999994
21
-108.7373939999999948
0
LINE
8
BLACK
6
CONTINUOUS
10
137.1828059999999994
20
-108.7373939999999948
11
137.0360249999999951
21
-108.483161999999993
0
LINE
8
BLACK
6
CONTINUOUS
10
137.0360249999999951
20
-108.483161999999993
11
136.8573159999999973
21
-108.2502640000000014
0
LINE
8
BLACK
6
CONTINUOUS
10
136.8573159999999973
20
-108.2502640000000014
11
136.6497359999999901
21
-108.0426839999999942
0
LINE
8
BLACK
6
CONTINUOUS
10
136.6497359999999901
20
-108.0426839999999942
11
136.4168379999999843
21
-107.8639749999999964
0
LINE
8
BLACK
6
CONTINUOUS
10
136.4168379999999843
20
-107.8639749999999964
11
136.1626059999999825
21
-107.7171939999999921
0
LINE
8
BLACK
6
CONTINUOUS
10
136.1626059999999825
20
-107.7171939999999921
11
135.8913900000000012
21
-107.6048529999999914
0
LINE
8
BLACK
6
CONTINUOUS
10
135.8913900000000012
20
-107.6048529999999914
11
135.6078310000000045
21
-107.5288740000000018
0
LINE
8
BLACK
6
CONTINUOUS
10
135.6078310000000045
20
-107.5288740000000018
11
135.3167809999999918
21
-107.490555999999998
0
LINE
8
BLACK
6
CONTINUOUS
10
135.3167809999999918
20
-107.490555999999998
11
135.0232189999999832
21
-107.490555999999998
0
LINE
8
BLACK
6
CONTINUOUS
10
135.0232189999999832
20
-107.490555999999998
11
134.732168999999999
21
-107.5288740000000018
0
LINE
8
BLACK
6
CONTINUOUS
10
134.732168999999999
20
-107.5288740000000018
11
134.4486100000000022
21
-107.6048529999999914
0
LINE
8
BLACK
6
CONTINUOUS
10
134.4486100000000022
20
-107.6048529999999914
11
134.1773939999999925
21
-107.7171939999999921
0
LINE
8
BLACK
6
CONTINUOUS
10
134.1773939999999925
20
-107.7171939999999921
11
133.9231619999999907
21
-107.8639749999999964
0
LINE
8
BLACK
6
CONTINUOUS
10
133.9231619999999907
20
-107.8639749999999964
11
133.6902639999999849
21
-108.0426839999999942
0
LINE
8
BLACK
6
CONTINUOUS
10
133.6902639999999849
20
-108.0426839999999942
11
133.4826840000000061
21
-108.2502640000000014
0
LINE
8
BLACK
6
CONTINUOUS
10
133.4826840000000061
20
-108.2502640000000014
11
133.3039749999999799
21
-108.483161999999993
0
LINE
8
BLACK
6
CONTINUOUS
10
133.3039749999999799
20
-108.483161999999993
11
133.1571940000000041
21
-108.7373939999999948
0
LINE
8
BLACK
6
CONTINUOUS
10
133.1571940000000041
20
-108.7373939999999948
11
133.0448529999999892
21
-109.0086099999999902
0
LINE
8
BLACK
6
CONTINUOUS
10
133.0448529999999892
20
-109.0086099999999902
11
132.9688739999999996
21
-109.2921690000000012
0
LINE
8
BLACK
6
CONTINUOUS
10
132.9688739999999996
20
-109.2921690000000012
11
132.9305559999999957
21
-109.5832189999999997
0
LINE
8
BLACK
6
CONTINUOUS
10
132.9305559999999957
20
-109.5832189999999997
11
132.9305559999999957
21
-109.876780999999994
0
LINE
8
BLACK
6
CONTINUOUS
10
67.019999999999996
20
-85.7650000000000006
11
66.6069710000000015
21
-85.7650000000000006
0
LINE
8
BLACK
6
CONTINUOUS
10
66.6069710000000015
20
-85.7650000000000006
11
66.5997579999999942
21
-85.7757950000000022
0
LINE
8
BLACK
6
CONTINUOUS
10
66.5997579999999942
20
-85.7757950000000022
11
66.5503300000000024
21
-85.8303299999999894
0
LINE
8
BLACK
6
CONTINUOUS
10
66.5503300000000024
20
-85.8303299999999894
11
65.8303300000000036
21
-86.5503300000000024
0
LINE
8
BLACK
6
CONTINUOUS
10
65.8303300000000036
20
-86.5503300000000024
11
65.7757950000000022
21
-86.5997579999999942
0
LINE
8
BLACK
6
CONTINUOUS
10
65.7757950000000022
20
-86.5997579999999942
11
65.6535480000000007
21
-86.6814409999999924
0
LINE
8
BLACK
6
CONTINUOUS
10
65.6535480000000007
20
-86.6814409999999924
11
65.621264999999994
21
-86.6948129999999964
0
LINE
8
BLACK
6
CONTINUOUS
10
65.621264999999994
20
-86.6948129999999964
11
65.5177130000000005
21
-86.7377060000000029
0
LINE
8
BLACK
6
CONTINUOUS
10
65.5177130000000005
20
-86.7377060000000029
11
65.3735130000000026
21
-86.7663889999999896
0
LINE
8
BLACK
6
CONTINUOUS
10
65.3735130000000026
20
-86.7663889999999896
11
65.2999999999999972
21
-86.769999999999996
0
LINE
8
BLACK
6
CONTINUOUS
10
65.2999999999999972
20
-86.769999999999996
11
62.4506599999999992
21
-86.769999999999996
0
LINE
8
BLACK
6
CONTINUOUS
10
62.4506599999999992
20
-86.769999999999996
11
62.3599999999999994
21
-86.8606599999999958
0
LINE
8
BLACK
6
CONTINUOUS
10
62.3599999999999994
20
-86.8606599999999958
11
62.3599999999999994
21
-105.1693399999999912
0
LINE
8
BLACK
6
CONTINUOUS
10
62.3599999999999994
20
-105.1693399999999912
11
64.6306599999999918
21
-107.4399999999999977
0
LINE
8
BLACK
6
CONTINUOUS
10
64.6306599999999918
20
-107.4399999999999977
11
99.1993399999999923
21
-107.4399999999999977
0
LINE
8
BLACK
6
CONTINUOUS
10
99.1993399999999923
20
-107.4399999999999977
11
101.539999999999992
21
-105.099339999999998
0
LINE
8
BLACK
6
CONTINUOUS
10
101.539999999999992
20
-105.099339999999998
11
101.539999999999992
21
-87.9706599999999952
0
LINE
8
BLACK
6
CONTINUOUS
10
101.539999999999992
20
-87.9706599999999952
11
100.119339999999994
21
-86.5499999999999972
0
LINE
8
BLACK
6
CONTINUOUS
10
100.119339999999994
20
-86.5499999999999972
11
94.2774599999999907
21
-86.5499999999999972
0
LINE
8
BLACK
6
CONTINUOUS
10
94.2774599999999907
20
-86.5499999999999972
11
94.2774599999999907
21
-86.6948129999999964
0
LINE
8
BLACK
6
CONTINUOUS
10
94.2774599999999907
20
-86.6948129999999964
11
91.7774599999999907
21
-86.6948129999999964
0
LINE
8
BLACK
6
CONTINUOUS
10
91.7774599999999907
20
-86.6948129999999964
11
91.7774599999999907
21
-84.6948129999999964
0
LINE
8
BLACK
6
CONTINUOUS
10
91.7774599999999907
20
-84.6948129999999964
11
94.2774599999999907
21
-84.6948129999999964
0
LINE
8
BLACK
6
CONTINUOUS
10
94.2774599999999907
20
-84.6948129999999964
11
94.2774599999999907
21
-85.0499999999999972
0
LINE
8
BLACK
6
CONTINUOUS
10
94.2774599999999907
20
-85.0499999999999972
11
100.4299999999999926
21
-85.0499999999999972
0
LINE
8
BLACK
6
CONTINUOUS
10
100.4299999999999926
20
-85.0499999999999972
11
100.5035129999999981
21
-85.0536109999999894
0
LINE
8
BLACK
6
CONTINUOUS
10
100.5035129999999981
20
-85.0536109999999894
11
100.647712999999996
21
-85.0822939999999903
0
LINE
8
BLACK
6
CONTINUOUS
10
100.647712999999996
20
-85.0822939999999903
11
100.7272829999999999
21
-85.1152529999999956
0
LINE
8
BLACK
6
CONTINUOUS
10
100.7272829999999999
20
-85.1152529999999956
11
100.7835479999999961
21
-85.1385590000000008
0
LINE
8
BLACK
6
CONTINUOUS
10
100.7835479999999961
20
-85.1385590000000008
11
100.9057949999999977
21
-85.2202419999999989
0
LINE
8
BLACK
6
CONTINUOUS
10
100.9057949999999977
20
-85.2202419999999989
11
100.960329999999999
21
-85.2696699999999908
0
LINE
8
BLACK
6
CONTINUOUS
10
100.960329999999999
20
-85.2696699999999908
11
102.8203299999999984
21
-87.1296699999999902
0
LINE
8
BLACK
6
CONTINUOUS
10
102.8203299999999984
20
-87.1296699999999902
11
102.8697579999999903
21
-87.1842049999999915
0
LINE
8
BLACK
6
CONTINUOUS
10
102.8697579999999903
20
-87.1842049999999915
11
102.9514409999999884
21
-87.3064519999999931
0
LINE
8
BLACK
6
CONTINUOUS
10
102.9514409999999884
20
-87.3064519999999931
11
103.0077050000000014
21
-87.4422859999999957
0
LINE
8
BLACK
6
CONTINUOUS
10
103.0077050000000014
20
-87.4422859999999957
11
103.0363889999999998
21
-87.5864869999999911
0
LINE
8
BLACK
6
CONTINUOUS
10
103.0363889999999998
20
-87.5864869999999911
11
103.039999999999992
21
-87.6599999999999966
0
LINE
8
BLACK
6
CONTINUOUS
10
103.039999999999992
20
-87.6599999999999966
11
103.039999999999992
21
-105.4099999999999966
0
LINE
8
BLACK
6
CONTINUOUS
10
103.039999999999992
20
-105.4099999999999966
11
103.0363889999999998
21
-105.4835130000000021
0
LINE
8
BLACK
6
CONTINUOUS
10
103.0363889999999998
20
-105.4835130000000021
11
103.0077059999999989
21
-105.627713
0
LINE
8
BLACK
6
CONTINUOUS
10
103.0077059999999989
20
-105.627713
11
102.9787109999999899
21
-105.6977129999999931
0
LINE
8
BLACK
6
CONTINUOUS
10
102.9787109999999899
20
-105.6977129999999931
11
102.9514409999999884
21
-105.7635480000000001
0
LINE
8
BLACK
6
CONTINUOUS
10
102.9514409999999884
20
-105.7635480000000001
11
102.9046689999999984
21
-105.8335469999999958
0
LINE
8
BLACK
6
CONTINUOUS
10
102.9046689999999984
20
-105.8335469999999958
11
102.8697579999999903
21
-105.8857950000000017
0
LINE
8
BLACK
6
CONTINUOUS
10
102.8697579999999903
20
-105.8857950000000017
11
102.8203299999999984
21
-105.9403299999999888
0
LINE
8
BLACK
6
CONTINUOUS
10
102.8203299999999984
20
-105.9403299999999888
11
100.0403299999999973
21
-108.7203299999999899
0
LINE
8
BLACK
6
CONTINUOUS
10
100.0403299999999973
20
-108.7203299999999899
11
99.985794999999996
21
-108.7697579999999959
0
LINE
8
BLACK
6
CONTINUOUS
10
99.985794999999996
20
-108.7697579999999959
11
99.8635479999999944
21
-108.8514409999999941
0
LINE
8
BLACK
6
CONTINUOUS
10
99.8635479999999944
20
-108.8514409999999941
11
99.8072829999999982
21
-108.8747460000000018
0
LINE
8
BLACK
6
CONTINUOUS
10
99.8072829999999982
20
-108.8747460000000018
11
99.7277129999999943
21
-108.9077059999999904
0
LINE
8
BLACK
6
CONTINUOUS
10
99.7277129999999943
20
-108.9077059999999904
11
99.5835129999999964
21
-108.9363889999999913
0
LINE
8
BLACK
6
CONTINUOUS
10
99.5835129999999964
20
-108.9363889999999913
11
99.5099999999999909
21
-108.9399999999999977
0
LINE
8
BLACK
6
CONTINUOUS
10
99.5099999999999909
20
-108.9399999999999977
11
64.3199999999999932
21
-108.9399999999999977
0
LINE
8
BLACK
6
CONTINUOUS
10
64.3199999999999932
20
-108.9399999999999977
11
64.2464870000000019
21
-108.9363889999999913
0
LINE
8
BLACK
6
CONTINUOUS
10
64.2464870000000019
20
-108.9363889999999913
11
64.102287000000004
21
-108.9077059999999904
0
LINE
8
BLACK
6
CONTINUOUS
10
64.102287000000004
20
-108.9077059999999904
11
64.0227170000000001
21
-108.8747460000000018
0
LINE
8
BLACK
6
CONTINUOUS
10
64.0227170000000001
20
-108.8747460000000018
11
63.9664519999999968
21
-108.8514409999999941
0
LINE
8
BLACK
6
CONTINUOUS
10
63.9664519999999968
20
-108.8514409999999941
11
63.8442049999999952
21
-108.7697579999999959
0
LINE
8
BLACK
6
CONTINUOUS
10
63.8442049999999952
20
-108.7697579999999959
11
63.7896699999999939
21
-108.7203299999999899
0
LINE
8
BLACK
6
CONTINUOUS
10
63.7896699999999939
20
-108.7203299999999899
11
61.0796700000000001
21
-106.0103299999999962
0
LINE
8
BLACK
6
CONTINUOUS
10
61.0796700000000001
20
-106.0103299999999962
11
61.0302419999999941
21
-105.9557949999999948
0
LINE
8
BLACK
6
CONTINUOUS
10
61.0302419999999941
20
-105.9557949999999948
11
61.0199089999999984
21
-105.9403299999999888
0
LINE
8
BLACK
6
CONTINUOUS
10
61.0199089999999984
20
-105.9403299999999888
11
60.9485589999999959
21
-105.8335479999999933
0
LINE
8
BLACK
6
CONTINUOUS
10
60.9485589999999959
20
-105.8335479999999933
11
60.9195639999999941
21
-105.7635469999999884
0
LINE
8
BLACK
6
CONTINUOUS
10
60.9195639999999941
20
-105.7635469999999884
11
60.8922939999999997
21
-105.6977129999999931
0
LINE
8
BLACK
6
CONTINUOUS
10
60.8922939999999997
20
-105.6977129999999931
11
60.8636109999999988
21
-105.5535129999999953
0
LINE
8
BLACK
6
CONTINUOUS
10
60.8636109999999988
20
-105.5535129999999953
11
60.8599999999999994
21
-105.4799999999999898
0
LINE
8
BLACK
6
CONTINUOUS
10
60.8599999999999994
20
-105.4799999999999898
11
60.8599999999999994
21
-86.5499999999999972
0
LINE
8
BLACK
6
CONTINUOUS
10
60.8599999999999994
20
-86.5499999999999972
11
60.8636109999999988
21
-86.4764869999999917
0
LINE
8
BLACK
6
CONTINUOUS
10
60.8636109999999988
20
-86.4764869999999917
11
60.8704739999999944
21
-86.4419829999999934
0
LINE
8
BLACK
6
CONTINUOUS
10
60.8704739999999944
20
-86.4419829999999934
11
60.8922939999999997
21
-86.3322869999999938
0
LINE
8
BLACK
6
CONTINUOUS
10
60.8922939999999997
20
-86.3322869999999938
11
60.9414519999999982
21
-86.2136110000000002
0
LINE
8
BLACK
6
CONTINUOUS
10
60.9414519999999982
20
-86.2136110000000002
11
60.9485589999999959
21
-86.1964519999999936
0
LINE
8
BLACK
6
CONTINUOUS
10
60.9485589999999959
20
-86.1964519999999936
11
61.0302419999999941
21
-86.0742049999999921
0
LINE
8
BLACK
6
CONTINUOUS
10
61.0302419999999941
20
-86.0742049999999921
11
61.0796700000000001
21
-86.0196699999999908
0
LINE
8
BLACK
6
CONTINUOUS
10
61.0796700000000001
20
-86.0196699999999908
11
61.6096699999999942
21
-85.4896699999999896
0
LINE
8
BLACK
6
CONTINUOUS
10
61.6096699999999942
20
-85.4896699999999896
11
61.6642049999999955
21
-85.4402419999999978
0
LINE
8
BLACK
6
CONTINUOUS
10
61.6642049999999955
20
-85.4402419999999978
11
61.7065169999999981
21
-85.4119699999999966
0
LINE
8
BLACK
6
CONTINUOUS
10
61.7065169999999981
20
-85.4119699999999966
11
61.786451999999997
21
-85.3585589999999996
0
LINE
8
BLACK
6
CONTINUOUS
10
61.786451999999997
20
-85.3585589999999996
11
61.9222859999999997
21
-85.3022950000000009
0
LINE
8
BLACK
6
CONTINUOUS
10
61.9222859999999997
20
-85.3022950000000009
11
62.0664869999999951
21
-85.2736110000000025
0
LINE
8
BLACK
6
CONTINUOUS
10
62.0664869999999951
20
-85.2736110000000025
11
62.1400000000000006
21
-85.269999999999996
0
LINE
8
BLACK
6
CONTINUOUS
10
62.1400000000000006
20
-85.269999999999996
11
64.9893399999999986
21
-85.269999999999996
0
LINE
8
BLACK
6
CONTINUOUS
10
64.9893399999999986
20
-85.269999999999996
11
65.019999999999996
21
-85.2393399999999986
0
LINE
8
BLACK
6
CONTINUOUS
10
65.019999999999996
20
-85.2393399999999986
11
65.019999999999996
21
-83.2650000000000006
0
LINE
8
BLACK
6
CONTINUOUS
10
65.019999999999996
20
-83.2650000000000006
11
67.019999999999996
21
-83.2650000000000006
0
LINE
8
BLACK
6
CONTINUOUS
10
67.019999999999996
20
-83.2650000000000006
11
67.019999999999996
21
-85.7650000000000006
0
LINE
8
BLACK
6
CONTINUOUS
10
94.2774599999999907
20
-87.4848130000000026
11
96.8148130000000009
21
-87.4848130000000026
0
LINE
8
BLACK
6
CONTINUOUS
10
96.8148130000000009
20
-87.4848130000000026
11
96.8883259999999922
21
-87.4884239999999949
0
LINE
8
BLACK
6
CONTINUOUS
10
96.8883259999999922
20
-87.4884239999999949
11
97.0325259999999901
21
-87.5171069999999958
0
LINE
8
BLACK
6
CONTINUOUS
10
97.0325259999999901
20
-87.5171069999999958
11
97.112095999999994
21
-87.5500660000000011
0
LINE
8
BLACK
6
CONTINUOUS
10
97.112095999999994
20
-87.5500660000000011
11
97.1683609999999902
21
-87.573371999999992
0
LINE
8
BLACK
6
CONTINUOUS
10
97.1683609999999902
20
-87.573371999999992
11
97.2403010000000023
21
-87.6214409999999901
0
LINE
8
BLACK
6
CONTINUOUS
10
97.2403010000000023
20
-87.6214409999999901
11
97.2906079999999918
21
-87.6550549999999902
0
LINE
8
BLACK
6
CONTINUOUS
10
97.2906079999999918
20
-87.6550549999999902
11
97.3451429999999931
21
-87.7044829999999962
0
LINE
8
BLACK
6
CONTINUOUS
10
97.3451429999999931
20
-87.7044829999999962
11
98.6803299999999979
21
-89.039670000000001
0
LINE
8
BLACK
6
CONTINUOUS
10
98.6803299999999979
20
-89.039670000000001
11
98.7297590000000014
21
-89.0942050000000023
0
LINE
8
BLACK
6
CONTINUOUS
10
98.7297590000000014
20
-89.0942050000000023
11
98.7568449999999984
21
-89.1347430000000003
0
LINE
8
BLACK
6
CONTINUOUS
10
98.7568449999999984
20
-89.1347430000000003
11
98.8114410000000021
21
-89.2164519999999897
0
LINE
8
BLACK
6
CONTINUOUS
10
98.8114410000000021
20
-89.2164519999999897
11
98.8114410000000021
21
-89.2164530000000013
0
LINE
8
BLACK
6
CONTINUOUS
10
98.8114410000000021
20
-89.2164530000000013
11
98.8677059999999983
21
-89.3522869999999898
0
LINE
8
BLACK
6
CONTINUOUS
10
98.8677059999999983
20
-89.3522869999999898
11
98.8963889999999992
21
-89.4964870000000019
0
LINE
8
BLACK
6
CONTINUOUS
10
98.8963889999999992
20
-89.4964870000000019
11
98.8999999999999915
21
-89.5699999999999932
0
LINE
8
BLACK
6
CONTINUOUS
10
98.8999999999999915
20
-89.5699999999999932
11
98.8999999999999915
21
-102.6099999999999994
0
LINE
8
BLACK
6
CONTINUOUS
10
98.8999999999999915
20
-102.6099999999999994
11
98.8963889999999992
21
-102.6835129999999907
0
LINE
8
BLACK
6
CONTINUOUS
10
98.8963889999999992
20
-102.6835129999999907
11
98.8677059999999983
21
-102.8277129999999886
0
LINE
8
BLACK
6
CONTINUOUS
10
98.8677059999999983
20
-102.8277129999999886
11
98.8418049999999937
21
-102.8902420000000006
0
LINE
8
BLACK
6
CONTINUOUS
10
98.8418049999999937
20
-102.8902420000000006
11
98.8114410000000021
21
-102.9635479999999887
0
LINE
8
BLACK
6
CONTINUOUS
10
98.8114410000000021
20
-102.9635479999999887
11
98.7297579999999897
21
-103.0857949999999903
0
LINE
8
BLACK
6
CONTINUOUS
10
98.7297579999999897
20
-103.0857949999999903
11
98.6803299999999979
21
-103.1403299999999916
0
LINE
8
BLACK
6
CONTINUOUS
10
98.6803299999999979
20
-103.1403299999999916
11
96.8303299999999894
21
-104.9903300000000002
0
LINE
8
BLACK
6
CONTINUOUS
10
96.8303299999999894
20
-104.9903300000000002
11
96.7757950000000022
21
-105.039757999999992
0
LINE
8
BLACK
6
CONTINUOUS
10
96.7757950000000022
20
-105.039757999999992
11
96.6535480000000007
21
-105.1214409999999901
0
LINE
8
BLACK
6
CONTINUOUS
10
96.6535480000000007
20
-105.1214409999999901
11
96.5972829999999902
21
-105.1447459999999978
0
LINE
8
BLACK
6
CONTINUOUS
10
96.5972829999999902
20
-105.1447459999999978
11
96.5177130000000005
21
-105.1777060000000006
0
LINE
8
BLACK
6
CONTINUOUS
10
96.5177130000000005
20
-105.1777060000000006
11
96.3735130000000026
21
-105.2063890000000015
0
LINE
8
BLACK
6
CONTINUOUS
10
96.3735130000000026
20
-105.2063890000000015
11
96.2999999999999972
21
-105.2099999999999937
0
LINE
8
BLACK
6
CONTINUOUS
10
96.2999999999999972
20
-105.2099999999999937
11
67.0099999999999909
21
-105.2099999999999937
0
LINE
8
BLACK
6
CONTINUOUS
10
67.0099999999999909
20
-105.2099999999999937
11
66.9364869999999996
21
-105.2063890000000015
0
LINE
8
BLACK
6
CONTINUOUS
10
66.9364869999999996
20
-105.2063890000000015
11
66.7922859999999901
21
-105.1777049999999889
0
LINE
8
BLACK
6
CONTINUOUS
10
66.7922859999999901
20
-105.1777049999999889
11
66.6564520000000016
21
-105.1214409999999901
0
LINE
8
BLACK
6
CONTINUOUS
10
66.6564520000000016
20
-105.1214409999999901
11
66.534205
21
-105.039757999999992
0
LINE
8
BLACK
6
CONTINUOUS
10
66.534205
20
-105.039757999999992
11
66.4796699999999987
21
-104.9903300000000002
0
LINE
8
BLACK
6
CONTINUOUS
10
66.4796699999999987
20
-104.9903300000000002
11
65.4896700000000038
21
-104.0003299999999911
0
LINE
8
BLACK
6
CONTINUOUS
10
65.4896700000000038
20
-104.0003299999999911
11
65.4402419999999978
21
-103.9457949999999897
0
LINE
8
BLACK
6
CONTINUOUS
10
65.4402419999999978
20
-103.9457949999999897
11
65.3964409999999958
21
-103.8802419999999955
0
LINE
8
BLACK
6
CONTINUOUS
10
65.3964409999999958
20
-103.8802419999999955
11
65.3585589999999996
21
-103.8235480000000024
0
LINE
8
BLACK
6
CONTINUOUS
10
65.3585589999999996
20
-103.8235480000000024
11
65.3249029999999919
21
-103.7422949999999986
0
LINE
8
BLACK
6
CONTINUOUS
10
65.3249029999999919
20
-103.7422949999999986
11
65.3022940000000034
21
-103.6877130000000022
0
LINE
8
BLACK
6
CONTINUOUS
10
65.3022940000000034
20
-103.6877130000000022
11
65.2736110000000025
21
-103.5435129999999901
0
LINE
8
BLACK
6
CONTINUOUS
10
65.2736110000000025
20
-103.5435129999999901
11
65.269999999999996
21
-103.4699999999999989
0
LINE
8
BLACK
6
CONTINUOUS
10
65.269999999999996
20
-103.4699999999999989
11
65.269999999999996
21
-93.3299999999999983
0
LINE
8
BLACK
6
CONTINUOUS
10
65.269999999999996
20
-93.3299999999999983
11
65.019999999999996
21
-93.3299999999999983
0
LINE
8
BLACK
6
CONTINUOUS
10
65.019999999999996
20
-93.3299999999999983
11
65.019999999999996
21
-90.8299999999999983
0
LINE
8
BLACK
6
CONTINUOUS
10
65.019999999999996
20
-90.8299999999999983
11
67.019999999999996
21
-90.8299999999999983
0
LINE
8
BLACK
6
CONTINUOUS
10
67.019999999999996
20
-90.8299999999999983
11
67.019999999999996
21
-93.3299999999999983
0
LINE
8
BLACK
6
CONTINUOUS
10
67.019999999999996
20
-93.3299999999999983
11
66.769999999999996
21
-93.3299999999999983
0
LINE
8
BLACK
6
CONTINUOUS
10
66.769999999999996
20
-93.3299999999999983
11
66.769999999999996
21
-103.1593400000000003
0
LINE
8
BLACK
6
CONTINUOUS
10
66.769999999999996
20
-103.1593400000000003
11
67.3206600000000037
21
-103.7099999999999937
0
LINE
8
BLACK
6
CONTINUOUS
10
67.3206600000000037
20
-103.7099999999999937
11
95.9893399999999986
21
-103.7099999999999937
0
LINE
8
BLACK
6
CONTINUOUS
10
95.9893399999999986
20
-103.7099999999999937
11
97.3999999999999915
21
-102.2993400000000008
0
LINE
8
BLACK
6
CONTINUOUS
10
97.3999999999999915
20
-102.2993400000000008
11
97.3999999999999915
21
-89.8806599999999918
0
LINE
8
BLACK
6
CONTINUOUS
10
97.3999999999999915
20
-89.8806599999999918
11
96.5041530000000023
21
-88.9848130000000026
0
LINE
8
BLACK
6
CONTINUOUS
10
96.5041530000000023
20
-88.9848130000000026
11
94.2774599999999907
21
-88.9848130000000026
0
LINE
8
BLACK
6
CONTINUOUS
10
94.2774599999999907
20
-88.9848130000000026
11
94.2774599999999907
21
-89.2348130000000026
0
LINE
8
BLACK
6
CONTINUOUS
10
94.2774599999999907
20
-89.2348130000000026
11
91.7774599999999907
21
-89.2348130000000026
0
LINE
8
BLACK
6
CONTINUOUS
10
91.7774599999999907
20
-89.2348130000000026
11
91.7774599999999907
21
-87.2348130000000026
0
LINE
8
BLACK
6
CONTINUOUS
10
91.7774599999999907
20
-87.2348130000000026
11
94.2774599999999907
21
-87.2348130000000026
0
LINE
8
BLACK
6
CONTINUOUS
10
94.2774599999999907
20
-87.2348130000000026
11
94.2774599999999907
21
-87.4848130000000026
0
LINE
8
BLACK
6
CONTINUOUS
10
69.5600000000000023
20
-93.2000000000000028
11
69.5600000000000023
21
-95.2557860000000005
0
LINE
8
BLACK
6
CONTINUOUS
10
69.5600000000000023
20
-95.2557860000000005
11
70.4942139999999995
21
-96.1899999999999977
0
LINE
8
BLACK
6
CONTINUOUS
10
70.4942139999999995
20
-96.1899999999999977
11
91.3657859999999999
21
-96.1899999999999977
0
LINE
8
BLACK
6
CONTINUOUS
10
91.3657859999999999
20
-96.1899999999999977
11
91.9399999999999977
21
-95.6157859999999999
0
LINE
8
BLACK
6
CONTINUOUS
10
91.9399999999999977
20
-95.6157859999999999
11
91.9399999999999977
21
-94.3148130000000009
0
LINE
8
BLACK
6
CONTINUOUS
10
91.9399999999999977
20
-94.3148130000000009
11
91.7774599999999907
21
-94.3148130000000009
0
LINE
8
BLACK
6
CONTINUOUS
10
91.7774599999999907
20
-94.3148130000000009
11
91.7774599999999907
21
-92.3148130000000009
0
LINE
8
BLACK
6
CONTINUOUS
10
91.7774599999999907
20
-92.3148130000000009
11
94.2774599999999907
21
-92.3148130000000009
0
LINE
8
BLACK
6
CONTINUOUS
10
94.2774599999999907
20
-92.3148130000000009
11
94.2774599999999907
21
-94.3148130000000009
0
LINE
8
BLACK
6
CONTINUOUS
10
94.2774599999999907
20
-94.3148130000000009
11
93.9399999999999977
21
-94.3148130000000009
0
LINE
8
BLACK
6
CONTINUOUS
10
93.9399999999999977
20
-94.3148130000000009
11
93.9399999999999977
21
-96.0300000000000011
0
LINE
8
BLACK
6
CONTINUOUS
10
93.9399999999999977
20
-96.0300000000000011
11
93.9351849999999899
21
-96.1280169999999998
0
LINE
8
BLACK
6
CONTINUOUS
10
93.9351849999999899
20
-96.1280169999999998
11
93.9142899999999941
21
-96.2330599999999947
0
LINE
8
BLACK
6
CONTINUOUS
10
93.9142899999999941
20
-96.2330599999999947
11
93.8969409999999982
21
-96.3202840000000009
0
LINE
8
BLACK
6
CONTINUOUS
10
93.8969409999999982
20
-96.3202840000000009
11
93.8734039999999936
21
-96.3771069999999952
0
LINE
8
BLACK
6
CONTINUOUS
10
93.8734039999999936
20
-96.3771069999999952
11
93.821920999999989
21
-96.5013969999999972
0
LINE
8
BLACK
6
CONTINUOUS
10
93.821920999999989
20
-96.5013969999999972
11
93.7856989999999939
21
-96.5556069999999949
0
LINE
8
BLACK
6
CONTINUOUS
10
93.7856989999999939
20
-96.5556069999999949
11
93.7130109999999945
21
-96.6643929999999898
0
LINE
8
BLACK
6
CONTINUOUS
10
93.7130109999999945
20
-96.6643929999999898
11
93.6471069999999912
21
-96.7371069999999946
0
LINE
8
BLACK
6
CONTINUOUS
10
93.6471069999999912
20
-96.7371069999999946
11
92.4871069999999946
21
-97.8971069999999912
0
LINE
8
BLACK
6
CONTINUOUS
10
92.4871069999999946
20
-97.8971069999999912
11
92.4143940000000015
21
-97.9630109999999945
0
LINE
8
BLACK
6
CONTINUOUS
10
92.4143940000000015
20
-97.9630109999999945
11
92.2980119999999999
21
-98.0407730000000015
0
LINE
8
BLACK
6
CONTINUOUS
10
92.2980119999999999
20
-98.0407730000000015
11
92.2513969999999972
21
-98.071920999999989
0
LINE
8
BLACK
6
CONTINUOUS
10
92.2513969999999972
20
-98.071920999999989
11
92.0702849999999984
21
-98.1469400000000007
0
LINE
8
BLACK
6
CONTINUOUS
10
92.0702849999999984
20
-98.1469400000000007
11
91.8780169999999998
21
-98.1851849999999899
0
LINE
8
BLACK
6
CONTINUOUS
10
91.8780169999999998
20
-98.1851849999999899
11
91.7800000000000011
21
-98.1899999999999977
0
LINE
8
BLACK
6
CONTINUOUS
10
91.7800000000000011
20
-98.1899999999999977
11
70.0799999999999983
21
-98.1899999999999977
0
LINE
8
BLACK
6
CONTINUOUS
10
70.0799999999999983
20
-98.1899999999999977
11
69.9819829999999996
21
-98.1851849999999899
0
LINE
8
BLACK
6
CONTINUOUS
10
69.9819829999999996
20
-98.1851849999999899
11
69.8752319999999969
21
-98.1639499999999998
0
LINE
8
BLACK
6
CONTINUOUS
10
69.8752319999999969
20
-98.1639499999999998
11
69.7897159999999985
21
-98.1469409999999982
0
LINE
8
BLACK
6
CONTINUOUS
10
69.7897159999999985
20
-98.1469409999999982
11
69.6086039999999997
21
-98.0719220000000007
0
LINE
8
BLACK
6
CONTINUOUS
10
69.6086039999999997
20
-98.0719220000000007
11
69.4456069999999954
21
-97.9630109999999945
0
LINE
8
BLACK
6
CONTINUOUS
10
69.4456069999999954
20
-97.9630109999999945
11
69.3728929999999906
21
-97.8971069999999912
0
LINE
8
BLACK
6
CONTINUOUS
10
69.3728929999999906
20
-97.8971069999999912
11
67.8528929999999946
21
-96.3771069999999952
0
LINE
8
BLACK
6
CONTINUOUS
10
67.8528929999999946
20
-96.3771069999999952
11
67.7869889999999913
21
-96.3043940000000021
0
LINE
8
BLACK
6
CONTINUOUS
10
67.7869889999999913
20
-96.3043940000000021
11
67.709226000000001
21
-96.1880120000000005
0
LINE
8
BLACK
6
CONTINUOUS
10
67.709226000000001
20
-96.1880120000000005
11
67.6780789999999968
21
-96.1413969999999978
0
LINE
8
BLACK
6
CONTINUOUS
10
67.6780789999999968
20
-96.1413969999999978
11
67.6030599999999993
21
-95.9602849999999989
0
LINE
8
BLACK
6
CONTINUOUS
10
67.6030599999999993
20
-95.9602849999999989
11
67.5648149999999958
21
-95.7680170000000004
0
LINE
8
BLACK
6
CONTINUOUS
10
67.5648149999999958
20
-95.7680170000000004
11
67.5600000000000023
21
-95.6700000000000017
0
LINE
8
BLACK
6
CONTINUOUS
10
67.5600000000000023
20
-95.6700000000000017
11
67.5600000000000023
21
-93.3299999999999983
0
LINE
8
BLACK
6
CONTINUOUS
10
67.5600000000000023
20
-93.3299999999999983
11
67.5600000000000023
21
-90.8299999999999983
0
LINE
8
BLACK
6
CONTINUOUS
10
67.5600000000000023
20
-90.8299999999999983
11
69.5600000000000023
21
-90.8299999999999983
0
LINE
8
BLACK
6
CONTINUOUS
10
69.5600000000000023
20
-90.8299999999999983
11
69.5600000000000023
21
-93.2000000000000028
0
LINE
8
BLACK
6
CONTINUOUS
10
137.0499999999999829
20
-90.0799999999999983
11
136.2142139999999984
21
-90.0799999999999983
0
LINE
8
BLACK
6
CONTINUOUS
10
136.2142139999999984
20
-90.0799999999999983
11
132.272293999999988
21
-94.0219199999999944
0
LINE
8
BLACK
6
CONTINUOUS
10
132.272293999999988
20
-94.0219199999999944
11
132.1995809999999949
21
-94.0878239999999977
0
LINE
8
BLACK
6
CONTINUOUS
10
132.1995809999999949
20
-94.0878239999999977
11
132.0831990000000076
21
-94.1655859999999905
0
LINE
8
BLACK
6
CONTINUOUS
10
132.0831990000000076
20
-94.1655859999999905
11
132.0365840000000048
21
-94.1967339999999922
0
LINE
8
BLACK
6
CONTINUOUS
10
132.0365840000000048
20
-94.1967339999999922
11
131.8554719999999918
21
-94.2717529999999897
0
LINE
8
BLACK
6
CONTINUOUS
10
131.8554719999999918
20
-94.2717529999999897
11
131.6632040000000075
21
-94.3099979999999931
0
LINE
8
BLACK
6
CONTINUOUS
10
131.6632040000000075
20
-94.3099979999999931
11
131.5651869999999803
21
-94.3148130000000009
0
LINE
8
BLACK
6
CONTINUOUS
10
131.5651869999999803
20
-94.3148130000000009
11
118.8416739999999976
21
-94.3148130000000009
0
LINE
8
BLACK
6
CONTINUOUS
10
118.8416739999999976
20
-94.3148130000000009
11
118.3693799999999925
21
-94.7871069999999918
0
LINE
8
BLACK
6
CONTINUOUS
10
118.3693799999999925
20
-94.7871069999999918
11
118.2966669999999993
21
-94.8530109999999951
0
LINE
8
BLACK
6
CONTINUOUS
10
118.2966669999999993
20
-94.8530109999999951
11
118.1802849999999978
21
-94.9307730000000021
0
LINE
8
BLACK
6
CONTINUOUS
10
118.1802849999999978
20
-94.9307730000000021
11
118.1336699999999951
21
-94.9619209999999896
0
LINE
8
BLACK
6
CONTINUOUS
10
118.1336699999999951
20
-94.9619209999999896
11
117.9525579999999962
21
-95.0369400000000013
0
LINE
8
BLACK
6
CONTINUOUS
10
117.9525579999999962
20
-95.0369400000000013
11
117.7602899999999977
21
-95.0751849999999905
0
LINE
8
BLACK
6
CONTINUOUS
10
117.7602899999999977
20
-95.0751849999999905
11
117.662272999999999
21
-95.0799999999999983
0
LINE
8
BLACK
6
CONTINUOUS
10
117.662272999999999
20
-95.0799999999999983
11
114.3999999999999915
21
-95.0799999999999983
0
LINE
8
BLACK
6
CONTINUOUS
10
114.3999999999999915
20
-95.0799999999999983
11
114.3019829999999928
21
-95.0751849999999905
0
LINE
8
BLACK
6
CONTINUOUS
10
114.3019829999999928
20
-95.0751849999999905
11
114.1097149999999942
21
-95.0369400000000013
0
LINE
8
BLACK
6
CONTINUOUS
10
114.1097149999999942
20
-95.0369400000000013
11
113.9286029999999954
21
-94.9619209999999896
0
LINE
8
BLACK
6
CONTINUOUS
10
113.9286029999999954
20
-94.9619209999999896
11
113.8314259999999933
21
-94.8969889999999907
0
LINE
8
BLACK
6
CONTINUOUS
10
113.8314259999999933
20
-94.8969889999999907
11
113.7656059999999911
21
-94.8530099999999976
0
LINE
8
BLACK
6
CONTINUOUS
10
113.7656059999999911
20
-94.8530099999999976
11
113.692892999999998
21
-94.7871069999999918
0
LINE
8
BLACK
6
CONTINUOUS
10
113.692892999999998
20
-94.7871069999999918
11
112.7928929999999923
21
-93.8871070000000003
0
LINE
8
BLACK
6
CONTINUOUS
10
112.7928929999999923
20
-93.8871070000000003
11
112.726988999999989
21
-93.814393999999993
0
LINE
8
BLACK
6
CONTINUOUS
10
112.726988999999989
20
-93.814393999999993
11
112.6492259999999987
21
-93.6980119999999914
0
LINE
8
BLACK
6
CONTINUOUS
10
112.6492259999999987
20
-93.6980119999999914
11
112.6180789999999945
21
-93.6513969999999887
0
LINE
8
BLACK
6
CONTINUOUS
10
112.6180789999999945
20
-93.6513969999999887
11
112.543059999999997
21
-93.4702849999999899
0
LINE
8
BLACK
6
CONTINUOUS
10
112.543059999999997
20
-93.4702849999999899
11
112.5048149999999936
21
-93.2780169999999913
0
LINE
8
BLACK
6
CONTINUOUS
10
112.5048149999999936
20
-93.2780169999999913
11
112.5
21
-93.1799999999999926
0
LINE
8
BLACK
6
CONTINUOUS
10
112.5
20
-93.1799999999999926
11
112.5
21
-93.039999999999992
0
LINE
8
BLACK
6
CONTINUOUS
10
112.5
20
-93.039999999999992
11
112.25
21
-93.039999999999992
0
LINE
8
BLACK
6
CONTINUOUS
10
112.25
20
-93.039999999999992
11
112.25
21
-91.039999999999992
0
LINE
8
BLACK
6
CONTINUOUS
10
112.25
20
-91.039999999999992
11
114.75
21
-91.039999999999992
0
LINE
8
BLACK
6
CONTINUOUS
10
114.75
20
-91.039999999999992
11
114.75
21
-93.0157859999999914
0
LINE
8
BLACK
6
CONTINUOUS
10
114.75
20
-93.0157859999999914
11
114.8142139999999927
21
-93.0799999999999983
0
LINE
8
BLACK
6
CONTINUOUS
10
114.8142139999999927
20
-93.0799999999999983
11
117.1774599999999964
21
-93.0799999999999983
0
LINE
8
BLACK
6
CONTINUOUS
10
117.1774599999999964
20
-93.0799999999999983
11
117.1774599999999964
21
-92.3148130000000009
0
LINE
8
BLACK
6
CONTINUOUS
10
117.1774599999999964
20
-92.3148130000000009
11
119.6774599999999964
21
-92.3148130000000009
0
LINE
8
BLACK
6
CONTINUOUS
10
119.6774599999999964
20
-92.3148130000000009
11
131.1509729999999934
21
-92.3148130000000009
0
LINE
8
BLACK
6
CONTINUOUS
10
131.1509729999999934
20
-92.3148130000000009
11
134.5499999999999829
21
-88.9157859999999971
0
LINE
8
BLACK
6
CONTINUOUS
10
134.5499999999999829
20
-88.9157859999999971
11
134.5499999999999829
21
-88.0799999999999983
0
LINE
8
BLACK
6
CONTINUOUS
10
134.5499999999999829
20
-88.0799999999999983
11
137.0499999999999829
21
-88.0799999999999983
0
LINE
8
BLACK
6
CONTINUOUS
10
137.0499999999999829
20
-88.0799999999999983
11
137.0499999999999829
21
-90.0799999999999983
0
LINE
8
BLACK
6
CONTINUOUS
10
72.0999999999999943
20
-69.3750979999999942
11
72.1351849999999928
21
-69.5519829999999928
0
LINE
8
BLACK
6
CONTINUOUS
10
72.1351849999999928
20
-69.5519829999999928
11
72.1400000000000006
21
-69.6499999999999915
0
LINE
8
BLACK
6
CONTINUOUS
10
72.1400000000000006
20
-69.6499999999999915
11
72.1400000000000006
21
-81.3299999999999983
0
LINE
8
BLACK
6
CONTINUOUS
10
72.1400000000000006
20
-81.3299999999999983
11
72.1351849999999928
21
-81.428016999999997
0
LINE
8
BLACK
6
CONTINUOUS
10
72.1351849999999928
20
-81.428016999999997
11
72.0999999999999943
21
-81.6049009999999981
0
LINE
8
BLACK
6
CONTINUOUS
10
72.0999999999999943
20
-81.6049009999999981
11
72.0999999999999943
21
-89.8240449999999981
0
LINE
8
BLACK
6
CONTINUOUS
10
72.0999999999999943
20
-89.8240449999999981
11
72.1149020000000007
21
-89.8178729999999916
0
LINE
8
BLACK
6
CONTINUOUS
10
72.1149020000000007
20
-89.8178729999999916
11
72.3071699999999993
21
-89.7796280000000024
0
LINE
8
BLACK
6
CONTINUOUS
10
72.3071699999999993
20
-89.7796280000000024
11
72.405186999999998
21
-89.7748129999999946
0
LINE
8
BLACK
6
CONTINUOUS
10
72.405186999999998
20
-89.7748129999999946
11
93.0274599999999907
21
-89.7748129999999946
0
LINE
8
BLACK
6
CONTINUOUS
10
93.0274599999999907
20
-89.7748129999999946
11
94.2774599999999907
21
-89.7748129999999946
0
LINE
8
BLACK
6
CONTINUOUS
10
94.2774599999999907
20
-89.7748129999999946
11
94.2774599999999907
21
-91.7748129999999946
0
LINE
8
BLACK
6
CONTINUOUS
10
94.2774599999999907
20
-91.7748129999999946
11
91.7774599999999907
21
-91.7748129999999946
0
LINE
8
BLACK
6
CONTINUOUS
10
91.7774599999999907
20
-91.7748129999999946
11
72.8194009999999992
21
-91.7748129999999946
0
LINE
8
BLACK
6
CONTINUOUS
10
72.8194009999999992
20
-91.7748129999999946
11
72.0999999999999943
21
-92.4942139999999995
0
LINE
8
BLACK
6
CONTINUOUS
10
72.0999999999999943
20
-92.4942139999999995
11
72.0999999999999943
21
-93.3299999999999983
0
LINE
8
BLACK
6
CONTINUOUS
10
72.0999999999999943
20
-93.3299999999999983
11
70.0999999999999943
21
-93.3299999999999983
0
LINE
8
BLACK
6
CONTINUOUS
10
70.0999999999999943
20
-93.3299999999999983
11
70.0999999999999943
21
-90.8299999999999983
0
LINE
8
BLACK
6
CONTINUOUS
10
70.0999999999999943
20
-90.8299999999999983
11
70.0999999999999943
21
-80.3999999999999915
0
LINE
8
BLACK
6
CONTINUOUS
10
70.0999999999999943
20
-80.3999999999999915
11
70.1048150000000021
21
-80.3019829999999928
0
LINE
8
BLACK
6
CONTINUOUS
10
70.1048150000000021
20
-80.3019829999999928
11
70.1400000000000006
21
-80.1250979999999942
0
LINE
8
BLACK
6
CONTINUOUS
10
70.1400000000000006
20
-80.1250979999999942
11
70.1400000000000006
21
-78.4099999999999966
0
LINE
8
BLACK
6
CONTINUOUS
10
70.1400000000000006
20
-78.4099999999999966
11
70.0999999999999943
21
-78.4099999999999966
0
LINE
8
BLACK
6
CONTINUOUS
10
70.0999999999999943
20
-78.4099999999999966
11
70.0999999999999943
21
-75.9099999999999966
0
LINE
8
BLACK
6
CONTINUOUS
10
70.0999999999999943
20
-75.9099999999999966
11
70.1400000000000006
21
-75.9099999999999966
0
LINE
8
BLACK
6
CONTINUOUS
10
70.1400000000000006
20
-75.9099999999999966
11
70.1400000000000006
21
-70.75
0
LINE
8
BLACK
6
CONTINUOUS
10
70.1400000000000006
20
-70.75
11
70.0999999999999943
21
-70.75
0
LINE
8
BLACK
6
CONTINUOUS
10
70.0999999999999943
20
-70.75
11
70.0999999999999943
21
-68.25
0
LINE
8
BLACK
6
CONTINUOUS
10
70.0999999999999943
20
-68.25
11
72.0999999999999943
21
-68.25
0
LINE
8
BLACK
6
CONTINUOUS
10
72.0999999999999943
20
-68.25
11
72.0999999999999943
21
-69.3750979999999942
0
LINE
8
BLACK
6
CONTINUOUS
10
135.7999999999999829
20
-85.539999999999992
11
137.0499999999999829
21
-85.539999999999992
0
LINE
8
BLACK
6
CONTINUOUS
10
137.0499999999999829
20
-85.539999999999992
11
137.0499999999999829
21
-87.539999999999992
0
LINE
8
BLACK
6
CONTINUOUS
10
137.0499999999999829
20
-87.539999999999992
11
134.5499999999999829
21
-87.539999999999992
0
LINE
8
BLACK
6
CONTINUOUS
10
134.5499999999999829
20
-87.539999999999992
11
124.4642139999999984
21
-87.539999999999992
0
LINE
8
BLACK
6
CONTINUOUS
10
124.4642139999999984
20
-87.539999999999992
11
120.522293999999988
21
-91.4819200000000023
0
LINE
8
BLACK
6
CONTINUOUS
10
120.522293999999988
20
-91.4819200000000023
11
120.4495809999999949
21
-91.5478239999999914
0
LINE
8
BLACK
6
CONTINUOUS
10
120.4495809999999949
20
-91.5478239999999914
11
120.3331989999999934
21
-91.6255859999999984
0
LINE
8
BLACK
6
CONTINUOUS
10
120.3331989999999934
20
-91.6255859999999984
11
120.2865839999999906
21
-91.6567340000000002
0
LINE
8
BLACK
6
CONTINUOUS
10
120.2865839999999906
20
-91.6567340000000002
11
120.1054719999999918
21
-91.7317529999999977
0
LINE
8
BLACK
6
CONTINUOUS
10
120.1054719999999918
20
-91.7317529999999977
11
119.9132039999999932
21
-91.7699980000000011
0
LINE
8
BLACK
6
CONTINUOUS
10
119.9132039999999932
20
-91.7699980000000011
11
119.8151869999999946
21
-91.7748129999999946
0
LINE
8
BLACK
6
CONTINUOUS
10
119.8151869999999946
20
-91.7748129999999946
11
118.6027059999999977
21
-91.7748129999999946
0
LINE
8
BLACK
6
CONTINUOUS
10
118.6027059999999977
20
-91.7748129999999946
11
118.5002899999999926
21
-91.7951849999999894
0
LINE
8
BLACK
6
CONTINUOUS
10
118.5002899999999926
20
-91.7951849999999894
11
118.4022729999999939
21
-91.7999999999999972
0
LINE
8
BLACK
6
CONTINUOUS
10
118.4022729999999939
20
-91.7999999999999972
11
116.3299999999999983
21
-91.7999999999999972
0
LINE
8
BLACK
6
CONTINUOUS
10
116.3299999999999983
20
-91.7999999999999972
11
116.2319829999999996
21
-91.7951849999999894
0
LINE
8
BLACK
6
CONTINUOUS
10
116.2319829999999996
20
-91.7951849999999894
11
116.1252319999999969
21
-91.7739499999999992
0
LINE
8
BLACK
6
CONTINUOUS
10
116.1252319999999969
20
-91.7739499999999992
11
116.0397159999999985
21
-91.7569409999999976
0
LINE
8
BLACK
6
CONTINUOUS
10
116.0397159999999985
20
-91.7569409999999976
11
115.8586039999999997
21
-91.6819220000000001
0
LINE
8
BLACK
6
CONTINUOUS
10
115.8586039999999997
20
-91.6819220000000001
11
115.6956069999999954
21
-91.5730109999999939
0
LINE
8
BLACK
6
CONTINUOUS
10
115.6956069999999954
20
-91.5730109999999939
11
115.6228929999999906
21
-91.5071069999999906
0
LINE
8
BLACK
6
CONTINUOUS
10
115.6228929999999906
20
-91.5071069999999906
11
114.6157859999999999
21
-90.5
0
LINE
8
BLACK
6
CONTINUOUS
10
114.6157859999999999
20
-90.5
11
112.25
21
-90.5
0
LINE
8
BLACK
6
CONTINUOUS
10
112.25
20
-90.5
11
112.25
21
-88.5
0
LINE
8
BLACK
6
CONTINUOUS
10
112.25
20
-88.5
11
114.75
21
-88.5
0
LINE
8
BLACK
6
CONTINUOUS
10
114.75
20
-88.5
11
114.75
21
-88.5410139999999899
0
LINE
8
BLACK
6
CONTINUOUS
10
114.75
20
-88.5410139999999899
11
114.9319829999999882
21
-88.504815999999991
0
LINE
8
BLACK
6
CONTINUOUS
10
114.9319829999999882
20
-88.504815999999991
11
115.1280169999999998
21
-88.504815999999991
0
LINE
8
BLACK
6
CONTINUOUS
10
115.1280169999999998
20
-88.504815999999991
11
115.3202840000000009
21
-88.543059999999997
0
LINE
8
BLACK
6
CONTINUOUS
10
115.3202840000000009
20
-88.543059999999997
11
115.5013959999999997
21
-88.6180789999999945
0
LINE
8
BLACK
6
CONTINUOUS
10
115.5013959999999997
20
-88.6180789999999945
11
115.6643940000000015
21
-88.726988999999989
0
LINE
8
BLACK
6
CONTINUOUS
10
115.6643940000000015
20
-88.726988999999989
11
115.7371069999999946
21
-88.7928929999999923
0
LINE
8
BLACK
6
CONTINUOUS
10
115.7371069999999946
20
-88.7928929999999923
11
116.7442139999999995
21
-89.7999999999999972
0
LINE
8
BLACK
6
CONTINUOUS
10
116.7442139999999995
20
-89.7999999999999972
11
117.1774599999999964
21
-89.7999999999999972
0
LINE
8
BLACK
6
CONTINUOUS
10
117.1774599999999964
20
-89.7999999999999972
11
117.1774599999999964
21
-89.7748129999999946
0
LINE
8
BLACK
6
CONTINUOUS
10
117.1774599999999964
20
-89.7748129999999946
11
119.4009729999999934
21
-89.7748129999999946
0
LINE
8
BLACK
6
CONTINUOUS
10
119.4009729999999934
20
-89.7748129999999946
11
123.3428929999999895
21
-85.8328929999999986
0
LINE
8
BLACK
6
CONTINUOUS
10
123.3428929999999895
20
-85.8328929999999986
11
123.4156059999999968
21
-85.7669889999999953
0
LINE
8
BLACK
6
CONTINUOUS
10
123.4156059999999968
20
-85.7669889999999953
11
123.5319870000000009
21
-85.6892259999999908
0
LINE
8
BLACK
6
CONTINUOUS
10
123.5319870000000009
20
-85.6892259999999908
11
123.5786030000000011
21
-85.6580790000000007
0
LINE
8
BLACK
6
CONTINUOUS
10
123.5786030000000011
20
-85.6580790000000007
11
123.7597149999999999
21
-85.583059999999989
0
LINE
8
BLACK
6
CONTINUOUS
10
123.7597149999999999
20
-85.583059999999989
11
123.9519829999999985
21
-85.5448149999999998
0
LINE
8
BLACK
6
CONTINUOUS
10
123.9519829999999985
20
-85.5448149999999998
11
124.0499999999999972
21
-85.539999999999992
0
LINE
8
BLACK
6
CONTINUOUS
10
124.0499999999999972
20
-85.539999999999992
11
135.7999999999999829
21
-85.539999999999992
0
LINE
8
BLACK
6
CONTINUOUS
10
119.6774599999999964
20
-89.2348130000000026
11
117.1774599999999964
21
-89.2348130000000026
0
LINE
8
BLACK
6
CONTINUOUS
10
117.1774599999999964
20
-89.2348130000000026
11
117.1774599999999964
21
-87.2348130000000026
0
LINE
8
BLACK
6
CONTINUOUS
10
117.1774599999999964
20
-87.2348130000000026
11
119.6774599999999964
21
-87.2348130000000026
0
LINE
8
BLACK
6
CONTINUOUS
10
119.6774599999999964
20
-87.2348130000000026
11
119.6774599999999964
21
-89.2348130000000026
0
LINE
8
BLACK
6
CONTINUOUS
10
119.6774599999999964
20
-67.1648129999999952
11
121.2148129999999924
21
-67.1648129999999952
0
LINE
8
BLACK
6
CONTINUOUS
10
121.2148129999999924
20
-67.1648129999999952
11
121.2883259999999979
21
-67.1684240000000017
0
LINE
8
BLACK
6
CONTINUOUS
10
121.2883259999999979
20
-67.1684240000000017
11
121.4325269999999932
21
-67.1971080000000001
0
LINE
8
BLACK
6
CONTINUOUS
10
121.4325269999999932
20
-67.1971080000000001
11
121.5683609999999959
21
-67.2533719999999988
0
LINE
8
BLACK
6
CONTINUOUS
10
121.5683609999999959
20
-67.2533719999999988
11
121.6906079999999974
21
-67.335054999999997
0
LINE
8
BLACK
6
CONTINUOUS
10
121.6906079999999974
20
-67.335054999999997
11
121.775794999999988
21
-67.4202420000000018
0
LINE
8
BLACK
6
CONTINUOUS
10
121.775794999999988
20
-67.4202420000000018
11
121.8797579999999954
21
-67.5242049999999949
0
LINE
8
BLACK
6
CONTINUOUS
10
121.8797579999999954
20
-67.5242049999999949
11
121.9614409999999936
21
-67.6464519999999965
0
LINE
8
BLACK
6
CONTINUOUS
10
121.9614409999999936
20
-67.6464519999999965
11
122.0177049999999923
21
-67.7822859999999991
0
LINE
8
BLACK
6
CONTINUOUS
10
122.0177049999999923
20
-67.7822859999999991
11
122.0463889999999907
21
-67.9264869999999945
0
LINE
8
BLACK
6
CONTINUOUS
10
122.0463889999999907
20
-67.9264869999999945
11
122.0499999999999972
21
-68.
0
LINE
8
BLACK
6
CONTINUOUS
10
122.0499999999999972
20
-68.
11
122.0499999999999972
21
-82.1893400000000014
0
LINE
8
BLACK
6
CONTINUOUS
10
122.0499999999999972
20
-82.1893400000000014
11
123.1106599999999958
21
-83.25
0
LINE
8
BLACK
6
CONTINUOUS
10
123.1106599999999958
20
-83.25
11
134.5499999999999829
21
-83.25
0
LINE
8
BLACK
6
CONTINUOUS
10
134.5499999999999829
20
-83.25
11
134.5499999999999829
21
-83.
0
LINE
8
BLACK
6
CONTINUOUS
10
134.5499999999999829
20
-83.
11
137.0499999999999829
21
-83.
0
LINE
8
BLACK
6
CONTINUOUS
10
137.0499999999999829
20
-83.
11
137.0499999999999829
21
-85.
0
LINE
8
BLACK
6
CONTINUOUS
10
137.0499999999999829
20
-85.
11
134.5499999999999829
21
-85.
0
LINE
8
BLACK
6
CONTINUOUS
10
134.5499999999999829
20
-85.
11
134.5499999999999829
21
-84.75
0
LINE
8
BLACK
6
CONTINUOUS
10
134.5499999999999829
20
-84.75
11
122.7999999999999972
21
-84.75
0
LINE
8
BLACK
6
CONTINUOUS
10
122.7999999999999972
20
-84.75
11
122.7264869999999917
21
-84.7463889999999935
0
LINE
8
BLACK
6
CONTINUOUS
10
122.7264869999999917
20
-84.7463889999999935
11
122.5822859999999963
21
-84.7177049999999952
0
LINE
8
BLACK
6
CONTINUOUS
10
122.5822859999999963
20
-84.7177049999999952
11
122.4464519999999936
21
-84.6614409999999964
0
LINE
8
BLACK
6
CONTINUOUS
10
122.4464519999999936
20
-84.6614409999999964
11
122.3242049999999921
21
-84.5797579999999982
0
LINE
8
BLACK
6
CONTINUOUS
10
122.3242049999999921
20
-84.5797579999999982
11
122.2696699999999908
21
-84.5303299999999922
0
LINE
8
BLACK
6
CONTINUOUS
10
122.2696699999999908
20
-84.5303299999999922
11
120.7696699999999908
21
-83.0303299999999922
0
LINE
8
BLACK
6
CONTINUOUS
10
120.7696699999999908
20
-83.0303299999999922
11
120.7202419999999989
21
-82.9757949999999909
0
LINE
8
BLACK
6
CONTINUOUS
10
120.7202419999999989
20
-82.9757949999999909
11
120.6385590000000008
21
-82.8535479999999893
0
LINE
8
BLACK
6
CONTINUOUS
10
120.6385590000000008
20
-82.8535479999999893
11
120.599078999999989
21
-82.7582349999999991
0
LINE
8
BLACK
6
CONTINUOUS
10
120.599078999999989
20
-82.7582349999999991
11
120.5822939999999903
21
-82.7177129999999892
0
LINE
8
BLACK
6
CONTINUOUS
10
120.5822939999999903
20
-82.7177129999999892
11
120.5536109999999894
21
-82.5735129999999913
0
LINE
8
BLACK
6
CONTINUOUS
10
120.5536109999999894
20
-82.5735129999999913
11
120.5499999999999972
21
-82.5
0
LINE
8
BLACK
6
CONTINUOUS
10
120.5499999999999972
20
-82.5
11
120.5499999999999972
21
-68.6648129999999952
0
LINE
8
BLACK
6
CONTINUOUS
10
120.5499999999999972
20
-68.6648129999999952
11
119.6774599999999964
21
-68.6648129999999952
0
LINE
8
BLACK
6
CONTINUOUS
10
119.6774599999999964
20
-68.6648129999999952
11
119.6774599999999964
21
-68.9148129999999952
0
LINE
8
BLACK
6
CONTINUOUS
10
119.6774599999999964
20
-68.9148129999999952
11
117.1774599999999964
21
-68.9148129999999952
0
LINE
8
BLACK
6
CONTINUOUS
10
117.1774599999999964
20
-68.9148129999999952
11
117.1774599999999964
21
-68.6648129999999952
0
LINE
8
BLACK
6
CONTINUOUS
10
117.1774599999999964
20
-68.6648129999999952
11
116.9354730000000018
21
-68.6648129999999952
0
LINE
8
BLACK
6
CONTINUOUS
10
116.9354730000000018
20
-68.6648129999999952
11
116.789999999999992
21
-68.8102859999999907
0
LINE
8
BLACK
6
CONTINUOUS
10
116.789999999999992
20
-68.8102859999999907
11
116.789999999999992
21
-86.5300000000000011
0
LINE
8
BLACK
6
CONTINUOUS
10
116.789999999999992
20
-86.5300000000000011
11
116.7863889999999998
21
-86.6035129999999924
0
LINE
8
BLACK
6
CONTINUOUS
10
116.7863889999999998
20
-86.6035129999999924
11
116.7577059999999989
21
-86.7477129999999903
0
LINE
8
BLACK
6
CONTINUOUS
10
116.7577059999999989
20
-86.7477129999999903
11
116.7247459999999961
21
-86.8272829999999942
0
LINE
8
BLACK
6
CONTINUOUS
10
116.7247459999999961
20
-86.8272829999999942
11
116.7014409999999884
21
-86.8835479999999905
0
LINE
8
BLACK
6
CONTINUOUS
10
116.7014409999999884
20
-86.8835479999999905
11
116.6621869999999888
21
-86.9422950000000014
0
LINE
8
BLACK
6
CONTINUOUS
10
116.6621869999999888
20
-86.9422950000000014
11
116.6197579999999903
21
-87.005794999999992
0
LINE
8
BLACK
6
CONTINUOUS
10
116.6197579999999903
20
-87.005794999999992
11
116.5703299999999984
21
-87.0603299999999933
0
LINE
8
BLACK
6
CONTINUOUS
10
116.5703299999999984
20
-87.0603299999999933
11
116.1403299999999916
21
-87.4903300000000002
0
LINE
8
BLACK
6
CONTINUOUS
10
116.1403299999999916
20
-87.4903300000000002
11
116.0857949999999903
21
-87.539757999999992
0
LINE
8
BLACK
6
CONTINUOUS
10
116.0857949999999903
20
-87.539757999999992
11
115.9635479999999887
21
-87.6214409999999901
0
LINE
8
BLACK
6
CONTINUOUS
10
115.9635479999999887
20
-87.6214409999999901
11
115.9072829999999925
21
-87.6447459999999978
0
LINE
8
BLACK
6
CONTINUOUS
10
115.9072829999999925
20
-87.6447459999999978
11
115.8277129999999886
21
-87.6777060000000006
0
LINE
8
BLACK
6
CONTINUOUS
10
115.8277129999999886
20
-87.6777060000000006
11
115.6835129999999907
21
-87.7063890000000015
0
LINE
8
BLACK
6
CONTINUOUS
10
115.6835129999999907
20
-87.7063890000000015
11
115.6099999999999994
21
-87.7099999999999937
0
LINE
8
BLACK
6
CONTINUOUS
10
115.6099999999999994
20
-87.7099999999999937
11
114.75
21
-87.7099999999999937
0
LINE
8
BLACK
6
CONTINUOUS
10
114.75
20
-87.7099999999999937
11
114.75
21
-87.9599999999999937
0
LINE
8
BLACK
6
CONTINUOUS
10
114.75
20
-87.9599999999999937
11
112.25
21
-87.9599999999999937
0
LINE
8
BLACK
6
CONTINUOUS
10
112.25
20
-87.9599999999999937
11
112.25
21
-85.9599999999999937
0
LINE
8
BLACK
6
CONTINUOUS
10
112.25
20
-85.9599999999999937
11
114.75
21
-85.9599999999999937
0
LINE
8
BLACK
6
CONTINUOUS
10
114.75
20
-85.9599999999999937
11
114.75
21
-86.2099999999999937
0
LINE
8
BLACK
6
CONTINUOUS
10
114.75
20
-86.2099999999999937
11
115.289999999999992
21
-86.2099999999999937
0
LINE
8
BLACK
6
CONTINUOUS
10
115.289999999999992
20
-86.2099999999999937
11
115.289999999999992
21
-68.4996259999999921
0
LINE
8
BLACK
6
CONTINUOUS
10
115.289999999999992
20
-68.4996259999999921
11
115.2936109999999985
21
-68.4261130000000009
0
LINE
8
BLACK
6
CONTINUOUS
10
115.2936109999999985
20
-68.4261130000000009
11
115.3222939999999994
21
-68.281913000000003
0
LINE
8
BLACK
6
CONTINUOUS
10
115.3222939999999994
20
-68.281913000000003
11
115.3785589999999956
21
-68.1460790000000003
0
LINE
8
BLACK
6
CONTINUOUS
10
115.3785589999999956
20
-68.1460790000000003
11
115.3785589999999956
21
-68.1460780000000028
0
LINE
8
BLACK
6
CONTINUOUS
10
115.3785589999999956
20
-68.1460780000000028
11
115.4602419999999938
21
-68.0238310000000013
0
LINE
8
BLACK
6
CONTINUOUS
10
115.4602419999999938
20
-68.0238310000000013
11
115.5096699999999998
21
-67.9692959999999999
0
LINE
8
BLACK
6
CONTINUOUS
10
115.5096699999999998
20
-67.9692959999999999
11
116.0944829999999968
21
-67.384483000000003
0
LINE
8
BLACK
6
CONTINUOUS
10
116.0944829999999968
20
-67.384483000000003
11
116.1490170000000006
21
-67.335054999999997
0
LINE
8
BLACK
6
CONTINUOUS
10
116.1490170000000006
20
-67.335054999999997
11
116.2279789999999906
21
-67.2822949999999906
0
LINE
8
BLACK
6
CONTINUOUS
10
116.2279789999999906
20
-67.2822949999999906
11
116.2712649999999996
21
-67.2533719999999988
0
LINE
8
BLACK
6
CONTINUOUS
10
116.2712649999999996
20
-67.2533719999999988
11
116.4070989999999881
21
-67.1971080000000001
0
LINE
8
BLACK
6
CONTINUOUS
10
116.4070989999999881
20
-67.1971080000000001
11
116.5512999999999977
21
-67.1684240000000017
0
LINE
8
BLACK
6
CONTINUOUS
10
116.5512999999999977
20
-67.1684240000000017
11
116.624812999999989
21
-67.1648129999999952
0
LINE
8
BLACK
6
CONTINUOUS
10
116.624812999999989
20
-67.1648129999999952
11
117.1774599999999964
21
-67.1648129999999952
0
LINE
8
BLACK
6
CONTINUOUS
10
117.1774599999999964
20
-67.1648129999999952
11
117.1774599999999964
21
-66.9148129999999952
0
LINE
8
BLACK
6
CONTINUOUS
10
117.1774599999999964
20
-66.9148129999999952
11
119.6774599999999964
21
-66.9148129999999952
0
LINE
8
BLACK
6
CONTINUOUS
10
119.6774599999999964
20
-66.9148129999999952
11
119.6774599999999964
21
-67.1648129999999952
0
LINE
8
BLACK
6
CONTINUOUS
10
119.6774599999999964
20
-86.6948129999999964
11
117.1774599999999964
21
-86.6948129999999964
0
LINE
8
BLACK
6
CONTINUOUS
10
117.1774599999999964
20
-86.6948129999999964
11
117.1774599999999964
21
-84.6948129999999964
0
LINE
8
BLACK
6
CONTINUOUS
10
117.1774599999999964
20
-84.6948129999999964
11
119.6774599999999964
21
-84.6948129999999964
0
LINE
8
BLACK
6
CONTINUOUS
10
119.6774599999999964
20
-84.6948129999999964
11
119.6774599999999964
21
-86.6948129999999964
0
LINE
8
BLACK
6
CONTINUOUS
10
69.5600000000000023
20
-85.7650000000000006
11
67.5600000000000023
21
-85.7650000000000006
0
LINE
8
BLACK
6
CONTINUOUS
10
67.5600000000000023
20
-85.7650000000000006
11
67.5600000000000023
21
-83.2650000000000006
0
LINE
8
BLACK
6
CONTINUOUS
10
67.5600000000000023
20
-83.2650000000000006
11
69.5600000000000023
21
-83.2650000000000006
0
LINE
8
BLACK
6
CONTINUOUS
10
69.5600000000000023
20
-83.2650000000000006
11
69.5600000000000023
21
-85.7650000000000006
0
LINE
8
BLACK
6
CONTINUOUS
10
119.6774599999999964
20
-59.5448129999999978
11
125.4548129999999873
21
-59.5448129999999978
0
LINE
8
BLACK
6
CONTINUOUS
10
125.4548129999999873
20
-59.5448129999999978
11
125.5283259999999927
21
-59.5484239999999971
0
LINE
8
BLACK
6
CONTINUOUS
10
125.5283259999999927
20
-59.5484239999999971
11
125.6725259999999906
21
-59.577106999999998
0
LINE
8
BLACK
6
CONTINUOUS
10
125.6725259999999906
20
-59.577106999999998
11
125.7520959999999945
21
-59.6100659999999962
0
LINE
8
BLACK
6
CONTINUOUS
10
125.7520959999999945
20
-59.6100659999999962
11
125.8083609999999908
21
-59.6333719999999943
0
LINE
8
BLACK
6
CONTINUOUS
10
125.8083609999999908
20
-59.6333719999999943
11
125.8815789999999879
21
-59.6822949999999963
0
LINE
8
BLACK
6
CONTINUOUS
10
125.8815789999999879
20
-59.6822949999999963
11
125.9306079999999923
21
-59.7150549999999996
0
LINE
8
BLACK
6
CONTINUOUS
10
125.9306079999999923
20
-59.7150549999999996
11
125.9851429999999937
21
-59.7644829999999985
0
LINE
8
BLACK
6
CONTINUOUS
10
125.9851429999999937
20
-59.7644829999999985
11
127.8803300000000007
21
-61.6596699999999984
0
LINE
8
BLACK
6
CONTINUOUS
10
127.8803300000000007
20
-61.6596699999999984
11
127.9297579999999925
21
-61.7142049999999998
0
LINE
8
BLACK
6
CONTINUOUS
10
127.9297579999999925
20
-61.7142049999999998
11
128.0114409999999907
21
-61.8364519999999942
0
LINE
8
BLACK
6
CONTINUOUS
10
128.0114409999999907
20
-61.8364519999999942
11
128.0677049999999895
21
-61.9722859999999969
0
LINE
8
BLACK
6
CONTINUOUS
10
128.0677049999999895
20
-61.9722859999999969
11
128.0963889999999878
21
-62.1164869999999993
0
LINE
8
BLACK
6
CONTINUOUS
10
128.0963889999999878
20
-62.1164869999999993
11
128.0999999999999943
21
-62.1899999999999977
0
LINE
8
BLACK
6
CONTINUOUS
10
128.0999999999999943
20
-62.1899999999999977
11
128.0999999999999943
21
-80.8093399999999917
0
LINE
8
BLACK
6
CONTINUOUS
10
128.0999999999999943
20
-80.8093399999999917
11
128.1106599999999958
21
-80.8199999999999932
0
LINE
8
BLACK
6
CONTINUOUS
10
128.1106599999999958
20
-80.8199999999999932
11
134.5499999999999829
21
-80.8199999999999932
0
LINE
8
BLACK
6
CONTINUOUS
10
134.5499999999999829
20
-80.8199999999999932
11
134.5499999999999829
21
-80.4599999999999937
0
LINE
8
BLACK
6
CONTINUOUS
10
134.5499999999999829
20
-80.4599999999999937
11
137.0499999999999829
21
-80.4599999999999937
0
LINE
8
BLACK
6
CONTINUOUS
10
137.0499999999999829
20
-80.4599999999999937
11
137.0499999999999829
21
-82.4599999999999937
0
LINE
8
BLACK
6
CONTINUOUS
10
137.0499999999999829
20
-82.4599999999999937
11
134.5499999999999829
21
-82.4599999999999937
0
LINE
8
BLACK
6
CONTINUOUS
10
134.5499999999999829
20
-82.4599999999999937
11
134.5499999999999829
21
-82.3199999999999932
0
LINE
8
BLACK
6
CONTINUOUS
10
134.5499999999999829
20
-82.3199999999999932
11
127.7999999999999972
21
-82.3199999999999932
0
LINE
8
BLACK
6
CONTINUOUS
10
127.7999999999999972
20
-82.3199999999999932
11
127.7264869999999917
21
-82.3163890000000009
0
LINE
8
BLACK
6
CONTINUOUS
10
127.7264869999999917
20
-82.3163890000000009
11
127.5822869999999938
21
-82.287706
0
LINE
8
BLACK
6
CONTINUOUS
10
127.5822869999999938
20
-82.287706
11
127.4726369999999918
21
-82.2422869999999904
0
LINE
8
BLACK
6
CONTINUOUS
10
127.4726369999999918
20
-82.2422869999999904
11
127.4464519999999936
21
-82.2314409999999896
0
LINE
8
BLACK
6
CONTINUOUS
10
127.4464519999999936
20
-82.2314409999999896
11
127.3242049999999921
21
-82.1497579999999914
0
LINE
8
BLACK
6
CONTINUOUS
10
127.3242049999999921
20
-82.1497579999999914
11
127.2696699999999908
21
-82.1003299999999996
0
LINE
8
BLACK
6
CONTINUOUS
10
127.2696699999999908
20
-82.1003299999999996
11
126.8196699999999879
21
-81.6503299999999967
0
LINE
8
BLACK
6
CONTINUOUS
10
126.8196699999999879
20
-81.6503299999999967
11
126.7702419999999961
21
-81.5957949999999954
0
LINE
8
BLACK
6
CONTINUOUS
10
126.7702419999999961
20
-81.5957949999999954
11
126.7120949999999908
21
-81.5087719999999933
0
LINE
8
BLACK
6
CONTINUOUS
10
126.7120949999999908
20
-81.5087719999999933
11
126.6885589999999979
21
-81.4735479999999939
0
LINE
8
BLACK
6
CONTINUOUS
10
126.6885589999999979
20
-81.4735479999999939
11
126.6552870000000013
21
-81.3932229999999919
0
LINE
8
BLACK
6
CONTINUOUS
10
126.6552870000000013
20
-81.3932229999999919
11
126.6322939999999875
21
-81.3377129999999937
0
LINE
8
BLACK
6
CONTINUOUS
10
126.6322939999999875
20
-81.3377129999999937
11
126.6036110000000008
21
-81.1935129999999958
0
LINE
8
BLACK
6
CONTINUOUS
10
126.6036110000000008
20
-81.1935129999999958
11
126.5999999999999943
21
-81.1199999999999903
0
LINE
8
BLACK
6
CONTINUOUS
10
126.5999999999999943
20
-81.1199999999999903
11
126.5999999999999943
21
-62.5006599999999963
0
LINE
8
BLACK
6
CONTINUOUS
10
126.5999999999999943
20
-62.5006599999999963
11
125.1441529999999887
21
-61.0448129999999978
0
LINE
8
BLACK
6
CONTINUOUS
10
125.1441529999999887
20
-61.0448129999999978
11
119.6774599999999964
21
-61.0448129999999978
0
LINE
8
BLACK
6
CONTINUOUS
10
119.6774599999999964
20
-61.0448129999999978
11
119.6774599999999964
21
-61.2948129999999978
0
LINE
8
BLACK
6
CONTINUOUS
10
119.6774599999999964
20
-61.2948129999999978
11
117.1774599999999964
21
-61.2948129999999978
0
LINE
8
BLACK
6
CONTINUOUS
10
117.1774599999999964
20
-61.2948129999999978
11
117.1774599999999964
21
-61.1499999999999986
0
LINE
8
BLACK
6
CONTINUOUS
10
117.1774599999999964
20
-61.1499999999999986
11
112.9706599999999952
21
-61.1499999999999986
0
LINE
8
BLACK
6
CONTINUOUS
10
112.9706599999999952
20
-61.1499999999999986
11
110.1700000000000017
21
-63.9506599999999992
0
LINE
8
BLACK
6
CONTINUOUS
10
110.1700000000000017
20
-63.9506599999999992
11
110.1700000000000017
21
-82.1493399999999951
0
LINE
8
BLACK
6
CONTINUOUS
10
110.1700000000000017
20
-82.1493399999999951
11
111.6906599999999941
21
-83.6700000000000017
0
LINE
8
BLACK
6
CONTINUOUS
10
111.6906599999999941
20
-83.6700000000000017
11
112.25
21
-83.6700000000000017
0
LINE
8
BLACK
6
CONTINUOUS
10
112.25
20
-83.6700000000000017
11
112.25
21
-83.4200000000000017
0
LINE
8
BLACK
6
CONTINUOUS
10
112.25
20
-83.4200000000000017
11
114.75
21
-83.4200000000000017
0
LINE
8
BLACK
6
CONTINUOUS
10
114.75
20
-83.4200000000000017
11
114.75
21
-85.4200000000000017
0
LINE
8
BLACK
6
CONTINUOUS
10
114.75
20
-85.4200000000000017
11
112.25
21
-85.4200000000000017
0
LINE
8
BLACK
6
CONTINUOUS
10
112.25
20
-85.4200000000000017
11
112.25
21
-85.1700000000000017
0
LINE
8
BLACK
6
CONTINUOUS
10
112.25
20
-85.1700000000000017
11
111.3799999999999955
21
-85.1700000000000017
0
LINE
8
BLACK
6
CONTINUOUS
10
111.3799999999999955
20
-85.1700000000000017
11
111.30648699999999
21
-85.1663889999999952
0
LINE
8
BLACK
6
CONTINUOUS
10
111.30648699999999
20
-85.1663889999999952
11
111.1622869999999921
21
-85.1377059999999943
0
LINE
8
BLACK
6
CONTINUOUS
10
111.1622869999999921
20
-85.1377059999999943
11
111.0827169999999882
21
-85.1047459999999916
0
LINE
8
BLACK
6
CONTINUOUS
10
111.0827169999999882
20
-85.1047459999999916
11
111.0264519999999919
21
-85.0814409999999981
0
LINE
8
BLACK
6
CONTINUOUS
10
111.0264519999999919
20
-85.0814409999999981
11
110.9774869999999964
21
-85.0487229999999954
0
LINE
8
BLACK
6
CONTINUOUS
10
110.9774869999999964
20
-85.0487229999999954
11
110.9042049999999904
21
-84.9997589999999974
0
LINE
8
BLACK
6
CONTINUOUS
10
110.9042049999999904
20
-84.9997589999999974
11
110.849669999999989
21
-84.9503299999999939
0
LINE
8
BLACK
6
CONTINUOUS
10
110.849669999999989
20
-84.9503299999999939
11
108.8896699999999953
21
-82.9903300000000002
0
LINE
8
BLACK
6
CONTINUOUS
10
108.8896699999999953
20
-82.9903300000000002
11
108.8402419999999893
21
-82.9357949999999988
0
LINE
8
BLACK
6
CONTINUOUS
10
108.8402419999999893
20
-82.9357949999999988
11
108.8029609999999963
21
-82.8799999999999955
0
LINE
8
BLACK
6
CONTINUOUS
10
108.8029609999999963
20
-82.8799999999999955
11
108.7585589999999911
21
-82.8135479999999973
0
LINE
8
BLACK
6
CONTINUOUS
10
108.7585589999999911
20
-82.8135479999999973
11
108.7188629999999989
21
-82.7177129999999892
0
LINE
8
BLACK
6
CONTINUOUS
10
108.7188629999999989
20
-82.7177129999999892
11
108.7022939999999949
21
-82.6777129999999971
0
LINE
8
BLACK
6
CONTINUOUS
10
108.7022939999999949
20
-82.6777129999999971
11
108.673610999999994
21
-82.5335129999999992
0
LINE
8
BLACK
6
CONTINUOUS
10
108.673610999999994
20
-82.5335129999999992
11
108.6700000000000017
21
-82.4599999999999937
0
LINE
8
BLACK
6
CONTINUOUS
10
108.6700000000000017
20
-82.4599999999999937
11
108.6700000000000017
21
-63.6400000000000006
0
LINE
8
BLACK
6
CONTINUOUS
10
108.6700000000000017
20
-63.6400000000000006
11
108.673610999999994
21
-63.5664869999999951
0
LINE
8
BLACK
6
CONTINUOUS
10
108.673610999999994
20
-63.5664869999999951
11
108.7022939999999949
21
-63.4222869999999972
0
LINE
8
BLACK
6
CONTINUOUS
10
108.7022939999999949
20
-63.4222869999999972
11
108.7585589999999911
21
-63.2864529999999945
0
LINE
8
BLACK
6
CONTINUOUS
10
108.7585589999999911
20
-63.2864529999999945
11
108.7585589999999911
21
-63.286451999999997
0
LINE
8
BLACK
6
CONTINUOUS
10
108.7585589999999911
20
-63.286451999999997
11
108.8402419999999893
21
-63.1642049999999955
0
LINE
8
BLACK
6
CONTINUOUS
10
108.8402419999999893
20
-63.1642049999999955
11
108.8896699999999953
21
-63.1096699999999942
0
LINE
8
BLACK
6
CONTINUOUS
10
108.8896699999999953
20
-63.1096699999999942
11
112.1296699999999902
21
-59.8696699999999993
0
LINE
8
BLACK
6
CONTINUOUS
10
112.1296699999999902
20
-59.8696699999999993
11
112.1842049999999915
21
-59.8202420000000004
0
LINE
8
BLACK
6
CONTINUOUS
10
112.1842049999999915
20
-59.8202420000000004
11
112.1860369999999989
21
-59.8190179999999998
0
LINE
8
BLACK
6
CONTINUOUS
10
112.1860369999999989
20
-59.8190179999999998
11
112.3064519999999931
21
-59.7385589999999951
0
LINE
8
BLACK
6
CONTINUOUS
10
112.3064519999999931
20
-59.7385589999999951
11
112.3631959999999879
21
-59.7150549999999996
0
LINE
8
BLACK
6
CONTINUOUS
10
112.3631959999999879
20
-59.7150549999999996
11
112.4422869999999932
21
-59.6822939999999988
0
LINE
8
BLACK
6
CONTINUOUS
10
112.4422869999999932
20
-59.6822939999999988
11
112.5864869999999911
21
-59.6536109999999979
0
LINE
8
BLACK
6
CONTINUOUS
10
112.5864869999999911
20
-59.6536109999999979
11
112.6599999999999966
21
-59.6499999999999986
0
LINE
8
BLACK
6
CONTINUOUS
10
112.6599999999999966
20
-59.6499999999999986
11
117.1774599999999964
21
-59.6499999999999986
0
LINE
8
BLACK
6
CONTINUOUS
10
117.1774599999999964
20
-59.6499999999999986
11
117.1774599999999964
21
-59.2948129999999978
0
LINE
8
BLACK
6
CONTINUOUS
10
117.1774599999999964
20
-59.2948129999999978
11
119.6774599999999964
21
-59.2948129999999978
0
LINE
8
BLACK
6
CONTINUOUS
10
119.6774599999999964
20
-59.2948129999999978
11
119.6774599999999964
21
-59.5448129999999978
0
LINE
8
BLACK
6
CONTINUOUS
10
119.6774599999999964
20
-84.1548129999999901
11
117.1774599999999964
21
-84.1548129999999901
0
LINE
8
BLACK
6
CONTINUOUS
10
117.1774599999999964
20
-84.1548129999999901
11
117.1774599999999964
21
-82.1548129999999901
0
LINE
8
BLACK
6
CONTINUOUS
10
117.1774599999999964
20
-82.1548129999999901
11
119.6774599999999964
21
-82.1548129999999901
0
LINE
8
BLACK
6
CONTINUOUS
10
119.6774599999999964
20
-82.1548129999999901
11
119.6774599999999964
21
-84.1548129999999901
0
LINE
8
BLACK
6
CONTINUOUS
10
114.75
20
-82.8799999999999955
11
112.25
21
-82.8799999999999955
0
LINE
8
BLACK
6
CONTINUOUS
10
112.25
20
-82.8799999999999955
11
112.25
21
-80.8799999999999955
0
LINE
8
BLACK
6
CONTINUOUS
10
112.25
20
-80.8799999999999955
11
114.75
21
-80.8799999999999955
0
LINE
8
BLACK
6
CONTINUOUS
10
114.75
20
-80.8799999999999955
11
114.75
21
-82.8799999999999955
0
LINE
8
BLACK
6
CONTINUOUS
10
74.1835129999999907
20
-65.0636109999999945
11
74.3277140000000003
21
-65.0922949999999929
0
LINE
8
BLACK
6
CONTINUOUS
10
74.3277140000000003
20
-65.0922949999999929
11
74.463548000000003
21
-65.1485589999999917
0
LINE
8
BLACK
6
CONTINUOUS
10
74.463548000000003
20
-65.1485589999999917
11
74.5857949999999903
21
-65.2302420000000041
0
LINE
8
BLACK
6
CONTINUOUS
10
74.5857949999999903
20
-65.2302420000000041
11
74.6897579999999977
21
-65.3342049999999972
0
LINE
8
BLACK
6
CONTINUOUS
10
74.6897579999999977
20
-65.3342049999999972
11
74.7714409999999958
21
-65.4564519999999987
0
LINE
8
BLACK
6
CONTINUOUS
10
74.7714409999999958
20
-65.4564519999999987
11
74.7954890000000034
21
-65.5145100000000014
0
LINE
8
BLACK
6
CONTINUOUS
10
74.7954890000000034
20
-65.5145100000000014
11
74.8535480000000035
21
-65.5385589999999922
0
LINE
8
BLACK
6
CONTINUOUS
10
74.8535480000000035
20
-65.5385589999999922
11
74.9757949999999909
21
-65.6202419999999904
0
LINE
8
BLACK
6
CONTINUOUS
10
74.9757949999999909
20
-65.6202419999999904
11
75.0797579999999982
21
-65.7242049999999978
0
LINE
8
BLACK
6
CONTINUOUS
10
75.0797579999999982
20
-65.7242049999999978
11
75.1614409999999964
21
-65.8464519999999993
0
LINE
8
BLACK
6
CONTINUOUS
10
75.1614409999999964
20
-65.8464519999999993
11
75.2177049999999952
21
-65.982286000000002
0
LINE
8
BLACK
6
CONTINUOUS
10
75.2177049999999952
20
-65.982286000000002
11
75.2463889999999935
21
-66.1264869999999974
0
LINE
8
BLACK
6
CONTINUOUS
10
75.2463889999999935
20
-66.1264869999999974
11
75.25
21
-66.2000000000000028
0
LINE
8
BLACK
6
CONTINUOUS
10
75.25
20
-66.2000000000000028
11
75.25
21
-77.5693399999999968
0
LINE
8
BLACK
6
CONTINUOUS
10
75.25
20
-77.5693399999999968
11
77.5454730000000012
21
-79.8648129999999981
0
LINE
8
BLACK
6
CONTINUOUS
10
77.5454730000000012
20
-79.8648129999999981
11
91.7774599999999907
21
-79.8648129999999981
0
LINE
8
BLACK
6
CONTINUOUS
10
91.7774599999999907
20
-79.8648129999999981
11
91.7774599999999907
21
-79.6148129999999981
0
LINE
8
BLACK
6
CONTINUOUS
10
91.7774599999999907
20
-79.6148129999999981
11
94.2774599999999907
21
-79.6148129999999981
0
LINE
8
BLACK
6
CONTINUOUS
10
94.2774599999999907
20
-79.6148129999999981
11
94.2774599999999907
21
-81.6148129999999981
0
LINE
8
BLACK
6
CONTINUOUS
10
94.2774599999999907
20
-81.6148129999999981
11
91.7774599999999907
21
-81.6148129999999981
0
LINE
8
BLACK
6
CONTINUOUS
10
91.7774599999999907
20
-81.6148129999999981
11
91.7774599999999907
21
-81.3648129999999981
0
LINE
8
BLACK
6
CONTINUOUS
10
91.7774599999999907
20
-81.3648129999999981
11
77.2348130000000026
21
-81.3648129999999981
0
LINE
8
BLACK
6
CONTINUOUS
10
77.2348130000000026
20
-81.3648129999999981
11
77.1612999999999971
21
-81.3612019999999916
0
LINE
8
BLACK
6
CONTINUOUS
10
77.1612999999999971
20
-81.3612019999999916
11
77.0170999999999992
21
-81.3325189999999907
0
LINE
8
BLACK
6
CONTINUOUS
10
77.0170999999999992
20
-81.3325189999999907
11
76.9375299999999953
21
-81.2995590000000021
0
LINE
8
BLACK
6
CONTINUOUS
10
76.9375299999999953
20
-81.2995590000000021
11
76.8812649999999991
21
-81.2762539999999944
0
LINE
8
BLACK
6
CONTINUOUS
10
76.8812649999999991
20
-81.2762539999999944
11
76.8323000000000036
21
-81.2435359999999918
0
LINE
8
BLACK
6
CONTINUOUS
10
76.8323000000000036
20
-81.2435359999999918
11
76.7590179999999975
21
-81.1945719999999937
0
LINE
8
BLACK
6
CONTINUOUS
10
76.7590179999999975
20
-81.1945719999999937
11
76.7044829999999962
21
-81.1451429999999903
0
LINE
8
BLACK
6
CONTINUOUS
10
76.7044829999999962
20
-81.1451429999999903
11
73.9696699999999936
21
-78.4103300000000019
0
LINE
8
BLACK
6
CONTINUOUS
10
73.9696699999999936
20
-78.4103300000000019
11
73.9202420000000018
21
-78.3557950000000005
0
LINE
8
BLACK
6
CONTINUOUS
10
73.9202420000000018
20
-78.3557950000000005
11
73.9096880000000027
21
-78.3400000000000034
0
LINE
8
BLACK
6
CONTINUOUS
10
73.9096880000000027
20
-78.3400000000000034
11
73.8385590000000036
21
-78.233547999999999
0
LINE
8
BLACK
6
CONTINUOUS
10
73.8385590000000036
20
-78.233547999999999
11
73.8024569999999898
21
-78.1463889999999992
0
LINE
8
BLACK
6
CONTINUOUS
10
73.8024569999999898
20
-78.1463889999999992
11
73.7822939999999932
21
-78.0977129999999988
0
LINE
8
BLACK
6
CONTINUOUS
10
73.7822939999999932
20
-78.0977129999999988
11
73.7536109999999923
21
-77.9535130000000009
0
LINE
8
BLACK
6
CONTINUOUS
10
73.7536109999999923
20
-77.9535130000000009
11
73.75
21
-77.8799999999999955
0
LINE
8
BLACK
6
CONTINUOUS
10
73.75
20
-77.8799999999999955
11
73.75
21
-66.5600000000000023
0
LINE
8
BLACK
6
CONTINUOUS
10
73.75
20
-66.5600000000000023
11
66.7800000000000011
21
-66.5600000000000023
0
LINE
8
BLACK
6
CONTINUOUS
10
66.7800000000000011
20
-66.5600000000000023
11
66.7800000000000011
21
-68.25
0
LINE
8
BLACK
6
CONTINUOUS
10
66.7800000000000011
20
-68.25
11
67.019999999999996
21
-68.25
0
LINE
8
BLACK
6
CONTINUOUS
10
67.019999999999996
20
-68.25
11
67.019999999999996
21
-70.75
0
LINE
8
BLACK
6
CONTINUOUS
10
67.019999999999996
20
-70.75
11
65.019999999999996
21
-70.75
0
LINE
8
BLACK
6
CONTINUOUS
10
65.019999999999996
20
-70.75
11
65.019999999999996
21
-68.25
0
LINE
8
BLACK
6
CONTINUOUS
10
65.019999999999996
20
-68.25
11
65.2800000000000011
21
-68.25
0
LINE
8
BLACK
6
CONTINUOUS
10
65.2800000000000011
20
-68.25
11
65.2800000000000011
21
-65.8299999999999983
0
LINE
8
BLACK
6
CONTINUOUS
10
65.2800000000000011
20
-65.8299999999999983
11
65.2836109999999934
21
-65.7564869999999928
0
LINE
8
BLACK
6
CONTINUOUS
10
65.2836109999999934
20
-65.7564869999999928
11
65.3122949999999918
21
-65.6122859999999974
0
LINE
8
BLACK
6
CONTINUOUS
10
65.3122949999999918
20
-65.6122859999999974
11
65.3685589999999905
21
-65.4764519999999948
0
LINE
8
BLACK
6
CONTINUOUS
10
65.3685589999999905
20
-65.4764519999999948
11
65.4502420000000029
21
-65.3542049999999932
0
LINE
8
BLACK
6
CONTINUOUS
10
65.4502420000000029
20
-65.3542049999999932
11
65.5542049999999961
21
-65.2502420000000001
0
LINE
8
BLACK
6
CONTINUOUS
10
65.5542049999999961
20
-65.2502420000000001
11
65.5742049999999921
21
-65.2302420000000041
0
LINE
8
BLACK
6
CONTINUOUS
10
65.5742049999999921
20
-65.2302420000000041
11
65.6964519999999936
21
-65.1485589999999917
0
LINE
8
BLACK
6
CONTINUOUS
10
65.6964519999999936
20
-65.1485589999999917
11
65.8322859999999963
21
-65.0922949999999929
0
LINE
8
BLACK
6
CONTINUOUS
10
65.8322859999999963
20
-65.0922949999999929
11
65.9764869999999917
21
-65.0636109999999945
0
LINE
8
BLACK
6
CONTINUOUS
10
65.9764869999999917
20
-65.0636109999999945
11
66.0499999999999972
21
-65.0600000000000023
0
LINE
8
BLACK
6
CONTINUOUS
10
66.0499999999999972
20
-65.0600000000000023
11
74.1099999999999994
21
-65.0600000000000023
0
LINE
8
BLACK
6
CONTINUOUS
10
74.1099999999999994
20
-65.0600000000000023
11
74.1835129999999907
21
-65.0636109999999945
0
LINE
8
BLACK
6
CONTINUOUS
10
119.6774599999999964
20
-81.6148129999999981
11
117.1774599999999964
21
-81.6148129999999981
0
LINE
8
BLACK
6
CONTINUOUS
10
117.1774599999999964
20
-81.6148129999999981
11
117.1774599999999964
21
-79.6148129999999981
0
LINE
8
BLACK
6
CONTINUOUS
10
117.1774599999999964
20
-79.6148129999999981
11
119.6774599999999964
21
-79.6148129999999981
0
LINE
8
BLACK
6
CONTINUOUS
10
119.6774599999999964
20
-79.6148129999999981
11
119.6774599999999964
21
-81.6148129999999981
0
LINE
8
BLACK
6
CONTINUOUS
10
114.75
20
-80.3400000000000034
11
112.25
21
-80.3400000000000034
0
LINE
8
BLACK
6
CONTINUOUS
10
112.25
20
-80.3400000000000034
11
112.25
21
-78.3400000000000034
0
LINE
8
BLACK
6
CONTINUOUS
10
112.25
20
-78.3400000000000034
11
114.75
21
-78.3400000000000034
0
LINE
8
BLACK
6
CONTINUOUS
10
114.75
20
-78.3400000000000034
11
114.75
21
-80.3400000000000034
0
LINE
8
BLACK
6
CONTINUOUS
10
137.0499999999999829
20
-79.9200000000000017
11
134.5499999999999829
21
-79.9200000000000017
0
LINE
8
BLACK
6
CONTINUOUS
10
134.5499999999999829
20
-79.9200000000000017
11
134.5499999999999829
21
-77.9200000000000017
0
LINE
8
BLACK
6
CONTINUOUS
10
134.5499999999999829
20
-77.9200000000000017
11
137.0499999999999829
21
-77.9200000000000017
0
LINE
8
BLACK
6
CONTINUOUS
10
137.0499999999999829
20
-77.9200000000000017
11
137.0499999999999829
21
-79.9200000000000017
0
LINE
8
BLACK
6
CONTINUOUS
10
94.2774599999999907
20
-79.0748129999999918
11
91.7774599999999907
21
-79.0748129999999918
0
LINE
8
BLACK
6
CONTINUOUS
10
91.7774599999999907
20
-79.0748129999999918
11
91.7774599999999907
21
-77.0748129999999918
0
LINE
8
BLACK
6
CONTINUOUS
10
91.7774599999999907
20
-77.0748129999999918
11
94.2774599999999907
21
-77.0748129999999918
0
LINE
8
BLACK
6
CONTINUOUS
10
94.2774599999999907
20
-77.0748129999999918
11
94.2774599999999907
21
-79.0748129999999918
0
LINE
8
BLACK
6
CONTINUOUS
10
119.6774599999999964
20
-79.0748129999999918
11
117.1774599999999964
21
-79.0748129999999918
0
LINE
8
BLACK
6
CONTINUOUS
10
117.1774599999999964
20
-79.0748129999999918
11
117.1774599999999964
21
-77.0748129999999918
0
LINE
8
BLACK
6
CONTINUOUS
10
117.1774599999999964
20
-77.0748129999999918
11
119.6774599999999964
21
-77.0748129999999918
0
LINE
8
BLACK
6
CONTINUOUS
10
119.6774599999999964
20
-77.0748129999999918
11
119.6774599999999964
21
-79.0748129999999918
0
LINE
8
BLACK
6
CONTINUOUS
10
69.5600000000000023
20
-78.4099999999999966
11
67.5600000000000023
21
-78.4099999999999966
0
LINE
8
BLACK
6
CONTINUOUS
10
67.5600000000000023
20
-78.4099999999999966
11
67.5600000000000023
21
-75.9099999999999966
0
LINE
8
BLACK
6
CONTINUOUS
10
67.5600000000000023
20
-75.9099999999999966
11
69.5600000000000023
21
-75.9099999999999966
0
LINE
8
BLACK
6
CONTINUOUS
10
69.5600000000000023
20
-75.9099999999999966
11
69.5600000000000023
21
-78.4099999999999966
0
LINE
8
BLACK
6
CONTINUOUS
10
114.75
20
-77.7999999999999972
11
112.25
21
-77.7999999999999972
0
LINE
8
BLACK
6
CONTINUOUS
10
112.25
20
-77.7999999999999972
11
112.25
21
-75.7999999999999972
0
LINE
8
BLACK
6
CONTINUOUS
10
112.25
20
-75.7999999999999972
11
114.75
21
-75.7999999999999972
0
LINE
8
BLACK
6
CONTINUOUS
10
114.75
20
-75.7999999999999972
11
114.75
21
-77.7999999999999972
0
LINE
8
BLACK
6
CONTINUOUS
10
137.0499999999999829
20
-77.3799999999999955
11
134.5499999999999829
21
-77.3799999999999955
0
LINE
8
BLACK
6
CONTINUOUS
10
134.5499999999999829
20
-77.3799999999999955
11
134.5499999999999829
21
-75.3799999999999955
0
LINE
8
BLACK
6
CONTINUOUS
10
134.5499999999999829
20
-75.3799999999999955
11
137.0499999999999829
21
-75.3799999999999955
0
LINE
8
BLACK
6
CONTINUOUS
10
137.0499999999999829
20
-75.3799999999999955
11
137.0499999999999829
21
-77.3799999999999955
0
LINE
8
BLACK
6
CONTINUOUS
10
94.2774599999999907
20
-76.5348129999999998
11
91.7774599999999907
21
-76.5348129999999998
0
LINE
8
BLACK
6
CONTINUOUS
10
91.7774599999999907
20
-76.5348129999999998
11
91.7774599999999907
21
-74.5348129999999998
0
LINE
8
BLACK
6
CONTINUOUS
10
91.7774599999999907
20
-74.5348129999999998
11
94.2774599999999907
21
-74.5348129999999998
0
LINE
8
BLACK
6
CONTINUOUS
10
94.2774599999999907
20
-74.5348129999999998
11
94.2774599999999907
21
-76.5348129999999998
0
LINE
8
BLACK
6
CONTINUOUS
10
119.6774599999999964
20
-76.5348129999999998
11
117.1774599999999964
21
-76.5348129999999998
0
LINE
8
BLACK
6
CONTINUOUS
10
117.1774599999999964
20
-76.5348129999999998
11
117.1774599999999964
21
-74.5348129999999998
0
LINE
8
BLACK
6
CONTINUOUS
10
117.1774599999999964
20
-74.5348129999999998
11
119.6774599999999964
21
-74.5348129999999998
0
LINE
8
BLACK
6
CONTINUOUS
10
119.6774599999999964
20
-74.5348129999999998
11
119.6774599999999964
21
-76.5348129999999998
0
LINE
8
BLACK
6
CONTINUOUS
10
114.75
20
-75.2599999999999909
11
113.4071439999999882
21
-75.2599999999999909
0
LINE
8
BLACK
6
CONTINUOUS
10
113.4071439999999882
20
-75.2599999999999909
11
113.4029919999999976
21
-75.2641519999999957
0
LINE
8
BLACK
6
CONTINUOUS
10
113.4029919999999976
20
-75.2641519999999957
11
113.4365909999999928
21
-75.297750999999991
0
LINE
8
BLACK
6
CONTINUOUS
10
113.4365909999999928
20
-75.297750999999991
11
113.5209429999999884
21
-75.339927000000003
0
LINE
8
BLACK
6
CONTINUOUS
10
113.5209429999999884
20
-75.339927000000003
11
113.533385999999993
21
-75.3477589999999964
0
LINE
8
BLACK
6
CONTINUOUS
10
113.533385999999993
20
-75.3477589999999964
11
113.552558999999988
21
-75.3698669999999993
0
LINE
8
BLACK
6
CONTINUOUS
10
113.552558999999988
20
-75.3698669999999993
11
113.5618130000000008
21
-75.3976279999999974
0
LINE
8
BLACK
6
CONTINUOUS
10
113.5618130000000008
20
-75.3976279999999974
11
113.5597389999999933
21
-75.4268179999999973
0
LINE
8
BLACK
6
CONTINUOUS
10
113.5597389999999933
20
-75.4268179999999973
11
113.5466509999999971
21
-75.4529929999999922
0
LINE
8
BLACK
6
CONTINUOUS
10
113.5466509999999971
20
-75.4529929999999922
11
113.5245439999999917
21
-75.4721660000000014
0
LINE
8
BLACK
6
CONTINUOUS
10
113.5245439999999917
20
-75.4721660000000014
11
113.4967819999999961
21
-75.48142
0
LINE
8
BLACK
6
CONTINUOUS
10
113.4967819999999961
20
-75.48142
11
113.4675919999999962
21
-75.4793459999999925
0
LINE
8
BLACK
6
CONTINUOUS
10
113.4675919999999962
20
-75.4793459999999925
11
113.4538609999999892
21
-75.4740910000000014
0
LINE
8
BLACK
6
CONTINUOUS
10
113.4538609999999892
20
-75.4740910000000014
11
113.3586229999999944
21
-75.4264719999999897
0
LINE
8
BLACK
6
CONTINUOUS
10
113.3586229999999944
20
-75.4264719999999897
11
113.352328
21
-75.4225089999999909
0
LINE
8
BLACK
6
CONTINUOUS
10
113.352328
20
-75.4225089999999909
11
113.3504959999999926
21
-75.4217510000000004
0
LINE
8
BLACK
6
CONTINUOUS
10
113.3504959999999926
20
-75.4217510000000004
11
113.3484339999999975
21
-75.4200589999999949
0
LINE
8
BLACK
6
CONTINUOUS
10
113.3484339999999975
20
-75.4200589999999949
11
113.3461799999999897
21
-75.4186399999999963
0
LINE
8
BLACK
6
CONTINUOUS
10
113.3461799999999897
20
-75.4186399999999963
11
113.3448810000000009
21
-75.4171429999999958
0
LINE
8
BLACK
6
CONTINUOUS
10
113.3448810000000009
20
-75.4171429999999958
11
113.3391309999999947
21
-75.4124229999999898
0
LINE
8
BLACK
6
CONTINUOUS
10
113.3391309999999947
20
-75.4124229999999898
11
113.2438929999999999
21
-75.3171849999999949
0
LINE
8
BLACK
6
CONTINUOUS
10
113.2438929999999999
20
-75.3171849999999949
11
113.2345660000000009
21
-75.3058199999999971
0
LINE
8
BLACK
6
CONTINUOUS
10
113.2345660000000009
20
-75.3058199999999971
11
113.2233669999999961
21
-75.27878299999999
0
LINE
8
BLACK
6
CONTINUOUS
10
113.2233669999999961
20
-75.27878299999999
11
113.2233669999999961
21
-75.2599999999999909
0
LINE
8
BLACK
6
CONTINUOUS
10
113.2233669999999961
20
-75.2599999999999909
11
112.25
21
-75.2599999999999909
0
LINE
8
BLACK
6
CONTINUOUS
10
112.25
20
-75.2599999999999909
11
112.25
21
-73.2599999999999909
0
LINE
8
BLACK
6
CONTINUOUS
10
112.25
20
-73.2599999999999909
11
114.75
21
-73.2599999999999909
0
LINE
8
BLACK
6
CONTINUOUS
10
114.75
20
-73.2599999999999909
11
114.75
21
-75.2599999999999909
0
LINE
8
BLACK
6
CONTINUOUS
10
94.2774599999999907
20
-73.9948129999999935
11
91.7774599999999907
21
-73.9948129999999935
0
LINE
8
BLACK
6
CONTINUOUS
10
91.7774599999999907
20
-73.9948129999999935
11
91.7774599999999907
21
-71.9948129999999935
0
LINE
8
BLACK
6
CONTINUOUS
10
91.7774599999999907
20
-71.9948129999999935
11
94.2774599999999907
21
-71.9948129999999935
0
LINE
8
BLACK
6
CONTINUOUS
10
94.2774599999999907
20
-71.9948129999999935
11
94.2774599999999907
21
-73.9948129999999935
0
LINE
8
BLACK
6
CONTINUOUS
10
119.6774599999999964
20
-73.9948129999999935
11
117.1774599999999964
21
-73.9948129999999935
0
LINE
8
BLACK
6
CONTINUOUS
10
117.1774599999999964
20
-73.9948129999999935
11
117.1774599999999964
21
-71.9948129999999935
0
LINE
8
BLACK
6
CONTINUOUS
10
117.1774599999999964
20
-71.9948129999999935
11
119.6774599999999964
21
-71.9948129999999935
0
LINE
8
BLACK
6
CONTINUOUS
10
119.6774599999999964
20
-71.9948129999999935
11
119.6774599999999964
21
-73.9948129999999935
0
LINE
8
BLACK
6
CONTINUOUS
10
94.2774599999999907
20
-71.4548130000000015
11
91.7774599999999907
21
-71.4548130000000015
0
LINE
8
BLACK
6
CONTINUOUS
10
91.7774599999999907
20
-71.4548130000000015
11
91.7774599999999907
21
-69.4548130000000015
0
LINE
8
BLACK
6
CONTINUOUS
10
91.7774599999999907
20
-69.4548130000000015
11
94.2774599999999907
21
-69.4548130000000015
0
LINE
8
BLACK
6
CONTINUOUS
10
94.2774599999999907
20
-69.4548130000000015
11
94.2774599999999907
21
-71.4548130000000015
0
LINE
8
BLACK
6
CONTINUOUS
10
119.6774599999999964
20
-71.4548130000000015
11
117.1774599999999964
21
-71.4548130000000015
0
LINE
8
BLACK
6
CONTINUOUS
10
117.1774599999999964
20
-71.4548130000000015
11
117.1774599999999964
21
-69.4548130000000015
0
LINE
8
BLACK
6
CONTINUOUS
10
117.1774599999999964
20
-69.4548130000000015
11
119.6774599999999964
21
-69.4548130000000015
0
LINE
8
BLACK
6
CONTINUOUS
10
119.6774599999999964
20
-69.4548130000000015
11
119.6774599999999964
21
-71.4548130000000015
0
LINE
8
BLACK
6
CONTINUOUS
10
69.5600000000000023
20
-70.75
11
67.5600000000000023
21
-70.75
0
LINE
8
BLACK
6
CONTINUOUS
10
67.5600000000000023
20
-70.75
11
67.5600000000000023
21
-68.25
0
LINE
8
BLACK
6
CONTINUOUS
10
67.5600000000000023
20
-68.25
11
69.5600000000000023
21
-68.25
0
LINE
8
BLACK
6
CONTINUOUS
10
69.5600000000000023
20
-68.25
11
69.5600000000000023
21
-70.75
0
LINE
8
BLACK
6
CONTINUOUS
10
94.2774599999999907
20
-68.9148129999999952
11
91.7774599999999907
21
-68.9148129999999952
0
LINE
8
BLACK
6
CONTINUOUS
10
91.7774599999999907
20
-68.9148129999999952
11
91.7774599999999907
21
-66.9148129999999952
0
LINE
8
BLACK
6
CONTINUOUS
10
91.7774599999999907
20
-66.9148129999999952
11
94.2774599999999907
21
-66.9148129999999952
0
LINE
8
BLACK
6
CONTINUOUS
10
94.2774599999999907
20
-66.9148129999999952
11
94.2774599999999907
21
-68.9148129999999952
0
LINE
8
BLACK
6
CONTINUOUS
10
94.2774599999999907
20
-66.3748130000000032
11
91.7774599999999907
21
-66.3748130000000032
0
LINE
8
BLACK
6
CONTINUOUS
10
91.7774599999999907
20
-66.3748130000000032
11
91.7774599999999907
21
-64.3748130000000032
0
LINE
8
BLACK
6
CONTINUOUS
10
91.7774599999999907
20
-64.3748130000000032
11
94.2774599999999907
21
-64.3748130000000032
0
LINE
8
BLACK
6
CONTINUOUS
10
94.2774599999999907
20
-64.3748130000000032
11
94.2774599999999907
21
-66.3748130000000032
0
LINE
8
BLACK
6
CONTINUOUS
10
119.6774599999999964
20
-66.3748130000000032
11
117.1774599999999964
21
-66.3748130000000032
0
LINE
8
BLACK
6
CONTINUOUS
10
117.1774599999999964
20
-66.3748130000000032
11
117.1774599999999964
21
-64.3748130000000032
0
LINE
8
BLACK
6
CONTINUOUS
10
117.1774599999999964
20
-64.3748130000000032
11
119.6774599999999964
21
-64.3748130000000032
0
LINE
8
BLACK
6
CONTINUOUS
10
119.6774599999999964
20
-64.3748130000000032
11
119.6774599999999964
21
-66.3748130000000032
0
LINE
8
BLACK
6
CONTINUOUS
10
94.2774599999999907
20
-63.8348129999999969
11
91.7774599999999907
21
-63.8348129999999969
0
LINE
8
BLACK
6
CONTINUOUS
10
91.7774599999999907
20
-63.8348129999999969
11
91.7774599999999907
21
-61.8348129999999969
0
LINE
8
BLACK
6
CONTINUOUS
10
91.7774599999999907
20
-61.8348129999999969
11
94.2774599999999907
21
-61.8348129999999969
0
LINE
8
BLACK
6
CONTINUOUS
10
94.2774599999999907
20
-61.8348129999999969
11
94.2774599999999907
21
-63.8348129999999969
0
LINE
8
BLACK
6
CONTINUOUS
10
119.6774599999999964
20
-63.8348129999999969
11
117.1774599999999964
21
-63.8348129999999969
0
LINE
8
BLACK
6
CONTINUOUS
10
117.1774599999999964
20
-63.8348129999999969
11
117.1774599999999964
21
-61.8348129999999969
0
LINE
8
BLACK
6
CONTINUOUS
10
117.1774599999999964
20
-61.8348129999999969
11
119.6774599999999964
21
-61.8348129999999969
0
LINE
8
BLACK
6
CONTINUOUS
10
119.6774599999999964
20
-61.8348129999999969
11
119.6774599999999964
21
-63.8348129999999969
0
LINE
8
BLACK
6
CONTINUOUS
10
94.2774599999999907
20
-61.2948129999999978
11
91.7774599999999907
21
-61.2948129999999978
0
LINE
8
BLACK
6
CONTINUOUS
10
91.7774599999999907
20
-61.2948129999999978
11
91.7774599999999907
21
-59.2948129999999978
0
LINE
8
BLACK
6
CONTINUOUS
10
91.7774599999999907
20
-59.2948129999999978
11
94.2774599999999907
21
-59.2948129999999978
0
LINE
8
BLACK
6
CONTINUOUS
10
94.2774599999999907
20
-59.2948129999999978
11
94.2774599999999907
21
-61.2948129999999978
0
LINE
8
BLACK
6
CONTINUOUS
10
94.2774599999999907
20
-58.7548129999999986
11
91.7774599999999907
21
-58.7548129999999986
0
LINE
8
BLACK
6
CONTINUOUS
10
91.7774599999999907
20
-58.7548129999999986
11
91.7774599999999907
21
-56.7548129999999986
0
LINE
8
BLACK
6
CONTINUOUS
10
91.7774599999999907
20
-56.7548129999999986
11
94.2774599999999907
21
-56.7548129999999986
0
LINE
8
BLACK
6
CONTINUOUS
10
94.2774599999999907
20
-56.7548129999999986
11
94.2774599999999907
21
-58.7548129999999986
0
LINE
8
BLACK
6
CONTINUOUS
10
119.6774599999999964
20
-58.7548129999999986
11
117.1774599999999964
21
-58.7548129999999986
0
LINE
8
BLACK
6
CONTINUOUS
10
117.1774599999999964
20
-58.7548129999999986
11
117.1774599999999964
21
-56.7548129999999986
0
LINE
8
BLACK
6
CONTINUOUS
10
117.1774599999999964
20
-56.7548129999999986
11
119.6774599999999964
21
-56.7548129999999986
0
LINE
8
BLACK
6
CONTINUOUS
10
119.6774599999999964
20
-56.7548129999999986
11
119.6774599999999964
21
-58.7548129999999986
0
LINE
8
BLACK
6
CONTINUOUS
10
59.0351669999999942
20
-49.8376449999999949
11
59.3126689999999996
21
-49.9009829999999965
0
LINE
8
BLACK
6
CONTINUOUS
10
59.3126689999999996
20
-49.9009829999999965
11
59.5813339999999982
21
-49.9949930000000009
0
LINE
8
BLACK
6
CONTINUOUS
10
59.5813339999999982
20
-49.9949930000000009
11
59.8377839999999992
21
-50.1184930000000008
0
LINE
8
BLACK
6
CONTINUOUS
10
59.8377839999999992
20
-50.1184930000000008
11
60.0787929999999974
21
-50.2699299999999951
0
LINE
8
BLACK
6
CONTINUOUS
10
60.0787929999999974
20
-50.2699299999999951
11
60.301331999999995
21
-50.4473979999999997
0
LINE
8
BLACK
6
CONTINUOUS
10
60.301331999999995
20
-50.4473979999999997
11
60.502601999999996
21
-50.6486680000000007
0
LINE
8
BLACK
6
CONTINUOUS
10
60.502601999999996
20
-50.6486680000000007
11
60.6800700000000006
21
-50.8712069999999983
0
LINE
8
BLACK
6
CONTINUOUS
10
60.6800700000000006
20
-50.8712069999999983
11
60.8315069999999949
21
-51.1122159999999965
0
LINE
8
BLACK
6
CONTINUOUS
10
60.8315069999999949
20
-51.1122159999999965
11
60.9550069999999948
21
-51.3686659999999975
0
LINE
8
BLACK
6
CONTINUOUS
10
60.9550069999999948
20
-51.3686659999999975
11
61.0490169999999992
21
-51.6373309999999961
0
LINE
8
BLACK
6
CONTINUOUS
10
61.0490169999999992
20
-51.6373309999999961
11
61.1123549999999938
21
-51.9148329999999945
0
LINE
8
BLACK
6
CONTINUOUS
10
61.1123549999999938
20
-51.9148329999999945
11
61.1442239999999941
21
-52.1976809999999958
0
LINE
8
BLACK
6
CONTINUOUS
10
61.1442239999999941
20
-52.1976809999999958
11
61.1442239999999941
21
-52.4823189999999968
0
LINE
8
BLACK
6
CONTINUOUS
10
61.1442239999999941
20
-52.4823189999999968
11
61.1123549999999938
21
-52.7651669999999982
0
LINE
8
BLACK
6
CONTINUOUS
10
61.1123549999999938
20
-52.7651669999999982
11
61.0490169999999992
21
-53.0426689999999965
0
LINE
8
BLACK
6
CONTINUOUS
10
61.0490169999999992
20
-53.0426689999999965
11
60.9550069999999948
21
-53.3113339999999951
0
LINE
8
BLACK
6
CONTINUOUS
10
60.9550069999999948
20
-53.3113339999999951
11
60.8315069999999949
21
-53.5677839999999961
0
LINE
8
BLACK
6
CONTINUOUS
10
60.8315069999999949
20
-53.5677839999999961
11
60.6800700000000006
21
-53.8087929999999943
0
LINE
8
BLACK
6
CONTINUOUS
10
60.6800700000000006
20
-53.8087929999999943
11
60.502601999999996
21
-54.031331999999999
0
LINE
8
BLACK
6
CONTINUOUS
10
60.502601999999996
20
-54.031331999999999
11
60.301331999999995
21
-54.232602
0
LINE
8
BLACK
6
CONTINUOUS
10
60.301331999999995
20
-54.232602
11
60.0787929999999974
21
-54.4100699999999975
0
LINE
8
BLACK
6
CONTINUOUS
10
60.0787929999999974
20
-54.4100699999999975
11
59.8377839999999992
21
-54.5615069999999989
0
LINE
8
BLACK
6
CONTINUOUS
10
59.8377839999999992
20
-54.5615069999999989
11
59.5813339999999982
21
-54.6850069999999988
0
LINE
8
BLACK
6
CONTINUOUS
10
59.5813339999999982
20
-54.6850069999999988
11
59.3126689999999996
21
-54.7790169999999961
0
LINE
8
BLACK
6
CONTINUOUS
10
59.3126689999999996
20
-54.7790169999999961
11
59.0351669999999942
21
-54.8423549999999977
0
LINE
8
BLACK
6
CONTINUOUS
10
59.0351669999999942
20
-54.8423549999999977
11
58.752319
21
-54.8742239999999981
0
LINE
8
BLACK
6
CONTINUOUS
10
58.752319
20
-54.8742239999999981
11
58.4676809999999989
21
-54.8742239999999981
0
LINE
8
BLACK
6
CONTINUOUS
10
58.4676809999999989
20
-54.8742239999999981
11
58.1848329999999976
21
-54.8423549999999977
0
LINE
8
BLACK
6
CONTINUOUS
10
58.1848329999999976
20
-54.8423549999999977
11
57.9073309999999992
21
-54.7790169999999961
0
LINE
8
BLACK
6
CONTINUOUS
10
57.9073309999999992
20
-54.7790169999999961
11
57.6386660000000006
21
-54.6850069999999988
0
LINE
8
BLACK
6
CONTINUOUS
10
57.6386660000000006
20
-54.6850069999999988
11
57.3822159999999997
21
-54.5615069999999989
0
LINE
8
BLACK
6
CONTINUOUS
10
57.3822159999999997
20
-54.5615069999999989
11
57.1412069999999943
21
-54.4100699999999975
0
LINE
8
BLACK
6
CONTINUOUS
10
57.1412069999999943
20
-54.4100699999999975
11
56.9186679999999967
21
-54.232602
0
LINE
8
BLACK
6
CONTINUOUS
10
56.9186679999999967
20
-54.232602
11
56.7173979999999958
21
-54.031331999999999
0
LINE
8
BLACK
6
CONTINUOUS
10
56.7173979999999958
20
-54.031331999999999
11
56.5399299999999982
21
-53.8087929999999943
0
LINE
8
BLACK
6
CONTINUOUS
10
56.5399299999999982
20
-53.8087929999999943
11
56.3884929999999969
21
-53.5677839999999961
0
LINE
8
BLACK
6
CONTINUOUS
10
56.3884929999999969
20
-53.5677839999999961
11
56.2649929999999969
21
-53.3113339999999951
0
LINE
8
BLACK
6
CONTINUOUS
10
56.2649929999999969
20
-53.3113339999999951
11
56.1709829999999997
21
-53.0426689999999965
0
LINE
8
BLACK
6
CONTINUOUS
10
56.1709829999999997
20
-53.0426689999999965
11
56.107644999999998
21
-52.7651669999999982
0
LINE
8
BLACK
6
CONTINUOUS
10
56.107644999999998
20
-52.7651669999999982
11
56.0757759999999976
21
-52.4823189999999968
0
LINE
8
BLACK
6
CONTINUOUS
10
56.0757759999999976
20
-52.4823189999999968
11
56.0757759999999976
21
-52.1976809999999958
0
LINE
8
BLACK
6
CONTINUOUS
10
56.0757759999999976
20
-52.1976809999999958
11
56.0770079999999993
21
-52.1867449999999948
0
LINE
8
BLACK
6
CONTINUOUS
10
56.0770079999999993
20
-52.1867449999999948
11
56.107644999999998
21
-51.9148329999999945
0
LINE
8
BLACK
6
CONTINUOUS
10
56.107644999999998
20
-51.9148329999999945
11
56.1709829999999997
21
-51.6373309999999961
0
LINE
8
BLACK
6
CONTINUOUS
10
56.1709829999999997
20
-51.6373309999999961
11
56.2649929999999969
21
-51.3686659999999975
0
LINE
8
BLACK
6
CONTINUOUS
10
56.2649929999999969
20
-51.3686659999999975
11
56.3884929999999969
21
-51.1122159999999965
0
LINE
8
BLACK
6
CONTINUOUS
10
56.3884929999999969
20
-51.1122159999999965
11
56.5399299999999982
21
-50.8712069999999983
0
LINE
8
BLACK
6
CONTINUOUS
10
56.5399299999999982
20
-50.8712069999999983
11
56.7173979999999958
21
-50.6486680000000007
0
LINE
8
BLACK
6
CONTINUOUS
10
56.7173979999999958
20
-50.6486680000000007
11
56.9186679999999967
21
-50.4473979999999997
0
LINE
8
BLACK
6
CONTINUOUS
10
56.9186679999999967
20
-50.4473979999999997
11
57.1412069999999943
21
-50.2699299999999951
0
LINE
8
BLACK
6
CONTINUOUS
10
57.1412069999999943
20
-50.2699299999999951
11
57.3822159999999997
21
-50.1184930000000008
0
LINE
8
BLACK
6
CONTINUOUS
10
57.3822159999999997
20
-50.1184930000000008
11
57.6386660000000006
21
-49.9949930000000009
0
LINE
8
BLACK
6
CONTINUOUS
10
57.6386660000000006
20
-49.9949930000000009
11
57.9073309999999992
21
-49.9009829999999965
0
LINE
8
BLACK
6
CONTINUOUS
10
57.9073309999999992
20
-49.9009829999999965
11
58.1848329999999976
21
-49.8376449999999949
0
LINE
8
BLACK
6
CONTINUOUS
10
58.1848329999999976
20
-49.8376449999999949
11
58.4676809999999989
21
-49.8057759999999945
0
LINE
8
BLACK
6
CONTINUOUS
10
58.4676809999999989
20
-49.8057759999999945
11
58.752319
21
-49.8057759999999945
0
LINE
8
BLACK
6
CONTINUOUS
10
58.752319
20
-49.8057759999999945
11
59.0351669999999942
21
-49.8376449999999949
0
LINE
8
BLACK
6
CONTINUOUS
10
56.2717829999999992
20
-52.4932549999999978
11
56.3117909999999995
21
-52.7971420000000009
0
LINE
8
BLACK
6
CONTINUOUS
10
56.3117909999999995
20
-52.7971420000000009
11
56.3911209999999983
21
-53.0932079999999971
0
LINE
8
BLACK
6
CONTINUOUS
10
56.3911209999999983
20
-53.0932079999999971
11
56.5084169999999943
21
-53.3763859999999966
0
LINE
8
BLACK
6
CONTINUOUS
10
56.5084169999999943
20
-53.3763859999999966
11
56.6616719999999958
21
-53.6418309999999963
0
LINE
8
BLACK
6
CONTINUOUS
10
56.6616719999999958
20
-53.6418309999999963
11
56.8482629999999958
21
-53.8850020000000001
0
LINE
8
BLACK
6
CONTINUOUS
10
56.8482629999999958
20
-53.8850020000000001
11
57.0649979999999957
21
-54.101737
0
LINE
8
BLACK
6
CONTINUOUS
10
57.0649979999999957
20
-54.101737
11
57.3081689999999995
21
-54.2883279999999999
0
LINE
8
BLACK
6
CONTINUOUS
10
57.3081689999999995
20
-54.2883279999999999
11
57.5736139999999992
21
-54.4415829999999943
0
LINE
8
BLACK
6
CONTINUOUS
10
57.5736139999999992
20
-54.4415829999999943
11
57.8567919999999987
21
-54.5588789999999975
0
LINE
8
BLACK
6
CONTINUOUS
10
57.8567919999999987
20
-54.5588789999999975
11
58.1528579999999948
21
-54.6382089999999963
0
LINE
8
BLACK
6
CONTINUOUS
10
58.1528579999999948
20
-54.6382089999999963
11
58.456744999999998
21
-54.6782169999999965
0
LINE
8
BLACK
6
CONTINUOUS
10
58.456744999999998
20
-54.6782169999999965
11
58.7632549999999938
21
-54.6782169999999965
0
LINE
8
BLACK
6
CONTINUOUS
10
58.7632549999999938
20
-54.6782169999999965
11
59.0671419999999969
21
-54.6382089999999963
0
LINE
8
BLACK
6
CONTINUOUS
10
59.0671419999999969
20
-54.6382089999999963
11
59.3632080000000002
21
-54.5588789999999975
0
LINE
8
BLACK
6
CONTINUOUS
10
59.3632080000000002
20
-54.5588789999999975
11
59.6463859999999997
21
-54.4415829999999943
0
LINE
8
BLACK
6
CONTINUOUS
10
59.6463859999999997
20
-54.4415829999999943
11
59.9118309999999994
21
-54.2883279999999999
0
LINE
8
BLACK
6
CONTINUOUS
10
59.9118309999999994
20
-54.2883279999999999
11
60.1550019999999961
21
-54.101737
0
LINE
8
BLACK
6
CONTINUOUS
10
60.1550019999999961
20
-54.101737
11
60.371736999999996
21
-53.8850020000000001
0
LINE
8
BLACK
6
CONTINUOUS
10
60.371736999999996
20
-53.8850020000000001
11
60.5583279999999959
21
-53.6418309999999963
0
LINE
8
BLACK
6
CONTINUOUS
10
60.5583279999999959
20
-53.6418309999999963
11
60.7115829999999974
21
-53.3763859999999966
0
LINE
8
BLACK
6
CONTINUOUS
10
60.7115829999999974
20
-53.3763859999999966
11
60.8288790000000006
21
-53.0932079999999971
0
LINE
8
BLACK
6
CONTINUOUS
10
60.8288790000000006
20
-53.0932079999999971
11
60.9082089999999994
21
-52.7971420000000009
0
LINE
8
BLACK
6
CONTINUOUS
10
60.9082089999999994
20
-52.7971420000000009
11
60.9482169999999996
21
-52.4932549999999978
0
LINE
8
BLACK
6
CONTINUOUS
10
60.9482169999999996
20
-52.4932549999999978
11
60.9482169999999996
21
-52.1867449999999948
0
LINE
8
BLACK
6
CONTINUOUS
10
60.9482169999999996
20
-52.1867449999999948
11
60.9082089999999994
21
-51.8828579999999988
0
LINE
8
BLACK
6
CONTINUOUS
10
60.9082089999999994
20
-51.8828579999999988
11
60.8288790000000006
21
-51.5867919999999955
0
LINE
8
BLACK
6
CONTINUOUS
10
60.8288790000000006
20
-51.5867919999999955
11
60.7115829999999974
21
-51.3036139999999961
0
LINE
8
BLACK
6
CONTINUOUS
10
60.7115829999999974
20
-51.3036139999999961
11
60.5583279999999959
21
-51.0381689999999963
0
LINE
8
BLACK
6
CONTINUOUS
10
60.5583279999999959
20
-51.0381689999999963
11
60.371736999999996
21
-50.7949979999999996
0
LINE
8
BLACK
6
CONTINUOUS
10
60.371736999999996
20
-50.7949979999999996
11
60.1550019999999961
21
-50.5782629999999997
0
LINE
8
BLACK
6
CONTINUOUS
10
60.1550019999999961
20
-50.5782629999999997
11
59.9118309999999994
21
-50.3916719999999998
0
LINE
8
BLACK
6
CONTINUOUS
10
59.9118309999999994
20
-50.3916719999999998
11
59.6463859999999997
21
-50.2384169999999983
0
LINE
8
BLACK
6
CONTINUOUS
10
59.6463859999999997
20
-50.2384169999999983
11
59.3632080000000002
21
-50.1211209999999951
0
LINE
8
BLACK
6
CONTINUOUS
10
59.3632080000000002
20
-50.1211209999999951
11
59.0671419999999969
21
-50.0417909999999964
0
LINE
8
BLACK
6
CONTINUOUS
10
59.0671419999999969
20
-50.0417909999999964
11
58.7632549999999938
21
-50.0017829999999961
0
LINE
8
BLACK
6
CONTINUOUS
10
58.7632549999999938
20
-50.0017829999999961
11
58.456744999999998
21
-50.0017829999999961
0
LINE
8
BLACK
6
CONTINUOUS
10
58.456744999999998
20
-50.0017829999999961
11
58.1528579999999948
21
-50.0417909999999964
0
LINE
8
BLACK
6
CONTINUOUS
10
58.1528579999999948
20
-50.0417909999999964
11
57.8567919999999987
21
-50.1211209999999951
0
LINE
8
BLACK
6
CONTINUOUS
10
57.8567919999999987
20
-50.1211209999999951
11
57.5736139999999992
21
-50.2384169999999983
0
LINE
8
BLACK
6
CONTINUOUS
10
57.5736139999999992
20
-50.2384169999999983
11
57.3081689999999995
21
-50.3916719999999998
0
LINE
8
BLACK
6
CONTINUOUS
10
57.3081689999999995
20
-50.3916719999999998
11
57.0649979999999957
21
-50.5782629999999997
0
LINE
8
BLACK
6
CONTINUOUS
10
57.0649979999999957
20
-50.5782629999999997
11
56.8482629999999958
21
-50.7949979999999996
0
LINE
8
BLACK
6
CONTINUOUS
10
56.8482629999999958
20
-50.7949979999999996
11
56.6616719999999958
21
-51.0381689999999963
0
LINE
8
BLACK
6
CONTINUOUS
10
56.6616719999999958
20
-51.0381689999999963
11
56.5084169999999943
21
-51.3036139999999961
0
LINE
8
BLACK
6
CONTINUOUS
10
56.5084169999999943
20
-51.3036139999999961
11
56.3911209999999983
21
-51.5867919999999955
0
LINE
8
BLACK
6
CONTINUOUS
10
56.3911209999999983
20
-51.5867919999999955
11
56.3117909999999995
21
-51.8828579999999988
0
LINE
8
BLACK
6
CONTINUOUS
10
56.3117909999999995
20
-51.8828579999999988
11
56.2717829999999992
21
-52.1867449999999948
0
LINE
8
BLACK
6
CONTINUOUS
10
56.2717829999999992
20
-52.1867449999999948
11
56.2717829999999992
21
-52.4932549999999978
0
LINE
8
BLACK
6
CONTINUOUS
10
137.5495090000000005
20
-48.261921000000001
11
137.5855569999999943
21
-48.2768529999999956
0
LINE
8
BLACK
6
CONTINUOUS
10
137.5855569999999943
20
-48.2768529999999956
11
137.6007109999999898
21
-48.2892889999999966
0
LINE
8
BLACK
6
CONTINUOUS
10
137.6007109999999898
20
-48.2892889999999966
11
139.6007109999999898
21
-50.2892889999999966
0
LINE
8
BLACK
6
CONTINUOUS
10
139.6007109999999898
20
-50.2892889999999966
11
139.6131469999999979
21
-50.3044429999999991
0
LINE
8
BLACK
6
CONTINUOUS
10
139.6131469999999979
20
-50.3044429999999991
11
139.6280789999999854
21
-50.3404910000000001
0
LINE
8
BLACK
6
CONTINUOUS
10
139.6280789999999854
20
-50.3404910000000001
11
139.6299999999999955
21
-50.3599999999999994
0
LINE
8
BLACK
6
CONTINUOUS
10
139.6299999999999955
20
-50.3599999999999994
11
139.6299999999999955
21
-112.0300000000000011
0
LINE
8
BLACK
6
CONTINUOUS
10
139.6299999999999955
20
-112.0300000000000011
11
139.6280789999999854
21
-112.0495090000000005
0
LINE
8
BLACK
6
CONTINUOUS
10
139.6280789999999854
20
-112.0495090000000005
11
139.617890999999986
21
-112.0741039999999913
0
LINE
8
BLACK
6
CONTINUOUS
10
139.617890999999986
20
-112.0741039999999913
11
139.6131469999999979
21
-112.0855569999999943
0
LINE
8
BLACK
6
CONTINUOUS
10
139.6131469999999979
20
-112.0855569999999943
11
139.6007109999999898
21
-112.1007109999999898
0
LINE
8
BLACK
6
CONTINUOUS
10
139.6007109999999898
20
-112.1007109999999898
11
137.6007109999999898
21
-114.1007109999999898
0
LINE
8
BLACK
6
CONTINUOUS
10
137.6007109999999898
20
-114.1007109999999898
11
137.5855569999999943
21
-114.1131469999999979
0
LINE
8
BLACK
6
CONTINUOUS
10
137.5855569999999943
20
-114.1131469999999979
11
137.5495090000000005
21
-114.1280789999999996
0
LINE
8
BLACK
6
CONTINUOUS
10
137.5495090000000005
20
-114.1280789999999996
11
137.5300000000000011
21
-114.1299999999999955
0
LINE
8
BLACK
6
CONTINUOUS
10
137.5300000000000011
20
-114.1299999999999955
11
56.25
21
-114.1299999999999955
0
LINE
8
BLACK
6
CONTINUOUS
10
56.25
20
-114.1299999999999955
11
56.2304910000000007
21
-114.1280789999999996
0
LINE
8
BLACK
6
CONTINUOUS
10
56.2304910000000007
20
-114.1280789999999996
11
56.1944429999999997
21
-114.1131469999999979
0
LINE
8
BLACK
6
CONTINUOUS
10
56.1944429999999997
20
-114.1131469999999979
11
56.1792889999999971
21
-114.1007109999999898
0
LINE
8
BLACK
6
CONTINUOUS
10
56.1792889999999971
20
-114.1007109999999898
11
54.1792889999999971
21
-112.1007109999999898
0
LINE
8
BLACK
6
CONTINUOUS
10
54.1792889999999971
20
-112.1007109999999898
11
54.1668529999999961
21
-112.0855569999999943
0
LINE
8
BLACK
6
CONTINUOUS
10
54.1668529999999961
20
-112.0855569999999943
11
54.1519209999999944
21
-112.0495090000000005
0
LINE
8
BLACK
6
CONTINUOUS
10
54.1519209999999944
20
-112.0495090000000005
11
54.1499999999999986
21
-112.0300000000000011
0
LINE
8
BLACK
6
CONTINUOUS
10
54.1499999999999986
20
-112.0300000000000011
11
54.1499999999999986
21
-50.3599999999999994
0
LINE
8
BLACK
6
CONTINUOUS
10
54.1499999999999986
20
-50.3599999999999994
11
54.1519209999999944
21
-50.3404910000000001
0
LINE
8
BLACK
6
CONTINUOUS
10
54.1519209999999944
20
-50.3404910000000001
11
54.1668529999999961
21
-50.3044429999999991
0
LINE
8
BLACK
6
CONTINUOUS
10
54.1668529999999961
20
-50.3044429999999991
11
54.1792889999999971
21
-50.2892889999999966
0
LINE
8
BLACK
6
CONTINUOUS
10
54.1792889999999971
20
-50.2892889999999966
11
56.1792889999999971
21
-48.2892889999999966
0
LINE
8
BLACK
6
CONTINUOUS
10
56.1792889999999971
20
-48.2892889999999966
11
56.1944429999999997
21
-48.2768529999999956
0
LINE
8
BLACK
6
CONTINUOUS
10
56.1944429999999997
20
-48.2768529999999956
11
56.2304910000000007
21
-48.261921000000001
0
LINE
8
BLACK
6
CONTINUOUS
10
56.2304910000000007
20
-48.261921000000001
11
56.25
21
-48.259999999999998
0
LINE
8
BLACK
6
CONTINUOUS
10
56.25
20
-48.259999999999998
11
137.5300000000000011
21
-48.259999999999998
0
LINE
8
BLACK
6
CONTINUOUS
10
137.5300000000000011
20
-48.259999999999998
11
137.5495090000000005
21
-48.261921000000001
0
LINE
8
BLACK
6
CONTINUOUS
10
56.2914219999999972
20
-48.4600000000000009
11
54.3499999999999943
21
-50.4014219999999966
0
LINE
8
BLACK
6
CONTINUOUS
10
54.3499999999999943
20
-50.4014219999999966
11
54.3499999999999943
21
-111.9885779999999897
0
LINE
8
BLACK
6
CONTINUOUS
10
54.3499999999999943
20
-111.9885779999999897
11
56.2914219999999972
21
-113.9299999999999926
0
LINE
8
BLACK
6
CONTINUOUS
10
56.2914219999999972
20
-113.9299999999999926
11
137.4885779999999897
21
-113.9299999999999926
0
LINE
8
BLACK
6
CONTINUOUS
10
137.4885779999999897
20
-113.9299999999999926
11
139.4300000000000068
21
-111.9885779999999897
0
LINE
8
BLACK
6
CONTINUOUS
10
139.4300000000000068
20
-111.9885779999999897
11
139.4300000000000068
21
-50.4014219999999966
0
LINE
8
BLACK
6
CONTINUOUS
10
139.4300000000000068
20
-50.4014219999999966
11
137.4885779999999897
21
-48.4600000000000009
0
LINE
8
BLACK
6
CONTINUOUS
10
137.4885779999999897
20
-48.4600000000000009
11
56.2914219999999972
21
-48.4600000000000009
0
CIRCLE
8
BLACK
10
93.0274599999999907
20
-60.2948129999999978
40
0.4
0
CIRCLE
8
BLACK
10
93.0274599999999907
20
-62.8348129999999969
40
0.4
0
CIRCLE
8
BLACK
10
93.0274599999999907
20
-57.7548129999999986
40
0.4
0
CIRCLE
8
BLACK
10
93.0274599999999907
20
-93.3148130000000009
40
0.4
0
CIRCLE
8
BLACK
10
93.0274599999999907
20
-90.7748129999999946
40
0.4
0
CIRCLE
8
BLACK
10
93.0274599999999907
20
-88.2348130000000026
40
0.4
0
CIRCLE
8
BLACK
10
93.0274599999999907
20
-85.6948129999999964
40
0.4
0
CIRCLE
8
BLACK
10
93.0274599999999907
20
-83.1548129999999901
40
0.4
0
CIRCLE
8
BLACK
10
93.0274599999999907
20
-80.6148129999999981
40
0.4
0
CIRCLE
8
BLACK
10
93.0274599999999907
20
-78.0748129999999918
40
0.4
0
CIRCLE
8
BLACK
10
93.0274599999999907
20
-75.5348129999999998
40
0.4
0
CIRCLE
8
BLACK
10
93.0274599999999907
20
-72.9948129999999935
40
0.4
0
CIRCLE
8
BLACK
10
93.0274599999999907
20
-70.4548130000000015
40
0.4
0
CIRCLE
8
BLACK
10
93.0274599999999907
20
-67.9148129999999952
40
0.4
0
CIRCLE
8
BLACK
10
93.0274599999999907
20
-65.3748130000000032
40
0.4
0
CIRCLE
8
BLACK
10
118.4274599999999964
20
-93.3148130000000009
40
0.4
0
CIRCLE
8
BLACK
10
118.4274599999999964
20
-90.7748129999999946
40
0.4
0
CIRCLE
8
BLACK
10
118.4274599999999964
20
-88.2348130000000026
40
0.4
0
CIRCLE
8
BLACK
10
118.4274599999999964
20
-85.6948129999999964
40
0.4
0
CIRCLE
8
BLACK
10
118.4274599999999964
20
-83.1548129999999901
40
0.4
0
CIRCLE
8
BLACK
10
118.4274599999999964
20
-80.6148129999999981
40
0.4
0
CIRCLE
8
BLACK
10
118.4274599999999964
20
-78.0748129999999918
40
0.4
0
CIRCLE
8
BLACK
10
118.4274599999999964
20
-75.5348129999999998
40
0.4
0
CIRCLE
8
BLACK
10
118.4274599999999964
20
-72.9948129999999935
40
0.4
0
CIRCLE
8
BLACK
10
118.4274599999999964
20
-70.4548130000000015
40
0.4
0
CIRCLE
8
BLACK
10
118.4274599999999964
20
-67.9148129999999952
40
0.4
0
CIRCLE
8
BLACK
10
118.4274599999999964
20
-65.3748130000000032
40
0.4
0
CIRCLE
8
BLACK
10
118.4274599999999964
20
-62.8348129999999969
40
0.4
0
CIRCLE
8
BLACK
10
118.4274599999999964
20
-60.2948129999999978
40
0.4
0
CIRCLE
8
BLACK
10
118.4274599999999964
20
-57.7548129999999986
40
0.4
0
CIRCLE
8
BLACK
10
113.5
20
-84.4200000000000017
40
0.4
0
CIRCLE
8
BLACK
10
113.5
20
-81.8799999999999955
40
0.4
0
CIRCLE
8
BLACK
10
113.5
20
-86.9599999999999937
40
0.4
0
CIRCLE
8
BLACK
10
113.5
20
-74.2599999999999909
40
0.4
0
CIRCLE
8
BLACK
10
113.5
20
-76.7999999999999972
40
0.4
0
CIRCLE
8
BLACK
10
113.5
20
-79.3400000000000034
40
0.4
0
CIRCLE
8
BLACK
10
113.5
20
-89.5
40
0.4
0
CIRCLE
8
BLACK
10
113.5
20
-92.039999999999992
40
0.4
0
CIRCLE
8
BLACK
10
71.0999999999999943
20
-92.0799999999999983
40
0.4
0
CIRCLE
8
BLACK
10
68.5600000000000023
20
-92.0799999999999983
40
0.4
0
CIRCLE
8
BLACK
10
66.019999999999996
20
-92.0799999999999983
40
0.4
0
CIRCLE
8
BLACK
10
71.0999999999999943
20
-84.5150000000000006
40
0.4
0
CIRCLE
8
BLACK
10
68.5600000000000023
20
-84.5150000000000006
40
0.4
0
CIRCLE
8
BLACK
10
66.019999999999996
20
-84.5150000000000006
40
0.4
0
CIRCLE
8
BLACK
10
71.0999999999999943
20
-77.1599999999999966
40
0.4
0
CIRCLE
8
BLACK
10
68.5600000000000023
20
-77.1599999999999966
40
0.4
0
CIRCLE
8
BLACK
10
66.019999999999996
20
-77.1599999999999966
40
0.4
0
CIRCLE
8
BLACK
10
71.0999999999999943
20
-69.5
40
0.4
0
CIRCLE
8
BLACK
10
66.019999999999996
20
-69.5
40
0.4
0
CIRCLE
8
BLACK
10
68.5600000000000023
20
-69.5
40
0.4
0
CIRCLE
8
BLACK
10
135.7999999999999829
20
-89.0799999999999983
40
0.4
0
CIRCLE
8
BLACK
10
135.7999999999999829
20
-86.539999999999992
40
0.4
0
CIRCLE
8
BLACK
10
135.7999999999999829
20
-84.
40
0.4
0
CIRCLE
8
BLACK
10
135.7999999999999829
20
-81.4599999999999937
40
0.4
0
CIRCLE
8
BLACK
10
135.7999999999999829
20
-78.9200000000000017
40
0.4
0
CIRCLE
8
BLACK
10
135.7999999999999829
20
-76.3799999999999955
40
0.4
0
CIRCLE
8
WHITE
10
93.0274599999999907
20
-60.2948129999999978
40
0.4
0
CIRCLE
8
WHITE
10
93.0274599999999907
20
-62.8348129999999969
40
0.4
0
CIRCLE
8
WHITE
10
93.0274599999999907
20
-57.7548129999999986
40
0.4
0
CIRCLE
8
WHITE
10
93.0274599999999907
20
-93.3148130000000009
40
0.4
0
CIRCLE
8
WHITE
10
93.0274599999999907
20
-90.7748129999999946
40
0.4
0
CIRCLE
8
WHITE
10
93.0274599999999907
20
-88.2348130000000026
40
0.4
0
CIRCLE
8
WHITE
10
93.0274599999999907
20
-85.6948129999999964
40
0.4
0
CIRCLE
8
WHITE
10
93.0274599999999907
20
-83.1548129999999901
40
0.4
0
CIRCLE
8
WHITE
10
93.0274599999999907
20
-80.6148129999999981
40
0.4
0
CIRCLE
8
WHITE
10
93.0274599999999907
20
-78.0748129999999918
40
0.4
0
CIRCLE
8
WHITE
10
93.0274599999999907
20
-75.5348129999999998
40
0.4
0
CIRCLE
8
WHITE
10
93.0274599999999907
20
-72.9948129999999935
40
0.4
0
CIRCLE
8
WHITE
10
93.0274599999999907
20
-70.4548130000000015
40
0.4
0
CIRCLE
8
WHITE
10
93.0274599999999907
20
-67.9148129999999952
40
0.4
0
CIRCLE
8
WHITE
10
93.0274599999999907
20
-65.3748130000000032
40
0.4
0
CIRCLE
8
WHITE
10
118.4274599999999964
20
-93.3148130000000009
40
0.4
0
CIRCLE
8
WHITE
10
118.4274599999999964
20
-90.7748129999999946
40
0.4
0
CIRCLE
8
WHITE
10
118.4274599999999964
20
-88.2348130000000026
40
0.4
0
CIRCLE
8
WHITE
10
118.4274599999999964
20
-85.6948129999999964
40
0.4
0
CIRCLE
8
WHITE
10
118.4274599999999964
20
-83.1548129999999901
40
0.4
0
CIRCLE
8
WHITE
10
118.4274599999999964
20
-80.6148129999999981
40
0.4
0
CIRCLE
8
WHITE
10
118.4274599999999964
20
-78.0748129999999918
40
0.4
0
CIRCLE
8
WHITE
10
118.4274599999999964
20
-75.5348129999999998
40
0.4
0
CIRCLE
8
WHITE
10
118.4274599999999964
20
-72.9948129999999935
40
0.4
0
CIRCLE
8
WHITE
10
118.4274599999999964
20
-70.4548130000000015
40
0.4
0
CIRCLE
8
WHITE
10
118.4274599999999964
20
-67.9148129999999952
40
0.4
0
CIRCLE
8
WHITE
10
118.4274599999999964
20
-65.3748130000000032
40
0.4
0
CIRCLE
8
WHITE
10
118.4274599999999964
20
-62.8348129999999969
40
0.4
0
CIRCLE
8
WHITE
10
118.4274599999999964
20
-60.2948129999999978
40
0.4
0
CIRCLE
8
WHITE
10
118.4274599999999964
20
-57.7548129999999986
40
0.4
0
CIRCLE
8
WHITE
10
113.5
20
-84.4200000000000017
40
0.4
0
CIRCLE
8
WHITE
10
113.5
20
-81.8799999999999955
40
0.4
0
CIRCLE
8
WHITE
10
113.5
20
-86.9599999999999937
40
0.4
0
CIRCLE
8
WHITE
10
113.5
20
-74.2599999999999909
40
0.4
0
CIRCLE
8
WHITE
10
113.5
20
-76.7999999999999972
40
0.4
0
CIRCLE
8
WHITE
10
113.5
20
-79.3400000000000034
40
0.4
0
CIRCLE
8
WHITE
10
113.5
20
-89.5
40
0.4
0
CIRCLE
8
WHITE
10
113.5
20
-92.039999999999992
40
0.4
0
CIRCLE
8
WHITE
10
71.0999999999999943
20
-92.0799999999999983
40
0.4
0
CIRCLE
8
WHITE
10
68.5600000000000023
20
-92.0799999999999983
40
0.4
0
CIRCLE
8
WHITE
10
66.019999999999996
20
-92.0799999999999983
40
0.4
0
CIRCLE
8
WHITE
10
71.0999999999999943
20
-84.5150000000000006
40
0.4
0
CIRCLE
8
WHITE
10
68.5600000000000023
20
-84.5150000000000006
40
0.4
0
CIRCLE
8
WHITE
10
66.019999999999996
20
-84.5150000000000006
40
0.4
0
CIRCLE
8
WHITE
10
71.0999999999999943
20
-77.1599999999999966
40
0.4
0
CIRCLE
8
WHITE
10
68.5600000000000023
20
-77.1599999999999966
40
0.4
0
CIRCLE
8
WHITE
10
66.019999999999996
20
-77.1599999999999966
40
0.4
0
CIRCLE
8
WHITE
10
71.0999999999999943
20
-69.5
40
0.4
0
CIRCLE
8
WHITE
10
66.019999999999996
20
-69.5
40
0.4
0
CIRCLE
8
WHITE
10
68.5600000000000023
20
-69.5
40
0.4
0
CIRCLE
8
WHITE
10
135.7999999999999829
20
-89.0799999999999983
40
0.4
0
CIRCLE
8
WHITE
10
135.7999999999999829
20
-86.539999999999992
40
0.4
0
CIRCLE
8
WHITE
10
135.7999999999999829
20
-84.
40
0.4
0
CIRCLE
8
WHITE
10
135.7999999999999829
20
-81.4599999999999937
40
0.4
0
CIRCLE
8
WHITE
10
135.7999999999999829
20
-78.9200000000000017
40
0.4
0
CIRCLE
8
WHITE
10
135.7999999999999829
20
-76.3799999999999955
40
0.4
  0
ENDSEC
  0
EOF
