<?xml version="1.0" standalone="no"?>
 <!DOCTYPE svg PUBLIC "-//W3C//DTD SVG 1.1//EN" 
 "http://www.w3.org/Graphics/SVG/1.1/DTD/svg11.dtd"> 
<svg
  xmlns:svg="http://www.w3.org/2000/svg"
  xmlns="http://www.w3.org/2000/svg"
  xmlns:xlink="http://www.w3.org/1999/xlink"
  version="1.1"
  width="297.0022mm" height="210.0072mm" viewBox="0.0000 0.0000 297.0022 210.0072">
<title>SVG Image created as Drone-F_Cu.svg date 2026/02/08 21:35:03 </title>
  <desc>Image generated by PCBNEW </desc>
<g style="fill:#000000; fill-opacity:1.0000;stroke:#000000; stroke-opacity:1.0000;
stroke-linecap:round; stroke-linejoin:round;"
 transform="translate(0 0) scale(1 1)">
</g>
<g style="fill:#000000; fill-opacity:1.0000; 
stroke:#000000; stroke-width:0.0212; stroke-opacity:1; 
stroke-linecap:round; stroke-linejoin:round;">
<rect x="48.630000" y="43.310000" width="107.520000" height="75.380000" rx="0.000000" />
<path style="fill:#FFFFFF; fill-opacity:1.0000; stroke:none;fill-rule:evenodd;"
d="M 125.1839,109.1396
125.9490,109.1396
125.9490,109.3545
125.4947,109.3545
125.4947,109.5265
125.8826,109.5265
125.8826,109.7297
125.4947,109.7297
125.4947,110.1400
125.1839,110.1400
Z" /> 
<path style="fill:#FFFFFF; fill-opacity:1.0000; stroke:none;fill-rule:evenodd;"
d="M 126.1183,109.1396
126.3970,109.1396
126.3970,110.1400
126.1183,110.1400
Z" /> 
<path style="fill:#FFFFFF; fill-opacity:1.0000; stroke:none;fill-rule:evenodd;"
d="M 126.5850,109.1396
126.8630,109.1396
126.8630,109.3272
126.5850,109.3272
Z" /> 
<path style="fill:#FFFFFF; fill-opacity:1.0000; stroke:none;fill-rule:evenodd;"
d="M 126.5850,109.4131
126.8630,109.4131
126.8630,110.1400
126.5850,110.1400
Z" /> 
<path style="fill:#FFFFFF; fill-opacity:1.0000; stroke:none;fill-rule:evenodd;"
d="M 127.3591,109.4011
127.4051,109.4110
127.4428,109.4264
127.4771,109.4486
127.5113,109.4798
127.5456,109.5218
127.5456,109.4131
127.8059,109.4131
127.8059,110.1010
127.8065,110.1332
127.7993,110.2002
127.7775,110.2638
127.7432,110.3207
127.7003,110.3643
127.6473,110.3966
127.5781,110.4198
127.5011,110.4324
127.4083,110.4370
127.2935,110.4315
127.2095,110.4170
127.1495,110.3961
127.1081,110.3706
127.0723,110.3346
127.0471,110.2937
127.0318,110.2470
127.0264,110.1929
127.0278,110.1556
127.2977,110.1869
127.3116,110.2206
127.3291,110.2397
127.3627,110.2555
127.4063,110.2611
127.4450,110.2571
127.4742,110.2461
127.4960,110.2288
127.5112,110.2052
127.5217,110.1692
127.5258,110.1161
127.5258,110.0055
127.4832,110.0482
127.4438,110.0750
127.4000,110.0937
127.3540,110.1049
127.3052,110.1087
127.2489,110.1036
127.1983,110.0887
127.1521,110.0640
127.1095,110.0289
127.0702,109.9819
127.0436,109.9359
127.0238,109.8819
127.0111,109.8185
127.0080,109.7670
127.2840,109.7670
127.2883,109.8184
127.3000,109.8561
127.3174,109.8834
127.3419,109.9042
127.3708,109.9168
127.4056,109.9212
127.4385,109.9168
127.4671,109.9039
127.4927,109.8820
127.5112,109.8537
127.5233,109.8153
127.5279,109.7637
127.5232,109.7121
127.5105,109.6727
127.4910,109.6427
127.4641,109.6191
127.4345,109.6054
127.4008,109.6007
127.3671,109.6052
127.3392,109.6179
127.3157,109.6392
127.2995,109.6670
127.2883,109.7080
127.2840,109.7670
127.0080,109.7670
127.0066,109.7439
127.0126,109.6588
127.0290,109.5893
127.0545,109.5324
127.0886,109.4862
127.1324,109.4476
127.1819,109.4202
127.2383,109.4034
127.3031,109.3975
Z" /> 
<path style="fill:#FFFFFF; fill-opacity:1.0000; stroke:none;fill-rule:evenodd;"
d="M 127.9738,109.1396
128.2518,109.1396
128.2518,109.5079
128.3104,109.4554
128.3645,109.4230
128.4239,109.4042
128.4971,109.3975
128.5530,109.4022
128.6005,109.4156
128.6410,109.4370
128.6757,109.4666
128.7025,109.5026
128.7228,109.5484
128.7361,109.6061
128.7410,109.6785
128.7410,110.1400
128.4615,110.1400
128.4615,109.7413
128.4581,109.6962
128.4492,109.6653
128.4363,109.6447
128.4177,109.6293
128.3945,109.6197
128.3652,109.6163
128.3333,109.6207
128.3064,109.6333
128.2832,109.6546
128.2675,109.6822
128.2562,109.7259
128.2518,109.7918
128.2518,110.1400
127.9738,110.1400
Z" /> 
<path style="fill:#FFFFFF; fill-opacity:1.0000; stroke:none;fill-rule:evenodd;"
d="M 129.2422,109.1396
129.2422,109.4131
129.3952,109.4131
129.3952,109.6163
129.2422,109.6163
129.2422,109.8751
129.2450,109.9177
129.2511,109.9369
129.2691,109.9540
129.2989,109.9602
129.3322,109.9565
129.3850,109.9424
129.4055,110.1332
129.3037,110.1503
129.2128,110.1556
129.1434,110.1520
129.0939,110.1425
129.0598,110.1290
129.0300,110.1083
129.0059,110.0815
128.9871,110.0480
128.9753,110.0105
128.9669,109.9539
128.9635,109.8720
128.9635,109.6163
128.8611,109.6163
128.8611,109.4131
128.9635,109.4131
128.9635,109.2811
Z" /> 
<path style="fill:#FFFFFF; fill-opacity:1.0000; stroke:none;fill-rule:evenodd;"
d="M 130.6793,109.7297
130.9506,109.8119
130.9280,109.8858
130.8991,109.9486
130.8645,110.0018
130.8220,110.0486
130.7736,110.0868
130.7186,110.1169
130.6592,110.1374
130.5863,110.1508
130.4969,110.1556
130.3886,110.1497
130.3008,110.1333
130.2302,110.1084
130.1819,110.0814
130.1362,110.0454
130.0927,109.9994
130.0515,109.9421
130.0200,109.8817
129.9965,109.8118
129.9817,109.7310
129.9764,109.6374
129.9825,109.5367
129.9996,109.4502
130.0266,109.3758
130.0629,109.3119
130.1086,109.2569
130.1634,109.2108
130.2267,109.1742
130.2999,109.1471
130.3845,109.1300
130.4826,109.1239
130.5785,109.1295
130.6585,109.1448
130.7249,109.1687
130.7801,109.2002
130.8290,109.2417
130.8721,109.2935
130.9095,109.3571
130.9410,109.4344
130.6677,109.4952
130.6519,109.4530
130.6377,109.4283
130.6087,109.3967
130.5741,109.3736
130.5348,109.3594
130.4901,109.3545
130.4395,109.3600
130.3968,109.3758
130.3603,109.4018
130.3289,109.4390
130.3073,109.4830
130.2923,109.5465
130.2865,109.6357
130.2907,109.7230
130.3018,109.7867
130.3177,109.8321
130.3371,109.8635
130.3645,109.8901
130.3966,109.9091
130.4344,109.9209
130.4792,109.9251
130.5362,109.9189
130.5799,109.9019
130.6134,109.8751
130.6394,109.8393
130.6616,109.7917
Z" /> 
<path style="fill:#FFFFFF; fill-opacity:1.0000; stroke:none;fill-rule:evenodd;"
d="M 131.5513,109.4033
131.6265,109.4196
131.6907,109.4453
131.7455,109.4799
131.7923,109.5238
131.8311,109.5771
131.8588,109.6359
131.8758,109.7012
131.8817,109.7745
131.8744,109.8564
131.8534,109.9282
131.8191,109.9919
131.7707,110.0488
131.7249,110.0859
131.6723,110.1154
131.6122,110.1371
131.5431,110.1508
131.4637,110.1556
131.3765,110.1495
131.3015,110.1321
131.2368,110.1045
131.1809,110.0668
131.1328,110.0197
131.0962,109.9681
131.0700,109.9114
131.0539,109.8487
131.0484,109.7786
131.0486,109.7762
131.3271,109.7762
131.3322,109.8406
131.3459,109.8875
131.3663,109.9212
131.3951,109.9475
131.4276,109.9628
131.4651,109.9681
131.5030,109.9628
131.5354,109.9477
131.5638,109.9218
131.5837,109.8886
131.5972,109.8408
131.6024,109.7735
131.5973,109.7110
131.5838,109.6650
131.5634,109.6317
131.5349,109.6054
131.5033,109.5902
131.4671,109.5851
131.4288,109.5904
131.3958,109.6059
131.3667,109.6323
131.3460,109.6662
131.3322,109.7128
131.3271,109.7762
131.0486,109.7762
131.0557,109.6975
131.0769,109.6261
131.1115,109.5623
131.1604,109.5051
131.2068,109.4674
131.2593,109.4377
131.3187,109.4159
131.3861,109.4023
131.4630,109.3975
Z" /> 
<path style="fill:#FFFFFF; fill-opacity:1.0000; stroke:none;fill-rule:evenodd;"
d="M 132.0155,109.4131
132.2744,109.4131
132.2744,109.5323
132.3156,109.4863
132.3546,109.4524
132.3919,109.4286
132.4327,109.4119
132.4805,109.4013
132.5367,109.3975
132.5938,109.4022
132.6420,109.4156
132.6828,109.4369
132.7174,109.4663
132.7442,109.5021
132.7645,109.5479
132.7778,109.6057
132.7827,109.6785
132.7827,110.1400
132.5033,110.1400
132.5033,109.7413
132.4998,109.6962
132.4909,109.6653
132.4780,109.6447
132.4594,109.6293
132.4362,109.6197
132.4069,109.6163
132.3750,109.6207
132.3481,109.6333
132.3249,109.6546
132.3092,109.6822
132.2980,109.7259
132.2935,109.7918
132.2935,110.1400
132.0155,110.1400
Z" /> 
<path style="fill:#FFFFFF; fill-opacity:1.0000; stroke:none;fill-rule:evenodd;"
d="M 133.2839,109.1396
133.2839,109.4131
133.4370,109.4131
133.4370,109.6163
133.2839,109.6163
133.2839,109.8751
133.2867,109.9177
133.2928,109.9369
133.3108,109.9540
133.3406,109.9602
133.3740,109.9565
133.4267,109.9424
133.4472,110.1332
133.3454,110.1503
133.2546,110.1556
133.1851,110.1520
133.1357,110.1425
133.1015,110.1290
133.0718,110.1083
133.0477,110.0815
133.0288,110.0480
133.0171,110.0105
133.0086,109.9539
133.0053,109.8720
133.0053,109.6163
132.9028,109.6163
132.9028,109.4131
133.0053,109.4131
133.0053,109.2811
Z" /> 
<path style="fill:#FFFFFF; fill-opacity:1.0000; stroke:none;fill-rule:evenodd;"
d="M 133.5726,109.4131
133.8329,109.4131
133.8329,109.5319
133.8607,109.4821
133.8865,109.4481
133.9104,109.4264
133.9384,109.4107
133.9709,109.4009
134.0092,109.3975
134.0494,109.4013
134.0939,109.4133
134.1437,109.4350
134.0576,109.6330
134.0104,109.6168
133.9798,109.6124
133.9458,109.6176
133.9181,109.6324
133.8951,109.6577
133.8740,109.7032
133.8584,109.7785
133.8520,109.8961
133.8520,110.1400
133.5726,110.1400
Z" /> 
<path style="fill:#FFFFFF; fill-opacity:1.0000; stroke:none;fill-rule:evenodd;"
d="M 134.6825,109.4033
134.7577,109.4196
134.8219,109.4453
134.8767,109.4799
134.9235,109.5238
134.9623,109.5771
134.9900,109.6359
135.0070,109.7012
135.0129,109.7745
135.0056,109.8564
134.9846,109.9282
134.9502,109.9919
134.9019,110.0488
134.8560,110.0859
134.8035,110.1154
134.7434,110.1371
134.6743,110.1508
134.5949,110.1556
134.5077,110.1495
134.4327,110.1321
134.3680,110.1045
134.3121,110.0668
134.2640,110.0197
134.2274,109.9681
134.2012,109.9114
134.1851,109.8487
134.1796,109.7786
134.1798,109.7762
134.4583,109.7762
134.4634,109.8406
134.4771,109.8875
134.4975,109.9212
134.5263,109.9475
134.5588,109.9628
134.5962,109.9681
134.6342,109.9628
134.6666,109.9477
134.6950,109.9218
134.7149,109.8886
134.7284,109.8408
134.7336,109.7735
134.7285,109.7110
134.7149,109.6650
134.6946,109.6317
134.6661,109.6054
134.6344,109.5902
134.5983,109.5851
134.5600,109.5904
134.5270,109.6059
134.4979,109.6323
134.4772,109.6662
134.4634,109.7128
134.4583,109.7762
134.1798,109.7762
134.1869,109.6975
134.2081,109.6261
134.2427,109.5623
134.2916,109.5051
134.3380,109.4674
134.3905,109.4377
134.4499,109.4159
134.5173,109.4023
134.5942,109.3975
Z" /> 
<path style="fill:#FFFFFF; fill-opacity:1.0000; stroke:none;fill-rule:evenodd;"
d="M 135.1563,109.1396
135.4350,109.1396
135.4350,110.1400
135.1563,110.1400
Z" /> 
<path style="fill:#FFFFFF; fill-opacity:1.0000; stroke:none;fill-rule:evenodd;"
d="M 135.6223,109.1396
135.9010,109.1396
135.9010,110.1400
135.6223,110.1400
Z" /> 
<path style="fill:#FFFFFF; fill-opacity:1.0000; stroke:none;fill-rule:evenodd;"
d="M 136.5572,109.4035
136.6377,109.4199
136.6997,109.4444
136.7553,109.4805
136.8007,109.5255
136.8370,109.5802
136.8620,109.6414
136.8782,109.7174
136.8841,109.8117
136.8841,109.8430
136.3267,109.8430
136.3349,109.8873
136.3472,109.9201
136.3629,109.9438
136.3925,109.9703
136.4271,109.9861
136.4681,109.9915
136.5079,109.9864
136.5460,109.9710
136.5679,109.9544
136.5945,109.9251
136.8684,109.9485
136.8216,110.0180
136.7712,110.0701
136.7168,110.1075
136.6555,110.1324
136.5725,110.1493
136.4620,110.1556
136.3661,110.1504
136.2919,110.1362
136.2352,110.1150
136.1841,110.0832
136.1386,110.0407
136.0982,109.9859
136.0686,109.9249
136.0503,109.8561
136.0439,109.7779
136.0498,109.7101
136.3274,109.7101
136.6014,109.7101
136.5918,109.6582
136.5770,109.6214
136.5579,109.5961
136.5326,109.5773
136.5022,109.5657
136.4654,109.5616
136.4238,109.5675
136.3891,109.5846
136.3595,109.6136
136.3398,109.6511
136.3274,109.7101
136.0498,109.7101
136.0512,109.6944
136.0720,109.6220
136.1057,109.5586
136.1529,109.5027
136.1979,109.4661
136.2495,109.4371
136.3085,109.4157
136.3761,109.4022
136.4538,109.3975
Z" /> 
<path style="fill:#FFFFFF; fill-opacity:1.0000; stroke:none;fill-rule:evenodd;"
d="M 137.0145,109.4131
137.2747,109.4131
137.2747,109.5319
137.3026,109.4821
137.3284,109.4481
137.3523,109.4264
137.3802,109.4107
137.4128,109.4009
137.4510,109.3975
137.4912,109.4013
137.5358,109.4133
137.5856,109.4350
137.4995,109.6330
137.4523,109.6168
137.4217,109.6124
137.3876,109.6176
137.3599,109.6324
137.3370,109.6577
137.3159,109.7032
137.3002,109.7785
137.2939,109.8961
137.2939,110.1400
137.0145,110.1400
Z" /> 
<path style="fill:#FFFFFF; fill-opacity:1.0000; stroke:none;fill-rule:evenodd;"
d="M 138.7030,109.1239
138.7030,110.1400
138.4216,110.1400
138.4216,109.4757
138.3528,109.5234
138.2894,109.5592
138.2210,109.5890
138.1292,109.6203
138.1292,109.3936
138.2224,109.3585
138.2948,109.3215
138.3498,109.2831
138.3983,109.2369
138.4392,109.1841
138.4728,109.1239
Z" /> 
<path style="fill:#FFFFFF; fill-opacity:1.0000; stroke:none;fill-rule:evenodd;"
d="M 139.0328,109.8625
139.3300,109.8625
139.3300,110.1400
139.0328,110.1400
Z" /> 
<path style="fill:#FFFFFF; fill-opacity:1.0000; stroke:none;fill-rule:evenodd;"
d="M 139.9549,109.1271
140.0095,109.1357
140.0535,109.1488
140.1137,109.1782
140.1594,109.2135
140.1966,109.2550
140.2239,109.2972
140.2447,109.3434
140.2618,109.3996
140.2828,109.5128
140.2899,109.6323
140.2852,109.7472
140.2723,109.8415
140.2527,109.9183
140.2276,109.9802
140.1977,110.0297
140.1583,110.0726
140.1089,110.1069
140.0479,110.1328
139.9726,110.1496
139.8800,110.1556
139.7963,110.1506
139.7292,110.1367
139.6758,110.1155
139.6273,110.0848
139.5848,110.0458
139.5480,109.9977
139.5271,109.9596
139.5081,109.9101
139.4917,109.8470
139.4768,109.7487
139.4715,109.6357
139.4716,109.6348
139.7475,109.6348
139.7525,109.7636
139.7649,109.8458
139.7813,109.8946
139.8013,109.9266
139.8240,109.9477
139.8496,109.9600
139.8793,109.9641
139.9188,109.9568
139.9527,109.9347
139.9704,109.9131
139.9858,109.8827
139.9985,109.8413
140.0088,109.7685
140.0132,109.6424
140.0081,109.5078
139.9956,109.4240
139.9794,109.3759
139.9594,109.3449
139.9363,109.3241
139.9095,109.3119
139.8779,109.3076
139.8458,109.3120
139.8192,109.3245
139.7969,109.3457
139.7782,109.3772
139.7634,109.4258
139.7521,109.5074
139.7475,109.6348
139.4716,109.6348
139.4769,109.5145
139.4915,109.4179
139.5135,109.3419
139.5413,109.2828
139.5743,109.2376
139.6171,109.1986
139.6683,109.1675
139.7292,109.1442
139.8016,109.1293
139.8875,109.1239
Z" /> 
</g>
<g style="fill:none; 
stroke:#FFFFFF; stroke-width:0.2000; stroke-opacity:1; 
stroke-linecap:round; stroke-linejoin:round;">
<path d="M56.7300 113.5900
L148.0500 113.5900
" />
<path d="M148.0500 48.4100
L151.0500 51.4100
" />
<path d="M53.7300 51.4100
L53.7300 110.5900
" />
<path d="M56.7300 48.4100
L148.0500 48.4100
" />
<path d="M53.7300 51.4100
L56.7300 48.4100
" />
<path d="M53.7300 110.5900
L56.7300 113.5900
" />
<path d="M151.0500 110.5900
L148.0500 113.5900
" />
<path d="M151.0500 51.4100
L151.0500 110.5900
" />
<circle cx="144.8000" cy="107.2000" r="2.0120" /> 
</g>
<g style="fill:none; 
stroke:#FFFFFF; stroke-width:0.3000; stroke-opacity:1; 
stroke-linecap:round; stroke-linejoin:round;">
<text x="124.7200" y="108.5500"
textLength="9.3857" font-size="2.0000" lengthAdjust="spacingAndGlyphs"
text-anchor="start" opacity="0" stroke-opacity="0">KROBOT</text>
<g class="stroked-text"><desc>KROBOT</desc>
<path d="M125.2745 108.3508
L125.2745 106.8508
" />
<path d="M126.1317 108.3508
L125.4888 107.4937
" />
<path d="M126.1317 106.8508
L125.2745 107.7080
" />
<path d="M127.6317 108.3508
L127.1317 107.6365
" />
<path d="M126.7745 108.3508
L126.7745 106.8508
" />
<path d="M126.7745 106.8508
L127.3459 106.8508
" />
<path d="M127.3459 106.8508
L127.4888 106.9223
" />
<path d="M127.4888 106.9223
L127.5602 106.9937
" />
<path d="M127.5602 106.9937
L127.6317 107.1365
" />
<path d="M127.6317 107.1365
L127.6317 107.3508
" />
<path d="M127.6317 107.3508
L127.5602 107.4937
" />
<path d="M127.5602 107.4937
L127.4888 107.5651
" />
<path d="M127.4888 107.5651
L127.3459 107.6365
" />
<path d="M127.3459 107.6365
L126.7745 107.6365
" />
<path d="M128.5602 106.8508
L128.8459 106.8508
" />
<path d="M128.8459 106.8508
L128.9888 106.9223
" />
<path d="M128.9888 106.9223
L129.1317 107.0651
" />
<path d="M129.1317 107.0651
L129.2031 107.3508
" />
<path d="M129.2031 107.3508
L129.2031 107.8508
" />
<path d="M129.2031 107.8508
L129.1317 108.1365
" />
<path d="M129.1317 108.1365
L128.9888 108.2794
" />
<path d="M128.9888 108.2794
L128.8459 108.3508
" />
<path d="M128.8459 108.3508
L128.5602 108.3508
" />
<path d="M128.5602 108.3508
L128.4174 108.2794
" />
<path d="M128.4174 108.2794
L128.2745 108.1365
" />
<path d="M128.2745 108.1365
L128.2031 107.8508
" />
<path d="M128.2031 107.8508
L128.2031 107.3508
" />
<path d="M128.2031 107.3508
L128.2745 107.0651
" />
<path d="M128.2745 107.0651
L128.4174 106.9223
" />
<path d="M128.4174 106.9223
L128.5602 106.8508
" />
<path d="M130.3459 107.5651
L130.5602 107.6365
" />
<path d="M130.5602 107.6365
L130.6317 107.7080
" />
<path d="M130.6317 107.7080
L130.7031 107.8508
" />
<path d="M130.7031 107.8508
L130.7031 108.0651
" />
<path d="M130.7031 108.0651
L130.6317 108.2080
" />
<path d="M130.6317 108.2080
L130.5602 108.2794
" />
<path d="M130.5602 108.2794
L130.4174 108.3508
" />
<path d="M130.4174 108.3508
L129.8459 108.3508
" />
<path d="M129.8459 108.3508
L129.8459 106.8508
" />
<path d="M129.8459 106.8508
L130.3459 106.8508
" />
<path d="M130.3459 106.8508
L130.4888 106.9223
" />
<path d="M130.4888 106.9223
L130.5602 106.9937
" />
<path d="M130.5602 106.9937
L130.6317 107.1365
" />
<path d="M130.6317 107.1365
L130.6317 107.2794
" />
<path d="M130.6317 107.2794
L130.5602 107.4223
" />
<path d="M130.5602 107.4223
L130.4888 107.4937
" />
<path d="M130.4888 107.4937
L130.3459 107.5651
" />
<path d="M130.3459 107.5651
L129.8459 107.5651
" />
<path d="M131.6317 106.8508
L131.9174 106.8508
" />
<path d="M131.9174 106.8508
L132.0602 106.9223
" />
<path d="M132.0602 106.9223
L132.2031 107.0651
" />
<path d="M132.2031 107.0651
L132.2745 107.3508
" />
<path d="M132.2745 107.3508
L132.2745 107.8508
" />
<path d="M132.2745 107.8508
L132.2031 108.1365
" />
<path d="M132.2031 108.1365
L132.0602 108.2794
" />
<path d="M132.0602 108.2794
L131.9174 108.3508
" />
<path d="M131.9174 108.3508
L131.6317 108.3508
" />
<path d="M131.6317 108.3508
L131.4888 108.2794
" />
<path d="M131.4888 108.2794
L131.3459 108.1365
" />
<path d="M131.3459 108.1365
L131.2745 107.8508
" />
<path d="M131.2745 107.8508
L131.2745 107.3508
" />
<path d="M131.2745 107.3508
L131.3459 107.0651
" />
<path d="M131.3459 107.0651
L131.4888 106.9223
" />
<path d="M131.4888 106.9223
L131.6317 106.8508
" />
<path d="M132.7031 106.8508
L133.5602 106.8508
" />
<path d="M133.1317 108.3508
L133.1317 106.8508
" />
</g><path style="fill:#FFFFFF; fill-opacity:1.0000; stroke:none;fill-rule:evenodd;"
d="M 70.2350,68.4850
71.9650,68.4850
71.9650,70.5150
70.2350,70.5150
Z" /> 
</g>
<g style="fill:none; 
stroke:#FFFFFF; stroke-width:1.7300; stroke-opacity:1; 
stroke-linecap:round; stroke-linejoin:round;">
<path d="M68.5600 69.3500
L68.5600 69.6500
" />
<path d="M66.0200 69.3500
L66.0200 69.6500
" />
</g>
<g style="fill:#FFFFFF; fill-opacity:1.0000; stroke:none;">
<circle cx="113.5000" cy="92.0400" r="0.8500" /> 
</g>
<g style="fill:#FFFFFF; fill-opacity:1.0000; stroke:none;">
<circle cx="113.5000" cy="89.5000" r="0.8500" /> 
<circle cx="113.5000" cy="86.9600" r="0.8500" /> 
<circle cx="113.5000" cy="84.4200" r="0.8500" /> 
<circle cx="113.5000" cy="81.8800" r="0.8500" /> 
<circle cx="113.5000" cy="79.3400" r="0.8500" /> 
<circle cx="113.5000" cy="76.8000" r="0.8500" /> 
<circle cx="113.5000" cy="74.2600" r="0.8500" /> 
<path style="fill:#FFFFFF; fill-opacity:1.0000; stroke:none;fill-rule:evenodd;"
d="M 136.6500,88.2300
136.6500,89.9300
134.9500,89.9300
134.9500,88.2300
Z" /> 
<circle cx="135.8000" cy="86.5400" r="0.8500" /> 
<circle cx="135.8000" cy="84.0000" r="0.8500" /> 
<circle cx="135.8000" cy="81.4600" r="0.8500" /> 
<circle cx="135.8000" cy="78.9200" r="0.8500" /> 
<circle cx="135.8000" cy="76.3800" r="0.8500" /> 
<path style="fill:#FFFFFF; fill-opacity:1.0000; stroke:none;fill-rule:evenodd;"
d="M 70.2350,92.1850
71.9650,92.1850
71.9650,94.2150
70.2350,94.2150
Z" /> 
</g>
<g style="fill:none; 
stroke:#FFFFFF; stroke-width:1.7300; stroke-opacity:1; 
stroke-linecap:round; stroke-linejoin:round;">
<path d="M68.5600 93.0500
L68.5600 93.3500
" />
<path d="M66.0200 93.0500
L66.0200 93.3500
" />
</g>
<g style="fill:none; 
stroke:#FFFFFF; stroke-width:1.5240; stroke-opacity:1; 
stroke-linecap:round; stroke-linejoin:round;">
<path d="M93.2155 93.3148
L92.8395 93.3148
" />
<path d="M93.2155 90.7748
L92.8395 90.7748
" />
<path d="M93.2155 88.2348
L92.8395 88.2348
" />
<path d="M93.2155 85.6948
L92.8395 85.6948
" />
<path d="M93.2155 83.1548
L92.8395 83.1548
" />
<path d="M93.2155 80.6148
L92.8395 80.6148
" />
<path d="M93.2155 78.0748
L92.8395 78.0748
" />
<path d="M93.2155 75.5348
L92.8395 75.5348
" />
<path d="M93.2155 72.9948
L92.8395 72.9948
" />
<path d="M93.2155 70.4548
L92.8395 70.4548
" />
<path d="M93.2155 67.9148
L92.8395 67.9148
" />
<path d="M93.2155 65.3748
L92.8395 65.3748
" />
<path d="M93.2155 62.8348
L92.8395 62.8348
" />
<path d="M93.2155 60.2948
L92.8395 60.2948
" />
<path d="M93.2155 57.7548
L92.8395 57.7548
" />
<path d="M118.6155 93.3148
L118.2395 93.3148
" />
<path d="M118.6155 90.7748
L118.2395 90.7748
" />
<path d="M118.6155 88.2348
L118.2395 88.2348
" />
<path d="M118.6155 85.6948
L118.2395 85.6948
" />
<path d="M118.6155 83.1548
L118.2395 83.1548
" />
<path d="M118.6155 80.6148
L118.2395 80.6148
" />
<path d="M118.6155 78.0748
L118.2395 78.0748
" />
<path d="M118.6155 75.5348
L118.2395 75.5348
" />
<path d="M118.6155 72.9948
L118.2395 72.9948
" />
<path d="M118.6155 70.4548
L118.2395 70.4548
" />
<path d="M118.6155 67.9148
L118.2395 67.9148
" />
<path d="M118.6155 65.3748
L118.2395 65.3748
" />
<path d="M118.6155 62.8348
L118.2395 62.8348
" />
<path d="M118.6155 60.2948
L118.2395 60.2948
" />
<path d="M118.6155 57.7548
L118.2395 57.7548
" />
<path style="fill:#FFFFFF; fill-opacity:1.0000; stroke:none;fill-rule:evenodd;"
d="M 70.2350,84.2850
71.9650,84.2850
71.9650,86.3150
70.2350,86.3150
Z" /> 
</g>
<g style="fill:none; 
stroke:#FFFFFF; stroke-width:1.7300; stroke-opacity:1; 
stroke-linecap:round; stroke-linejoin:round;">
<path d="M68.5600 85.1500
L68.5600 85.4500
" />
<path d="M66.0200 85.1500
L66.0200 85.4500
" />
<path style="fill:#FFFFFF; fill-opacity:1.0000; stroke:none;fill-rule:evenodd;"
d="M 70.2350,76.3850
71.9650,76.3850
71.9650,78.4150
70.2350,78.4150
Z" /> 
</g>
<g style="fill:none; 
stroke:#FFFFFF; stroke-width:1.7300; stroke-opacity:1; 
stroke-linecap:round; stroke-linejoin:round;">
<path d="M68.5600 77.2500
L68.5600 77.5500
" />
<path d="M66.0200 77.2500
L66.0200 77.5500
" />
</g>
<g style="fill:none; 
stroke:#FFFFFF; stroke-width:1.2000; stroke-opacity:1; 
stroke-linecap:round; stroke-linejoin:round;">
<path d="M69.6100 95.5600
L92.3800 95.5600
" />
<path d="M68.5600 94.5100
L69.6100 95.5600
" />
<path d="M92.9400 95.0000
L92.9400 93.4023
" />
<path d="M68.5600 93.2000
L68.5600 94.5100
" />
<path d="M92.3800 95.5600
L92.9400 95.0000
" />
</g>
<g style="fill:none; 
stroke:#FFFFFF; stroke-width:0.2000; stroke-opacity:1; 
stroke-linecap:round; stroke-linejoin:round;">
<path d="M92.9400 93.4023
L93.0275 93.3148
" />
</g>
<g style="fill:none; 
stroke:#FFFFFF; stroke-width:1.2000; stroke-opacity:1; 
stroke-linecap:round; stroke-linejoin:round;">
<path d="M72.9600 91.3400
L92.4623 91.3400
" />
<path d="M92.4623 91.3400
L93.0275 90.7748
" />
<path d="M71.1000 77.4000
L71.1000 85.3000
" />
<path d="M71.1000 85.3000
L71.1000 93.2000
" />
<path d="M71.1000 69.5000
L71.1000 77.4000
" />
<path d="M71.1000 93.2000
L72.9600 91.3400
" />
</g>
<g style="fill:none; 
stroke:#FFFFFF; stroke-width:0.5000; stroke-opacity:1; 
stroke-linecap:round; stroke-linejoin:round;">
<path d="M66.0200 93.2000
L66.0200 103.0700
" />
<path d="M66.0200 103.0700
L67.3500 104.4000
" />
</g>
<g style="fill:none; 
stroke:#FFFFFF; stroke-width:0.2000; stroke-opacity:1; 
stroke-linecap:round; stroke-linejoin:round;">
<path d="M93.1823 88.0800
L93.0275 88.2348
" />
</g>
<g style="fill:none; 
stroke:#FFFFFF; stroke-width:0.5000; stroke-opacity:1; 
stroke-linecap:round; stroke-linejoin:round;">
<path d="M96.1900 88.0800
L93.1823 88.0800
" />
<path d="M95.6400 104.4000
L97.5100 102.5300
" />
<path d="M97.5100 89.4000
L96.1900 88.0800
" />
<path d="M97.5100 102.5300
L97.5100 89.4000
" />
<path d="M67.3500 104.4000
L95.6400 104.4000
" />
<path d="M100.0100 87.7300
L98.0800 85.8000
" />
<path d="M63.0000 85.3000
L61.6300 86.6700
" />
<path d="M98.0800 85.8000
L93.1326 85.8000
" />
<path d="M100.0100 105.6000
L100.0100 87.7300
" />
<path d="M61.6300 103.5700
L65.8400 107.7800
" />
<path d="M61.6300 86.6700
L61.6300 103.5700
" />
<path d="M65.8400 107.7800
L97.8300 107.7800
" />
<path d="M66.0200 85.3000
L63.0000 85.3000
" />
</g>
<g style="fill:none; 
stroke:#FFFFFF; stroke-width:0.2000; stroke-opacity:1; 
stroke-linecap:round; stroke-linejoin:round;">
<path d="M93.1326 85.8000
L93.0275 85.6948
" />
</g>
<g style="fill:none; 
stroke:#FFFFFF; stroke-width:0.5000; stroke-opacity:1; 
stroke-linecap:round; stroke-linejoin:round;">
<path d="M97.8300 107.7800
L100.0100 105.6000
" />
<path d="M58.0000 106.1400
L63.6100 111.7500
" />
<path d="M58.0000 80.1400
L58.0000 106.1400
" />
<path d="M100.5548 83.1548
L93.0275 83.1548
" />
<path d="M66.0200 77.4000
L60.7400 77.4000
" />
<path d="M101.9000 108.4100
L101.9000 84.5000
" />
<path d="M98.5600 111.7500
L101.9000 108.4100
" />
<path d="M63.6100 111.7500
L98.5600 111.7500
" />
<path d="M101.9000 84.5000
L100.5548 83.1548
" />
<path d="M60.7400 77.4000
L58.0000 80.1400
" />
<path d="M89.6600 62.7100
L89.6600 80.2100
" />
<path d="M66.0200 69.5000
L66.0200 62.5500
" />
<path d="M66.4000 62.1700
L89.1200 62.1700
" />
</g>
<g style="fill:none; 
stroke:#FFFFFF; stroke-width:0.2000; stroke-opacity:1; 
stroke-linecap:round; stroke-linejoin:round;">
<path d="M92.9126 80.5000
L93.0275 80.6148
" />
</g>
<g style="fill:none; 
stroke:#FFFFFF; stroke-width:0.5000; stroke-opacity:1; 
stroke-linecap:round; stroke-linejoin:round;">
<path d="M89.1200 62.1700
L89.6600 62.7100
" />
<path d="M89.6600 80.2100
L89.9500 80.5000
" />
<path d="M89.9500 80.5000
L92.9126 80.5000
" />
<path d="M66.0200 62.5500
L66.4000 62.1700
" />
<path d="M121.2148 67.9148
L118.4275 67.9148
" />
<path d="M115.4200 86.8500
L115.4200 70.9223
" />
<path d="M122.8000 84.0000
L121.3000 82.5000
" />
<path d="M115.4200 70.9223
L118.4275 67.9148
" />
</g>
<g style="fill:none; 
stroke:#FFFFFF; stroke-width:0.2000; stroke-opacity:1; 
stroke-linecap:round; stroke-linejoin:round;">
<path d="M121.3000 68.0000
L121.2148 67.9148
" />
</g>
<g style="fill:none; 
stroke:#FFFFFF; stroke-width:0.5000; stroke-opacity:1; 
stroke-linecap:round; stroke-linejoin:round;">
<path d="M121.3000 82.5000
L121.3000 68.0000
" />
<path d="M115.3100 86.9600
L115.4200 86.8500
" />
<path d="M135.8000 84.0000
L122.8000 84.0000
" />
<path d="M113.5000 86.9600
L115.3100 86.9600
" />
<path d="M123.4400 81.4600
L123.3000 81.3200
" />
<path d="M110.9200 62.1400
L112.6600 60.4000
" />
<path d="M112.6600 60.4000
L118.3223 60.4000
" />
<path d="M122.0948 60.2948
L118.4275 60.2948
" />
</g>
<g style="fill:none; 
stroke:#FFFFFF; stroke-width:0.2000; stroke-opacity:1; 
stroke-linecap:round; stroke-linejoin:round;">
<path d="M118.3223 60.4000
L118.4275 60.2948
" />
</g>
<g style="fill:none; 
stroke:#FFFFFF; stroke-width:0.5000; stroke-opacity:1; 
stroke-linecap:round; stroke-linejoin:round;">
<path d="M123.3000 61.5000
L122.0948 60.2948
" />
<path d="M110.9200 81.8400
L110.9200 62.1400
" />
<path d="M123.3000 81.3200
L123.3000 61.5000
" />
<path d="M113.5000 84.4200
L110.9200 81.8400
" />
<path d="M135.8000 81.4600
L123.4400 81.4600
" />
</g>
<g style="fill:none; 
stroke:#FFFFFF; stroke-width:1.2000; stroke-opacity:1; 
stroke-linecap:round; stroke-linejoin:round;">
<path d="M113.5000 89.5000
L117.1526 89.5000
" />
<path d="M122.6623 86.5400
L118.4275 90.7748
" />
<path d="M117.1526 89.5000
L118.4275 90.7748
" />
<path d="M135.8000 86.5400
L122.6623 86.5400
" />
</g>
<g style="fill:none; 
stroke:#FFFFFF; stroke-width:0.2000; stroke-opacity:1; 
stroke-linecap:round; stroke-linejoin:round;">
<path d="M117.8496 90.7748
L118.4275 90.7748
" />
</g>
<g style="fill:none; 
stroke:#FFFFFF; stroke-width:1.2000; stroke-opacity:1; 
stroke-linecap:round; stroke-linejoin:round;">
<path d="M113.5000 92.0400
L117.1526 92.0400
" />
<path d="M128.4852 93.3148
L118.4275 93.3148
" />
<path d="M135.8000 89.0800
L132.7200 89.0800
" />
<path d="M132.7200 89.0800
L128.4852 93.3148
" />
<path d="M117.1526 92.0400
L118.4275 93.3148
" />
</g> 
</svg>
