<?xml version="1.0" standalone="no"?>
 <!DOCTYPE svg PUBLIC "-//W3C//DTD SVG 1.1//EN" 
 "http://www.w3.org/Graphics/SVG/1.1/DTD/svg11.dtd"> 
<svg
  xmlns:svg="http://www.w3.org/2000/svg"
  xmlns="http://www.w3.org/2000/svg"
  xmlns:xlink="http://www.w3.org/1999/xlink"
  version="1.1"
  width="297.0022mm" height="210.0072mm" viewBox="0.0000 0.0000 297.0022 210.0072">
<title>SVG Image created as Drone-F_Cu.svg date 2026/02/05 23:29:23 </title>
  <desc>Image generated by PCBNEW </desc>
<g style="fill:#000000; fill-opacity:1.0000;stroke:#000000; stroke-opacity:1.0000;
stroke-linecap:round; stroke-linejoin:round;"
 transform="translate(0 0) scale(1 1)">
</g>
<g style="fill:#000000; fill-opacity:1.0000; 
stroke:#000000; stroke-width:0.0212; stroke-opacity:1; 
stroke-linecap:round; stroke-linejoin:round;">
<rect x="48.630000" y="43.310000" width="107.520000" height="75.380000" rx="0.000000" />
</g>
<g style="fill:none; 
stroke:#FFFFFF; stroke-width:0.2000; stroke-opacity:1; 
stroke-linecap:round; stroke-linejoin:round;">
<path d="M56.7300 113.5900
L148.0500 113.5900
" />
<path d="M148.0500 48.4100
L151.0500 51.4100
" />
<path d="M53.7300 51.4100
L53.7300 110.5900
" />
<path d="M56.7300 48.4100
L148.0500 48.4100
" />
<path d="M53.7300 51.4100
L56.7300 48.4100
" />
<path d="M53.7300 110.5900
L56.7300 113.5900
" />
<path d="M151.0500 110.5900
L148.0500 113.5900
" />
<path d="M151.0500 51.4100
L151.0500 110.5900
" />
<circle cx="144.8000" cy="107.2000" r="2.0120" /> 
</g>
<g style="fill:none; 
stroke:#FFFFFF; stroke-width:0.3000; stroke-opacity:1; 
stroke-linecap:round; stroke-linejoin:round;">
<text x="124.7200" y="108.5500"
textLength="11.7429" font-size="2.0000" lengthAdjust="spacingAndGlyphs"
text-anchor="start" opacity="0" stroke-opacity="0">KRobotics</text>
<g class="stroked-text"><desc>KRobotics</desc>
<path d="M125.2745 108.3508
L125.2745 106.8508
" />
<path d="M126.1317 108.3508
L125.4888 107.4937
" />
<path d="M126.1317 106.8508
L125.2745 107.7080
" />
<path d="M127.6317 108.3508
L127.1317 107.6365
" />
<path d="M126.7745 108.3508
L126.7745 106.8508
" />
<path d="M126.7745 106.8508
L127.3459 106.8508
" />
<path d="M127.3459 106.8508
L127.4888 106.9223
" />
<path d="M127.4888 106.9223
L127.5602 106.9937
" />
<path d="M127.5602 106.9937
L127.6317 107.1365
" />
<path d="M127.6317 107.1365
L127.6317 107.3508
" />
<path d="M127.6317 107.3508
L127.5602 107.4937
" />
<path d="M127.5602 107.4937
L127.4888 107.5651
" />
<path d="M127.4888 107.5651
L127.3459 107.6365
" />
<path d="M127.3459 107.6365
L126.7745 107.6365
" />
<path d="M128.4888 108.3508
L128.3459 108.2794
" />
<path d="M128.3459 108.2794
L128.2745 108.2080
" />
<path d="M128.2745 108.2080
L128.2031 108.0651
" />
<path d="M128.2031 108.0651
L128.2031 107.6365
" />
<path d="M128.2031 107.6365
L128.2745 107.4937
" />
<path d="M128.2745 107.4937
L128.3459 107.4223
" />
<path d="M128.3459 107.4223
L128.4888 107.3508
" />
<path d="M128.4888 107.3508
L128.7031 107.3508
" />
<path d="M128.7031 107.3508
L128.8459 107.4223
" />
<path d="M128.8459 107.4223
L128.9174 107.4937
" />
<path d="M128.9174 107.4937
L128.9888 107.6365
" />
<path d="M128.9888 107.6365
L128.9888 108.0651
" />
<path d="M128.9888 108.0651
L128.9174 108.2080
" />
<path d="M128.9174 108.2080
L128.8459 108.2794
" />
<path d="M128.8459 108.2794
L128.7031 108.3508
" />
<path d="M128.7031 108.3508
L128.4888 108.3508
" />
<path d="M129.6317 108.3508
L129.6317 106.8508
" />
<path d="M129.6317 107.4223
L129.7745 107.3508
" />
<path d="M129.7745 107.3508
L130.0602 107.3508
" />
<path d="M130.0602 107.3508
L130.2031 107.4223
" />
<path d="M130.2031 107.4223
L130.2745 107.4937
" />
<path d="M130.2745 107.4937
L130.3459 107.6365
" />
<path d="M130.3459 107.6365
L130.3459 108.0651
" />
<path d="M130.3459 108.0651
L130.2745 108.2080
" />
<path d="M130.2745 108.2080
L130.2031 108.2794
" />
<path d="M130.2031 108.2794
L130.0602 108.3508
" />
<path d="M130.0602 108.3508
L129.7745 108.3508
" />
<path d="M129.7745 108.3508
L129.6317 108.2794
" />
<path d="M131.2031 108.3508
L131.0602 108.2794
" />
<path d="M131.0602 108.2794
L130.9888 108.2080
" />
<path d="M130.9888 108.2080
L130.9174 108.0651
" />
<path d="M130.9174 108.0651
L130.9174 107.6365
" />
<path d="M130.9174 107.6365
L130.9888 107.4937
" />
<path d="M130.9888 107.4937
L131.0602 107.4223
" />
<path d="M131.0602 107.4223
L131.2031 107.3508
" />
<path d="M131.2031 107.3508
L131.4174 107.3508
" />
<path d="M131.4174 107.3508
L131.5602 107.4223
" />
<path d="M131.5602 107.4223
L131.6317 107.4937
" />
<path d="M131.6317 107.4937
L131.7031 107.6365
" />
<path d="M131.7031 107.6365
L131.7031 108.0651
" />
<path d="M131.7031 108.0651
L131.6317 108.2080
" />
<path d="M131.6317 108.2080
L131.5602 108.2794
" />
<path d="M131.5602 108.2794
L131.4174 108.3508
" />
<path d="M131.4174 108.3508
L131.2031 108.3508
" />
<path d="M132.1317 107.3508
L132.7031 107.3508
" />
<path d="M132.3459 106.8508
L132.3459 108.1365
" />
<path d="M132.3459 108.1365
L132.4174 108.2794
" />
<path d="M132.4174 108.2794
L132.5602 108.3508
" />
<path d="M132.5602 108.3508
L132.7031 108.3508
" />
<path d="M133.2031 108.3508
L133.2031 107.3508
" />
<path d="M133.2031 106.8508
L133.1317 106.9223
" />
<path d="M133.1317 106.9223
L133.2031 106.9937
" />
<path d="M133.2031 106.9937
L133.2745 106.9223
" />
<path d="M133.2745 106.9223
L133.2031 106.8508
" />
<path d="M133.2031 106.8508
L133.2031 106.9937
" />
<path d="M134.5602 108.2794
L134.4174 108.3508
" />
<path d="M134.4174 108.3508
L134.1317 108.3508
" />
<path d="M134.1317 108.3508
L133.9888 108.2794
" />
<path d="M133.9888 108.2794
L133.9174 108.2080
" />
<path d="M133.9174 108.2080
L133.8459 108.0651
" />
<path d="M133.8459 108.0651
L133.8459 107.6365
" />
<path d="M133.8459 107.6365
L133.9174 107.4937
" />
<path d="M133.9174 107.4937
L133.9888 107.4223
" />
<path d="M133.9888 107.4223
L134.1317 107.3508
" />
<path d="M134.1317 107.3508
L134.4174 107.3508
" />
<path d="M134.4174 107.3508
L134.5602 107.4223
" />
<path d="M135.1317 108.2794
L135.2745 108.3508
" />
<path d="M135.2745 108.3508
L135.5602 108.3508
" />
<path d="M135.5602 108.3508
L135.7031 108.2794
" />
<path d="M135.7031 108.2794
L135.7745 108.1365
" />
<path d="M135.7745 108.1365
L135.7745 108.0651
" />
<path d="M135.7745 108.0651
L135.7031 107.9223
" />
<path d="M135.7031 107.9223
L135.5602 107.8508
" />
<path d="M135.5602 107.8508
L135.3459 107.8508
" />
<path d="M135.3459 107.8508
L135.2031 107.7794
" />
<path d="M135.2031 107.7794
L135.1317 107.6365
" />
<path d="M135.1317 107.6365
L135.1317 107.5651
" />
<path d="M135.1317 107.5651
L135.2031 107.4223
" />
<path d="M135.2031 107.4223
L135.3459 107.3508
" />
<path d="M135.3459 107.3508
L135.5602 107.3508
" />
<path d="M135.5602 107.3508
L135.7031 107.4223
" />
</g><path style="fill:#FFFFFF; fill-opacity:1.0000; stroke:none;fill-rule:evenodd;"
d="M 70.2350,68.4850
71.9650,68.4850
71.9650,70.5150
70.2350,70.5150
Z" /> 
</g>
<g style="fill:none; 
stroke:#FFFFFF; stroke-width:1.7300; stroke-opacity:1; 
stroke-linecap:round; stroke-linejoin:round;">
<path d="M68.5600 69.3500
L68.5600 69.6500
" />
<path d="M66.0200 69.3500
L66.0200 69.6500
" />
</g>
<g style="fill:#FFFFFF; fill-opacity:1.0000; stroke:none;">
<circle cx="113.5000" cy="92.0400" r="0.8500" /> 
</g>
<g style="fill:#FFFFFF; fill-opacity:1.0000; stroke:none;">
<circle cx="113.5000" cy="89.5000" r="0.8500" /> 
<circle cx="113.5000" cy="86.9600" r="0.8500" /> 
<circle cx="113.5000" cy="84.4200" r="0.8500" /> 
<circle cx="113.5000" cy="81.8800" r="0.8500" /> 
<circle cx="113.5000" cy="79.3400" r="0.8500" /> 
<circle cx="113.5000" cy="76.8000" r="0.8500" /> 
<circle cx="113.5000" cy="74.2600" r="0.8500" /> 
<path style="fill:#FFFFFF; fill-opacity:1.0000; stroke:none;fill-rule:evenodd;"
d="M 136.6500,88.2300
136.6500,89.9300
134.9500,89.9300
134.9500,88.2300
Z" /> 
<circle cx="135.8000" cy="86.5400" r="0.8500" /> 
<circle cx="135.8000" cy="84.0000" r="0.8500" /> 
<circle cx="135.8000" cy="81.4600" r="0.8500" /> 
<circle cx="135.8000" cy="78.9200" r="0.8500" /> 
<circle cx="135.8000" cy="76.3800" r="0.8500" /> 
<path style="fill:#FFFFFF; fill-opacity:1.0000; stroke:none;fill-rule:evenodd;"
d="M 70.2350,92.1850
71.9650,92.1850
71.9650,94.2150
70.2350,94.2150
Z" /> 
</g>
<g style="fill:none; 
stroke:#FFFFFF; stroke-width:1.7300; stroke-opacity:1; 
stroke-linecap:round; stroke-linejoin:round;">
<path d="M68.5600 93.0500
L68.5600 93.3500
" />
<path d="M66.0200 93.0500
L66.0200 93.3500
" />
</g>
<g style="fill:none; 
stroke:#FFFFFF; stroke-width:1.5240; stroke-opacity:1; 
stroke-linecap:round; stroke-linejoin:round;">
<path d="M93.2155 93.3148
L92.8395 93.3148
" />
<path d="M93.2155 90.7748
L92.8395 90.7748
" />
<path d="M93.2155 88.2348
L92.8395 88.2348
" />
<path d="M93.2155 85.6948
L92.8395 85.6948
" />
<path d="M93.2155 83.1548
L92.8395 83.1548
" />
<path d="M93.2155 80.6148
L92.8395 80.6148
" />
<path d="M93.2155 78.0748
L92.8395 78.0748
" />
<path d="M93.2155 75.5348
L92.8395 75.5348
" />
<path d="M93.2155 72.9948
L92.8395 72.9948
" />
<path d="M93.2155 70.4548
L92.8395 70.4548
" />
<path d="M93.2155 67.9148
L92.8395 67.9148
" />
<path d="M93.2155 65.3748
L92.8395 65.3748
" />
<path d="M93.2155 62.8348
L92.8395 62.8348
" />
<path d="M93.2155 60.2948
L92.8395 60.2948
" />
<path d="M93.2155 57.7548
L92.8395 57.7548
" />
<path d="M118.6155 93.3148
L118.2395 93.3148
" />
<path d="M118.6155 90.7748
L118.2395 90.7748
" />
<path d="M118.6155 88.2348
L118.2395 88.2348
" />
<path d="M118.6155 85.6948
L118.2395 85.6948
" />
<path d="M118.6155 83.1548
L118.2395 83.1548
" />
<path d="M118.6155 80.6148
L118.2395 80.6148
" />
<path d="M118.6155 78.0748
L118.2395 78.0748
" />
<path d="M118.6155 75.5348
L118.2395 75.5348
" />
<path d="M118.6155 72.9948
L118.2395 72.9948
" />
<path d="M118.6155 70.4548
L118.2395 70.4548
" />
<path d="M118.6155 67.9148
L118.2395 67.9148
" />
<path d="M118.6155 65.3748
L118.2395 65.3748
" />
<path d="M118.6155 62.8348
L118.2395 62.8348
" />
<path d="M118.6155 60.2948
L118.2395 60.2948
" />
<path d="M118.6155 57.7548
L118.2395 57.7548
" />
<path style="fill:#FFFFFF; fill-opacity:1.0000; stroke:none;fill-rule:evenodd;"
d="M 70.2350,84.2850
71.9650,84.2850
71.9650,86.3150
70.2350,86.3150
Z" /> 
</g>
<g style="fill:none; 
stroke:#FFFFFF; stroke-width:1.7300; stroke-opacity:1; 
stroke-linecap:round; stroke-linejoin:round;">
<path d="M68.5600 85.1500
L68.5600 85.4500
" />
<path d="M66.0200 85.1500
L66.0200 85.4500
" />
<path style="fill:#FFFFFF; fill-opacity:1.0000; stroke:none;fill-rule:evenodd;"
d="M 70.2350,76.3850
71.9650,76.3850
71.9650,78.4150
70.2350,78.4150
Z" /> 
</g>
<g style="fill:none; 
stroke:#FFFFFF; stroke-width:1.7300; stroke-opacity:1; 
stroke-linecap:round; stroke-linejoin:round;">
<path d="M68.5600 77.2500
L68.5600 77.5500
" />
<path d="M66.0200 77.2500
L66.0200 77.5500
" />
</g>
<g style="fill:none; 
stroke:#FFFFFF; stroke-width:1.2000; stroke-opacity:1; 
stroke-linecap:round; stroke-linejoin:round;">
<path d="M69.6100 95.5600
L92.3800 95.5600
" />
<path d="M68.5600 94.5100
L69.6100 95.5600
" />
<path d="M92.9400 95.0000
L92.9400 93.4023
" />
<path d="M68.5600 93.2000
L68.5600 94.5100
" />
<path d="M92.3800 95.5600
L92.9400 95.0000
" />
</g>
<g style="fill:none; 
stroke:#FFFFFF; stroke-width:0.2000; stroke-opacity:1; 
stroke-linecap:round; stroke-linejoin:round;">
<path d="M92.9400 93.4023
L93.0275 93.3148
" />
</g>
<g style="fill:none; 
stroke:#FFFFFF; stroke-width:1.2000; stroke-opacity:1; 
stroke-linecap:round; stroke-linejoin:round;">
<path d="M72.9600 91.3400
L92.4623 91.3400
" />
<path d="M92.4623 91.3400
L93.0275 90.7748
" />
<path d="M71.1000 77.4000
L71.1000 85.3000
" />
<path d="M71.1000 85.3000
L71.1000 93.2000
" />
<path d="M71.1000 69.5000
L71.1000 77.4000
" />
<path d="M71.1000 93.2000
L72.9600 91.3400
" />
</g>
<g style="fill:none; 
stroke:#FFFFFF; stroke-width:0.5000; stroke-opacity:1; 
stroke-linecap:round; stroke-linejoin:round;">
<path d="M66.0200 93.2000
L66.0200 103.0700
" />
<path d="M66.0200 103.0700
L67.3500 104.4000
" />
</g>
<g style="fill:none; 
stroke:#FFFFFF; stroke-width:0.2000; stroke-opacity:1; 
stroke-linecap:round; stroke-linejoin:round;">
<path d="M93.1823 88.0800
L93.0275 88.2348
" />
</g>
<g style="fill:none; 
stroke:#FFFFFF; stroke-width:0.5000; stroke-opacity:1; 
stroke-linecap:round; stroke-linejoin:round;">
<path d="M96.1900 88.0800
L93.1823 88.0800
" />
<path d="M95.6400 104.4000
L97.5100 102.5300
" />
<path d="M97.5100 89.4000
L96.1900 88.0800
" />
<path d="M97.5100 102.5300
L97.5100 89.4000
" />
<path d="M67.3500 104.4000
L95.6400 104.4000
" />
<path d="M100.0100 87.7300
L98.0800 85.8000
" />
<path d="M63.0000 85.3000
L61.6300 86.6700
" />
<path d="M98.0800 85.8000
L93.1326 85.8000
" />
<path d="M100.0100 105.6000
L100.0100 87.7300
" />
<path d="M61.6300 103.5700
L65.8400 107.7800
" />
<path d="M61.6300 86.6700
L61.6300 103.5700
" />
<path d="M65.8400 107.7800
L97.8300 107.7800
" />
<path d="M66.0200 85.3000
L63.0000 85.3000
" />
</g>
<g style="fill:none; 
stroke:#FFFFFF; stroke-width:0.2000; stroke-opacity:1; 
stroke-linecap:round; stroke-linejoin:round;">
<path d="M93.1326 85.8000
L93.0275 85.6948
" />
</g>
<g style="fill:none; 
stroke:#FFFFFF; stroke-width:0.5000; stroke-opacity:1; 
stroke-linecap:round; stroke-linejoin:round;">
<path d="M97.8300 107.7800
L100.0100 105.6000
" />
<path d="M58.0000 106.1400
L63.6100 111.7500
" />
<path d="M58.0000 80.1400
L58.0000 106.1400
" />
<path d="M100.5548 83.1548
L93.0275 83.1548
" />
<path d="M66.0200 77.4000
L60.7400 77.4000
" />
<path d="M101.9000 108.4100
L101.9000 84.5000
" />
<path d="M98.5600 111.7500
L101.9000 108.4100
" />
<path d="M63.6100 111.7500
L98.5600 111.7500
" />
<path d="M101.9000 84.5000
L100.5548 83.1548
" />
<path d="M60.7400 77.4000
L58.0000 80.1400
" />
<path d="M89.6600 62.7100
L89.6600 80.2100
" />
<path d="M66.0200 69.5000
L66.0200 62.5500
" />
<path d="M66.4000 62.1700
L89.1200 62.1700
" />
</g>
<g style="fill:none; 
stroke:#FFFFFF; stroke-width:0.2000; stroke-opacity:1; 
stroke-linecap:round; stroke-linejoin:round;">
<path d="M92.9126 80.5000
L93.0275 80.6148
" />
</g>
<g style="fill:none; 
stroke:#FFFFFF; stroke-width:0.5000; stroke-opacity:1; 
stroke-linecap:round; stroke-linejoin:round;">
<path d="M89.1200 62.1700
L89.6600 62.7100
" />
<path d="M89.6600 80.2100
L89.9500 80.5000
" />
<path d="M89.9500 80.5000
L92.9126 80.5000
" />
<path d="M66.0200 62.5500
L66.4000 62.1700
" />
<path d="M121.2148 67.9148
L118.4275 67.9148
" />
<path d="M115.4200 86.8500
L115.4200 70.9223
" />
<path d="M122.8000 84.0000
L121.3000 82.5000
" />
<path d="M115.4200 70.9223
L118.4275 67.9148
" />
</g>
<g style="fill:none; 
stroke:#FFFFFF; stroke-width:0.2000; stroke-opacity:1; 
stroke-linecap:round; stroke-linejoin:round;">
<path d="M121.3000 68.0000
L121.2148 67.9148
" />
</g>
<g style="fill:none; 
stroke:#FFFFFF; stroke-width:0.5000; stroke-opacity:1; 
stroke-linecap:round; stroke-linejoin:round;">
<path d="M121.3000 82.5000
L121.3000 68.0000
" />
<path d="M115.3100 86.9600
L115.4200 86.8500
" />
<path d="M135.8000 84.0000
L122.8000 84.0000
" />
<path d="M113.5000 86.9600
L115.3100 86.9600
" />
<path d="M123.4400 81.4600
L123.3000 81.3200
" />
<path d="M110.9200 62.1400
L112.6600 60.4000
" />
<path d="M112.6600 60.4000
L118.3223 60.4000
" />
<path d="M122.0948 60.2948
L118.4275 60.2948
" />
</g>
<g style="fill:none; 
stroke:#FFFFFF; stroke-width:0.2000; stroke-opacity:1; 
stroke-linecap:round; stroke-linejoin:round;">
<path d="M118.3223 60.4000
L118.4275 60.2948
" />
</g>
<g style="fill:none; 
stroke:#FFFFFF; stroke-width:0.5000; stroke-opacity:1; 
stroke-linecap:round; stroke-linejoin:round;">
<path d="M123.3000 61.5000
L122.0948 60.2948
" />
<path d="M110.9200 81.8400
L110.9200 62.1400
" />
<path d="M123.3000 81.3200
L123.3000 61.5000
" />
<path d="M113.5000 84.4200
L110.9200 81.8400
" />
<path d="M135.8000 81.4600
L123.4400 81.4600
" />
</g>
<g style="fill:none; 
stroke:#FFFFFF; stroke-width:1.2000; stroke-opacity:1; 
stroke-linecap:round; stroke-linejoin:round;">
<path d="M113.5000 89.5000
L117.1526 89.5000
" />
<path d="M122.6623 86.5400
L118.4275 90.7748
" />
<path d="M117.1526 89.5000
L118.4275 90.7748
" />
<path d="M135.8000 86.5400
L122.6623 86.5400
" />
</g>
<g style="fill:none; 
stroke:#FFFFFF; stroke-width:0.2000; stroke-opacity:1; 
stroke-linecap:round; stroke-linejoin:round;">
<path d="M117.8496 90.7748
L118.4275 90.7748
" />
</g>
<g style="fill:none; 
stroke:#FFFFFF; stroke-width:1.2000; stroke-opacity:1; 
stroke-linecap:round; stroke-linejoin:round;">
<path d="M113.5000 92.0400
L117.1526 92.0400
" />
<path d="M128.4852 93.3148
L118.4275 93.3148
" />
<path d="M135.8000 89.0800
L132.7200 89.0800
" />
<path d="M132.7200 89.0800
L128.4852 93.3148
" />
<path d="M117.1526 92.0400
L118.4275 93.3148
" />
</g> 
</svg>
